{"glyphs":{"0":{"ha":838,"x_min":89,"x_max":749,"o":"m 418 976 q 614 925 542 976 q 717 764 686 874 q 749 479 749 654 q 717 194 749 304 q 614 33 686 85 q 418 -18 542 -18 q 224 33 296 -18 q 120 194 151 85 q 89 479 89 304 q 120 764 89 654 q 224 925 151 874 q 418 976 296 976 m 418 869 q 318 848 358 869 q 253 781 278 826 q 219 660 229 735 q 208 479 208 586 q 219 299 208 374 q 253 178 229 224 q 318 110 278 132 q 418 89 358 89 q 519 110 478 89 q 584 178 560 132 q 619 299 608 224 q 629 479 629 374 q 619 660 629 586 q 584 781 608 735 q 519 848 560 826 q 418 869 478 869 z "},"1":{"ha":553,"x_min":31,"x_max":397,"o":"m 397 958 l 397 0 l 275 0 l 275 760 q 276 801 275 781 q 282 843 278 822 l 47 769 l 31 860 l 275 958 l 397 958 z "},"2":{"ha":781,"x_min":76,"x_max":706,"o":"m 376 975 q 534 960 468 975 q 635 900 600 944 q 671 768 671 856 q 655 656 671 708 q 601 547 639 603 q 500 419 564 490 l 225 113 q 302 117 261 115 q 381 118 343 118 l 706 118 l 706 0 l 76 0 l 76 76 q 81 105 76 92 q 94 129 85 118 l 372 443 q 507 618 464 542 q 547 763 550 694 q 524 831 546 810 q 463 860 503 853 q 368 867 424 867 q 283 865 324 867 q 198 859 243 864 q 93 844 153 854 l 85 939 q 199 962 150 954 q 291 972 249 969 q 376 975 333 975 z "},"3":{"ha":772,"x_min":72,"x_max":682,"o":"m 358 976 q 528 956 464 976 q 624 888 593 936 q 654 754 654 839 q 642 642 654 693 q 599 558 629 592 q 514 513 569 524 l 514 507 q 644 428 608 492 q 681 267 679 365 q 653 106 682 169 q 557 13 624 43 q 376 -18 490 -18 q 223 -10 300 -18 q 72 7 146 -3 l 81 106 q 172 98 128 101 q 258 93 215 94 q 346 92 301 92 q 470 109 424 92 q 538 168 517 126 q 560 279 560 210 q 545 372 560 332 q 490 433 531 411 q 369 456 449 456 l 192 456 l 192 551 l 369 551 q 460 567 426 551 q 511 606 494 582 q 533 662 528 631 q 538 726 538 693 q 518 817 536 788 q 458 858 500 847 q 342 868 415 868 q 210 865 274 868 q 99 857 147 861 l 89 951 q 226 970 160 964 q 358 976 292 976 z "},"4":{"ha":854,"x_min":50,"x_max":793,"o":"m 458 958 l 190 392 q 190 349 178 364 q 225 335 201 335 l 793 335 l 793 247 l 665 235 l 157 235 q 92 257 118 235 q 58 314 65 279 q 65 383 50 349 l 338 958 l 458 958 m 669 775 l 669 0 l 554 0 l 554 617 l 575 775 l 669 775 z "},"5":{"ha":744,"x_min":72,"x_max":667,"o":"m 639 958 l 633 854 l 231 854 l 217 593 l 319 585 q 480 560 414 578 q 588 507 546 542 q 648 419 629 472 q 667 288 667 365 q 655 175 667 229 q 610 78 643 121 q 517 9 578 35 q 357 -17 456 -17 q 225 -8 300 -17 q 72 18 150 0 l 86 117 q 217 99 151 106 q 329 92 282 92 q 467 115 421 92 q 529 181 513 138 q 547 288 546 225 q 531 392 549 354 q 476 449 514 431 q 374 476 438 468 q 219 489 311 483 l 156 493 q 122 510 135 496 q 110 547 108 525 l 132 958 l 639 958 z "},"6":{"ha":794,"x_min":92,"x_max":718,"o":"m 464 975 q 546 972 493 975 q 657 954 599 969 l 646 865 q 590 869 615 868 q 535 871 564 871 q 464 871 506 871 q 344 856 393 871 q 267 797 296 840 q 225 671 238 754 q 213 451 213 588 q 218 276 213 347 q 244 165 224 206 q 305 106 264 124 q 417 88 346 88 q 538 113 499 88 q 590 189 578 139 q 601 310 601 239 q 587 436 601 389 q 533 505 572 483 q 424 526 494 526 q 339 515 378 526 q 260 476 300 504 q 167 396 219 447 l 161 457 q 249 559 207 522 q 340 610 290 596 q 456 625 389 625 q 614 594 557 625 q 694 495 671 564 q 718 310 718 426 q 707 176 718 236 q 664 72 696 115 q 572 6 632 29 q 415 -17 513 -17 q 250 6 314 -17 q 152 83 186 29 q 105 228 118 138 q 92 456 92 319 q 115 728 92 625 q 183 884 138 831 q 299 956 229 938 q 464 975 369 975 z "},"7":{"ha":711,"x_min":54,"x_max":668,"o":"m 596 958 q 642 948 625 958 q 663 919 658 938 q 660 874 668 900 l 361 0 l 239 0 l 508 783 q 522 820 515 803 q 538 854 529 838 l 60 854 l 54 958 l 596 958 z "},"8":{"ha":843,"x_min":96,"x_max":747,"o":"m 422 972 q 573 957 514 972 q 666 911 632 942 q 713 833 700 881 q 726 719 726 785 q 713 610 726 657 q 669 534 699 563 q 590 500 639 506 l 590 494 q 685 456 651 489 q 733 369 719 424 q 747 239 747 314 q 721 95 747 151 q 624 13 694 39 q 422 -14 554 -14 q 222 13 293 -14 q 124 95 151 39 q 96 239 96 151 q 110 369 96 314 q 160 456 125 424 q 254 494 194 489 l 254 500 q 175 534 206 506 q 131 610 144 563 q 117 719 117 657 q 131 833 117 785 q 178 911 144 881 q 272 957 213 942 q 422 972 331 972 m 425 449 q 318 440 360 449 q 253 412 276 432 q 220 356 229 392 q 211 264 211 319 q 228 162 211 200 q 292 108 246 124 q 424 92 339 92 q 553 108 508 92 q 614 162 597 124 q 631 264 631 200 q 622 357 631 321 q 590 413 613 393 q 528 441 568 433 q 425 449 488 449 m 424 874 q 303 858 344 874 q 245 807 261 843 q 229 708 229 771 q 245 608 229 643 q 303 559 261 572 q 425 546 346 546 q 547 560 506 546 q 601 609 588 574 q 615 708 615 644 q 601 807 615 771 q 544 858 586 843 q 424 874 503 874 z "},"9":{"ha":794,"x_min":76,"x_max":699,"o":"m 383 975 q 551 951 488 975 q 646 871 614 926 q 688 722 678 815 q 699 490 699 629 q 678 229 699 329 q 613 76 657 129 q 499 3 569 22 q 328 -17 428 -17 q 241 -14 296 -17 q 121 4 186 -11 l 132 94 q 192 90 165 92 q 249 89 218 89 q 328 89 281 89 q 449 106 400 89 q 526 166 497 122 q 568 289 556 210 q 581 493 581 368 q 576 676 581 603 q 553 792 571 749 q 494 853 535 835 q 382 871 454 871 q 262 844 303 871 q 207 768 221 818 q 193 646 193 718 q 208 528 193 576 q 261 456 222 481 q 368 431 300 431 q 452 442 414 431 q 531 483 490 454 q 624 561 571 511 l 629 501 q 542 399 585 436 q 451 348 500 363 q 336 333 403 333 q 181 374 238 333 q 100 485 124 414 q 76 646 76 556 q 105 828 76 756 q 201 938 133 901 q 383 975 268 975 z "}," ":{"ha":310,"x_min":0,"x_max":0,"o":""},"A":{"ha":864,"x_min":14,"x_max":850,"o":"m 496 958 q 525 949 513 958 q 542 925 538 940 l 850 0 l 724 0 l 475 786 q 463 826 469 806 q 451 864 457 846 l 413 864 q 401 826 407 846 q 389 786 396 806 l 140 0 l 14 0 l 322 925 q 339 949 326 940 q 368 958 351 958 l 496 958 m 674 406 l 674 300 l 188 300 l 188 406 l 674 406 z "},"B":{"ha":861,"x_min":121,"x_max":781,"o":"m 432 969 q 619 948 550 969 q 720 872 689 926 q 751 719 751 818 q 713 563 751 617 q 589 500 675 508 l 589 494 q 738 419 696 485 q 781 239 781 354 q 750 86 781 140 q 652 10 719 32 q 475 -11 585 -11 q 334 -10 393 -11 q 225 -7 275 -10 q 121 0 175 -4 l 140 97 q 256 94 171 96 q 456 93 342 93 q 576 106 532 93 q 638 156 619 119 q 657 260 657 192 q 638 375 657 335 q 572 432 618 415 q 447 450 526 449 l 139 450 l 139 543 l 446 543 q 556 558 515 544 q 615 606 597 571 q 633 706 633 642 q 614 806 633 771 q 549 853 594 840 q 426 865 504 865 q 304 865 358 865 q 209 865 250 865 q 140 861 168 864 l 121 958 q 213 966 169 964 q 309 969 257 968 q 432 969 361 969 m 240 958 l 240 0 l 121 0 l 121 958 l 240 958 z "},"C":{"ha":792,"x_min":85,"x_max":742,"o":"m 461 975 q 566 972 522 975 q 647 963 610 969 q 722 947 683 957 l 710 854 q 633 861 668 858 q 557 865 597 864 q 461 867 517 867 q 314 831 368 867 q 237 710 260 794 q 214 479 214 625 q 237 249 214 333 q 314 128 260 164 q 461 92 368 92 q 610 95 550 92 q 729 107 671 99 l 742 15 q 619 -9 682 -1 q 461 -17 556 -17 q 241 31 324 -17 q 122 188 158 79 q 85 479 85 296 q 122 771 85 663 q 241 927 158 879 q 461 975 324 975 z "},"D":{"ha":922,"x_min":121,"x_max":836,"o":"m 463 971 q 637 946 565 971 q 752 864 708 921 q 816 713 796 807 q 836 479 836 618 q 816 246 836 340 q 752 94 796 151 q 637 13 708 38 q 463 -12 565 -12 q 280 -9 364 -12 q 121 0 196 -6 l 174 100 q 303 97 232 99 q 463 94 375 94 q 608 130 554 94 q 685 249 663 165 q 708 479 708 333 q 685 709 708 625 q 608 829 663 793 q 463 865 554 865 q 308 864 376 865 q 174 861 239 863 l 121 958 q 280 967 196 964 q 463 971 364 971 m 243 958 l 243 0 l 121 0 l 121 958 l 243 958 z "},"E":{"ha":778,"x_min":113,"x_max":708,"o":"m 297 960 q 437 960 367 960 q 576 958 507 960 q 708 951 644 956 l 703 856 l 318 856 q 255 834 275 856 q 235 764 235 813 l 235 194 q 255 124 235 146 q 318 101 275 101 l 703 101 l 708 7 q 576 1 644 3 q 437 -1 507 0 q 297 -1 367 -1 q 163 44 213 -1 q 113 165 114 89 l 113 793 q 163 915 114 871 q 297 960 213 960 m 138 556 l 649 556 l 649 457 l 138 457 l 138 556 z "},"F":{"ha":749,"x_min":118,"x_max":700,"o":"m 303 960 q 438 959 369 960 q 572 957 506 958 q 700 950 639 956 l 693 856 l 333 856 q 263 834 285 856 q 240 764 240 813 l 240 0 l 118 0 l 118 788 q 168 915 118 869 q 303 960 218 960 m 142 542 l 640 542 l 640 443 l 142 443 l 142 542 z "},"G":{"ha":872,"x_min":86,"x_max":778,"o":"m 486 976 q 581 974 535 976 q 669 965 626 971 q 753 947 713 958 l 740 856 q 653 863 697 860 q 569 866 610 865 q 493 867 529 867 q 362 852 415 867 q 276 796 308 838 q 230 676 244 754 q 215 474 215 599 q 235 248 215 332 q 300 126 254 164 q 422 89 346 89 q 519 104 475 89 q 601 144 563 119 q 675 194 639 168 l 692 119 q 623 58 667 90 q 521 4 579 26 q 389 -18 463 -18 q 215 35 282 -18 q 117 199 147 89 q 86 482 86 310 q 124 780 86 672 q 251 932 163 888 q 486 976 339 976 m 778 554 l 778 0 l 689 0 l 669 142 l 658 169 l 658 554 l 778 554 z "},"H":{"ha":928,"x_min":121,"x_max":807,"o":"m 243 958 l 243 0 l 121 0 l 121 958 l 243 958 m 700 565 l 700 460 l 232 460 l 232 565 l 700 565 m 807 958 l 807 0 l 685 0 l 685 958 l 807 958 z "},"I":{"ha":364,"x_min":121,"x_max":243,"o":"m 243 958 l 243 0 l 121 0 l 121 958 l 243 958 z "},"J":{"ha":472,"x_min":42,"x_max":356,"o":"m 356 958 l 356 201 q 308 42 356 96 q 169 -12 260 -12 q 127 -10 151 -12 q 80 -4 103 -8 q 42 6 57 0 l 56 92 l 125 92 q 233 197 233 92 l 233 958 l 356 958 z "},"K":{"ha":821,"x_min":121,"x_max":794,"o":"m 775 958 l 496 561 q 472 530 483 543 q 443 500 460 517 l 443 497 q 476 464 461 481 q 503 431 492 447 l 794 0 l 657 0 l 317 501 l 642 958 l 775 958 m 242 958 l 242 658 q 238 579 242 617 q 225 501 233 542 q 237 424 232 463 q 242 349 242 385 l 242 0 l 121 0 l 121 958 l 242 958 m 383 549 l 383 450 l 199 450 l 199 549 l 383 549 z "},"L":{"ha":714,"x_min":118,"x_max":683,"o":"m 239 958 l 239 194 q 262 125 239 147 q 332 103 285 103 l 678 103 l 683 8 q 499 0 593 1 q 313 -1 406 -1 q 163 50 207 -1 q 118 179 118 101 l 118 958 l 239 958 z "},"M":{"ha":1218,"x_min":101,"x_max":1117,"o":"m 1026 958 q 1076 907 1076 958 l 1117 0 l 994 0 l 960 857 l 931 857 l 717 150 q 664 108 706 108 l 554 108 q 499 150 511 108 l 285 857 l 257 857 l 224 0 l 101 0 l 139 907 q 190 958 142 958 l 329 958 q 381 917 368 958 l 560 332 q 578 268 571 300 q 596 203 586 236 l 621 203 q 639 268 631 236 q 657 335 647 300 l 836 917 q 889 958 847 958 l 1026 958 z "},"N":{"ha":979,"x_min":121,"x_max":858,"o":"m 858 958 l 858 49 q 811 0 858 0 l 692 0 q 658 10 671 0 q 638 39 646 19 l 314 718 q 285 781 301 746 q 260 844 268 815 l 238 844 q 242 782 240 814 q 243 718 243 750 l 243 0 l 121 0 l 121 910 q 169 958 121 958 l 285 958 q 318 949 306 958 q 339 919 331 939 l 653 257 q 685 191 668 228 q 718 118 703 154 l 742 118 q 739 192 740 156 q 738 264 738 228 l 738 958 l 858 958 z "},"O":{"ha":928,"x_min":85,"x_max":842,"o":"m 464 976 q 641 951 568 976 q 758 869 714 926 q 822 715 801 811 q 842 479 842 619 q 822 243 842 339 q 758 90 801 147 q 641 7 714 32 q 464 -18 568 -18 q 287 7 360 -18 q 169 90 214 32 q 105 243 125 147 q 85 479 85 339 q 105 715 85 619 q 169 869 125 811 q 287 951 214 926 q 464 976 360 976 m 464 867 q 315 831 369 867 q 237 710 260 794 q 214 479 214 626 q 237 249 214 333 q 315 128 260 164 q 464 92 369 92 q 613 128 558 92 q 691 249 668 164 q 714 479 714 333 q 691 710 714 626 q 613 831 668 794 q 464 867 558 867 z "},"P":{"ha":819,"x_min":121,"x_max":758,"o":"m 450 971 q 633 944 565 971 q 729 853 700 918 q 758 671 758 789 q 730 488 758 553 q 637 397 701 422 q 464 371 572 371 q 352 374 406 371 q 254 381 299 376 q 178 392 210 386 q 135 401 147 397 l 139 476 q 292 476 213 476 q 449 476 371 476 q 559 494 518 478 q 617 552 600 510 q 635 671 635 594 q 617 790 635 749 q 559 849 600 832 q 449 865 518 865 q 252 864 335 865 q 140 860 169 863 l 121 958 q 219 967 174 964 q 319 970 265 969 q 450 971 374 971 m 243 958 l 243 0 l 121 0 l 121 958 l 243 958 z "},"Q":{"ha":929,"x_min":86,"x_max":843,"o":"m 465 976 q 642 951 569 976 q 759 869 715 926 q 823 715 803 811 q 843 479 843 619 q 823 243 843 339 q 759 90 803 147 q 642 7 715 32 q 465 -18 569 -18 q 288 7 360 -18 q 171 90 215 32 q 106 243 126 147 q 86 479 86 339 q 106 715 86 619 q 171 869 126 811 q 288 951 215 926 q 465 976 360 976 m 408 -60 q 582 -118 490 -94 q 776 -157 674 -142 l 738 -279 q 539 -217 629 -257 q 374 -133 449 -178 l 408 -60 m 465 867 q 316 831 371 867 q 238 710 261 794 q 215 479 215 626 q 238 249 215 333 q 316 128 261 164 q 465 92 371 92 q 614 128 560 92 q 692 249 668 164 q 715 479 715 333 q 692 710 715 626 q 614 831 668 794 q 465 867 560 867 z "},"R":{"ha":858,"x_min":121,"x_max":796,"o":"m 451 971 q 631 947 563 971 q 730 863 699 922 q 761 694 761 803 q 743 565 761 617 q 687 484 725 513 q 585 447 649 456 l 585 440 q 631 417 608 435 q 674 372 654 400 q 703 303 693 343 l 796 0 l 665 0 l 581 300 q 532 377 563 354 q 453 400 501 400 q 306 401 368 400 q 201 403 243 401 q 135 404 160 404 l 139 506 l 449 506 q 560 522 519 507 q 619 577 601 538 q 638 688 638 617 q 619 797 638 758 q 560 850 601 835 q 449 865 519 865 q 252 864 335 865 q 140 863 169 863 l 121 958 q 219 967 174 964 q 320 970 265 969 q 451 971 375 971 m 242 958 l 242 0 l 121 0 l 121 958 l 242 958 z "},"S":{"ha":779,"x_min":76,"x_max":708,"o":"m 388 975 q 528 968 456 974 q 672 947 600 963 l 664 858 q 532 863 604 861 q 393 865 460 865 q 305 862 342 865 q 244 845 268 858 q 210 802 221 832 q 200 719 200 772 q 228 609 200 640 q 321 563 257 578 l 515 514 q 667 422 626 488 q 708 244 708 356 q 690 110 708 161 q 632 31 671 58 q 532 -6 593 4 q 388 -17 471 -17 q 265 -12 340 -17 q 90 10 189 -8 l 99 100 q 231 95 181 97 q 317 93 281 93 q 392 93 353 93 q 508 104 465 93 q 567 149 550 115 q 585 247 585 182 q 572 333 585 303 q 533 380 560 364 q 464 406 506 396 l 265 456 q 119 547 161 482 q 76 722 76 613 q 95 856 76 806 q 152 933 114 907 q 249 967 190 958 q 388 975 307 975 z "},"T":{"ha":807,"x_min":33,"x_max":774,"o":"m 464 958 l 464 0 l 342 0 l 342 958 l 464 958 m 774 958 l 774 850 l 33 850 l 33 958 l 774 958 z "},"U":{"ha":925,"x_min":114,"x_max":811,"o":"m 811 958 l 811 367 q 778 143 811 228 q 669 20 744 58 q 468 -18 594 -18 q 261 20 339 -18 q 149 143 183 58 q 114 367 114 228 l 114 958 l 236 958 l 236 367 q 258 203 236 264 q 329 117 279 143 q 463 92 379 92 q 595 117 546 92 q 667 203 644 143 q 689 367 689 264 l 689 958 l 811 958 z "},"V":{"ha":846,"x_min":24,"x_max":822,"o":"m 822 958 l 532 35 q 514 10 526 21 q 485 0 501 0 l 361 0 q 331 10 343 0 q 314 35 318 21 l 24 958 l 150 958 l 376 199 q 391 147 383 172 q 404 94 399 121 l 442 94 q 456 147 449 121 q 471 200 463 174 l 696 958 l 822 958 z "},"W":{"ha":1317,"x_min":43,"x_max":1274,"o":"m 1274 958 l 1079 36 q 1063 10 1075 21 q 1031 0 1050 0 l 892 0 q 860 10 874 0 q 844 38 847 21 l 694 758 q 683 813 689 786 q 672 867 678 840 l 643 867 q 633 813 638 840 q 622 758 628 785 l 474 38 q 456 10 469 21 q 425 0 443 0 l 285 0 q 253 10 267 0 q 238 36 240 21 l 43 958 l 172 958 l 322 211 q 332 155 328 185 q 342 93 336 125 l 374 93 q 385 154 379 125 q 396 211 390 183 l 544 918 q 560 947 547 936 q 592 958 574 958 l 725 958 q 756 947 743 958 q 772 918 768 936 l 921 211 q 933 151 928 181 q 940 93 938 122 l 975 93 q 983 152 979 122 q 993 210 988 182 l 1144 958 l 1274 958 z "},"X":{"ha":849,"x_min":35,"x_max":814,"o":"m 796 958 l 543 496 l 814 0 l 681 0 l 418 496 l 664 958 l 796 958 m 185 958 l 431 496 l 168 0 l 35 0 l 304 496 l 53 958 l 185 958 m 497 544 l 497 450 l 350 450 l 350 544 l 497 544 z "},"Y":{"ha":790,"x_min":15,"x_max":774,"o":"m 774 958 l 450 325 l 340 325 l 15 958 l 146 958 l 347 554 q 370 500 360 528 q 390 446 381 472 l 400 446 q 421 500 410 472 q 443 553 432 528 l 644 958 l 774 958 m 456 411 l 456 0 l 333 0 l 333 411 l 456 411 z "},"Z":{"ha":786,"x_min":67,"x_max":721,"o":"m 578 856 l 711 854 l 201 103 l 67 104 l 578 856 m 721 104 l 721 0 l 67 0 l 67 104 l 721 104 m 711 958 l 711 854 l 75 854 l 75 958 l 711 958 z "},"a":{"ha":763,"x_min":71,"x_max":660,"o":"m 428 693 q 555 673 503 693 q 633 606 607 653 q 660 476 660 558 l 660 0 l 567 0 l 549 147 l 540 163 l 540 476 q 512 566 540 539 q 403 593 483 593 q 270 588 350 593 q 113 575 190 582 l 101 663 q 205 678 149 671 q 319 689 261 685 q 428 693 378 693 m 604 417 l 603 328 l 279 326 q 211 301 231 325 q 192 233 192 276 l 192 190 q 217 113 192 138 q 297 89 242 89 q 385 103 336 89 q 485 149 435 118 q 576 226 535 179 l 576 139 q 533 94 561 119 q 465 44 504 68 q 377 3 425 19 q 274 -12 329 -12 q 168 9 214 -12 q 97 73 122 31 q 71 176 71 115 l 71 250 q 120 373 71 329 q 258 417 169 417 l 604 417 z "},"b":{"ha":792,"x_min":106,"x_max":717,"o":"m 472 693 q 657 612 597 693 q 717 340 717 531 q 702 186 717 253 q 653 74 688 119 q 562 6 619 29 q 417 -17 504 -17 q 342 -14 382 -17 q 260 -5 301 -11 q 178 10 218 1 q 106 32 139 19 l 200 113 q 274 94 238 101 q 347 85 311 88 q 414 83 382 83 q 519 108 479 85 q 576 188 558 132 q 594 340 594 244 q 581 488 594 433 q 531 567 567 543 q 431 590 496 590 q 325 560 375 590 q 210 479 275 531 l 201 558 q 287 633 243 603 q 378 678 331 663 q 472 693 425 693 m 224 972 l 224 719 q 222 640 224 676 q 211 567 219 604 l 222 547 l 224 26 l 106 32 l 106 972 l 224 972 z "},"c":{"ha":679,"x_min":75,"x_max":628,"o":"m 397 693 q 465 690 428 693 q 542 681 503 688 q 615 661 582 674 l 600 585 q 503 591 554 589 q 417 593 453 593 q 289 571 336 593 q 221 493 242 549 q 200 339 200 438 q 221 184 200 240 q 289 106 242 128 q 417 83 336 83 q 471 85 438 83 q 542 89 504 86 q 615 97 581 92 l 628 18 q 516 -8 576 0 q 396 -17 456 -17 q 208 18 279 -17 q 106 131 138 53 q 75 339 75 208 q 107 547 75 469 q 210 659 139 625 q 397 693 281 693 z "},"d":{"ha":796,"x_min":78,"x_max":686,"o":"m 333 693 q 465 676 400 693 q 590 622 531 658 l 583 549 q 468 579 518 568 q 361 590 418 590 q 267 570 303 590 q 215 496 232 550 q 199 342 199 442 q 215 186 199 242 q 265 108 231 131 q 354 86 300 86 q 427 97 394 86 q 497 131 460 107 q 583 190 533 154 l 594 107 q 468 19 539 56 q 315 -17 397 -17 q 133 74 188 -17 q 78 340 78 164 q 106 549 78 472 q 190 660 133 626 q 333 693 247 693 m 686 972 l 686 0 l 594 0 l 581 118 l 568 128 l 568 592 l 576 613 q 569 688 571 651 q 568 764 568 724 l 568 972 l 686 972 z "},"e":{"ha":746,"x_min":75,"x_max":678,"o":"m 386 693 q 608 638 539 693 q 676 472 676 582 q 639 331 678 382 q 515 281 600 281 l 121 281 l 121 372 l 485 372 q 544 403 531 372 q 558 472 558 435 q 519 565 557 538 q 392 593 482 593 q 276 572 318 593 q 216 497 233 550 q 199 347 199 443 q 220 182 199 239 q 289 104 242 125 q 414 83 336 83 q 533 88 468 83 q 649 100 597 93 l 661 21 q 583 0 629 8 q 487 -12 536 -8 q 399 -17 438 -17 q 211 19 282 -17 q 108 133 140 54 q 75 340 75 211 q 108 551 75 474 q 209 660 140 628 q 386 693 278 693 z "},"f":{"ha":528,"x_min":39,"x_max":549,"o":"m 358 996 q 415 995 381 996 q 486 992 450 994 q 549 986 522 990 l 539 899 l 400 899 q 306 872 333 899 q 279 785 279 846 l 279 0 l 161 0 l 161 797 q 181 905 161 861 q 243 972 200 949 q 358 996 286 996 m 496 676 l 496 583 l 39 583 l 39 669 l 168 676 l 496 676 z "},"g":{"ha":775,"x_min":57,"x_max":744,"o":"m 376 693 q 548 671 485 693 q 638 601 611 649 q 665 478 665 554 q 638 356 665 404 q 547 285 611 308 q 375 263 483 263 q 203 285 267 263 q 113 356 140 308 q 86 476 86 403 q 113 601 86 553 q 204 671 140 649 q 376 693 268 693 m 375 603 q 234 574 274 603 q 194 478 194 546 q 234 382 194 411 q 375 353 274 353 q 517 382 478 353 q 556 478 556 411 q 517 574 556 546 q 375 603 478 603 m 744 676 l 738 611 l 565 597 l 517 676 l 744 676 m 185 307 l 253 297 q 221 247 229 276 q 226 192 213 217 q 282 160 239 167 l 535 119 q 668 60 631 106 q 706 -71 706 14 q 676 -196 706 -150 q 575 -261 646 -242 q 383 -281 504 -281 q 229 -270 292 -281 q 128 -235 167 -260 q 74 -172 90 -211 q 57 -75 57 -133 q 70 -1 57 -31 q 112 53 83 29 q 186 99 140 76 l 269 144 l 324 125 l 256 74 q 209 33 228 53 q 181 -10 190 13 q 172 -65 172 -33 q 190 -137 172 -112 q 254 -172 208 -162 q 382 -181 300 -181 q 509 -171 464 -181 q 572 -136 554 -161 q 590 -65 590 -111 q 581 -12 590 -31 q 547 15 572 6 q 474 32 522 25 l 231 65 q 162 93 188 71 q 126 146 136 115 q 121 208 117 176 q 142 266 125 239 q 185 307 158 293 z "},"h":{"ha":807,"x_min":108,"x_max":703,"o":"m 519 693 q 703 507 703 693 l 703 0 l 583 0 l 583 474 q 562 567 583 542 q 488 593 540 593 q 363 564 425 593 q 214 479 300 535 l 208 564 q 365 658 288 624 q 519 693 443 693 m 226 972 l 228 704 q 224 618 228 658 q 214 547 221 578 l 226 526 l 226 0 l 108 0 l 108 972 l 226 972 z "},"i":{"ha":344,"x_min":108,"x_max":236,"o":"m 231 676 l 231 0 l 114 0 l 114 676 l 231 676 m 200 964 q 236 928 236 964 l 236 849 q 200 813 236 813 l 144 813 q 108 849 108 813 l 108 928 q 144 964 108 964 l 200 964 z "},"j":{"ha":347,"x_min":38,"x_max":238,"o":"m 233 676 l 233 -17 q 217 -120 233 -71 q 172 -210 201 -169 q 103 -282 143 -251 l 38 -231 q 97 -132 78 -182 q 115 -17 115 -82 l 115 676 l 233 676 m 203 964 q 238 928 238 964 l 238 849 q 203 813 238 813 l 147 813 q 111 849 111 813 l 111 928 q 147 964 111 964 l 203 964 z "},"k":{"ha":707,"x_min":108,"x_max":683,"o":"m 661 676 l 449 428 q 425 402 439 415 q 401 382 411 389 l 401 379 q 425 356 411 372 q 449 325 439 340 l 683 0 l 546 0 l 278 388 l 524 676 l 661 676 m 226 972 l 228 540 q 224 460 228 497 q 214 383 221 424 q 224 306 221 344 q 226 231 226 267 l 226 0 l 108 0 l 108 972 l 226 972 m 342 425 l 342 339 l 185 339 l 185 425 l 342 425 z "},"l":{"ha":413,"x_min":110,"x_max":399,"o":"m 228 972 l 226 186 q 251 119 226 142 q 319 96 275 96 l 385 96 l 399 6 q 363 -4 386 0 q 316 -10 340 -8 q 275 -12 292 -12 q 155 32 200 -12 q 110 160 110 76 l 110 972 l 228 972 z "},"m":{"ha":1217,"x_min":108,"x_max":1113,"o":"m 932 693 q 1066 646 1019 693 q 1113 507 1113 599 l 1113 0 l 996 0 l 996 474 q 971 565 994 536 q 890 593 947 593 q 822 581 854 593 q 750 544 789 569 q 656 479 711 519 l 649 563 q 792 660 722 628 q 932 693 861 693 m 206 676 l 214 547 l 226 526 l 226 0 l 108 0 l 108 676 l 206 676 m 489 693 q 621 647 575 693 q 668 507 667 600 l 668 0 l 554 0 l 554 474 q 528 566 554 539 q 449 593 501 593 q 381 582 414 593 q 309 546 349 571 q 213 479 269 521 l 204 563 q 347 660 278 628 q 489 693 417 693 z "},"n":{"ha":807,"x_min":108,"x_max":703,"o":"m 519 693 q 703 507 703 693 l 703 0 l 585 0 l 585 474 q 563 567 585 542 q 488 593 540 593 q 363 563 425 593 q 214 479 300 532 l 208 564 q 365 659 288 625 q 519 693 443 693 m 208 676 l 218 547 l 226 526 l 226 0 l 108 0 l 108 676 l 208 676 z "},"o":{"ha":789,"x_min":76,"x_max":713,"o":"m 394 693 q 581 658 511 693 q 682 545 651 624 q 713 338 713 467 q 682 130 713 208 q 581 17 651 51 q 394 -18 511 -18 q 209 17 279 -18 q 108 130 139 51 q 76 338 76 208 q 108 545 76 467 q 209 658 139 624 q 394 693 279 693 m 394 593 q 278 570 321 593 q 218 492 236 547 q 200 338 200 436 q 218 183 200 239 q 278 105 236 128 q 394 82 321 82 q 511 105 468 82 q 572 183 554 128 q 590 338 590 239 q 572 492 590 436 q 511 570 554 547 q 394 593 468 593 z "},"p":{"ha":806,"x_min":108,"x_max":728,"o":"m 496 693 q 674 602 619 693 q 728 335 728 511 q 700 127 728 204 q 616 17 672 50 q 472 -17 560 -17 q 341 1 406 -17 q 215 57 276 19 l 222 128 q 338 98 288 110 q 443 86 388 86 q 538 107 503 86 q 590 182 574 128 q 607 335 607 236 q 592 486 607 431 q 544 566 576 542 q 457 590 511 590 q 347 564 401 590 q 221 483 293 538 l 210 563 q 294 632 247 603 q 394 677 342 661 q 496 693 446 693 m 206 676 l 218 536 l 226 518 l 226 85 l 221 68 q 226 -7 225 29 q 226 -83 226 -43 l 226 -279 l 108 -279 l 108 676 l 206 676 z "},"q":{"ha":792,"x_min":76,"x_max":686,"o":"m 381 693 q 451 690 413 693 q 532 681 490 688 q 613 666 574 675 q 686 646 653 657 l 590 564 q 517 582 554 575 q 444 592 479 589 q 379 593 410 594 q 272 569 313 592 q 215 489 232 546 q 197 328 197 432 q 228 145 197 204 q 347 86 258 86 q 463 113 411 86 q 582 186 515 140 l 597 108 q 507 41 554 69 q 410 -3 460 13 q 308 -18 361 -18 q 133 67 190 -18 q 76 336 76 151 q 91 490 76 424 q 140 602 106 557 q 233 670 175 647 q 381 693 292 693 m 568 650 l 686 646 l 686 -279 l 568 -279 l 567 -47 q 569 33 567 -3 q 581 106 572 68 l 568 125 l 568 650 z "},"r":{"ha":557,"x_min":108,"x_max":532,"o":"m 200 676 l 215 547 l 226 526 l 226 0 l 108 0 l 108 676 l 200 676 m 532 693 l 518 582 l 479 582 q 360 558 419 582 q 214 489 300 533 l 204 563 q 355 658 279 624 q 501 693 431 693 l 532 693 z "},"s":{"ha":706,"x_min":69,"x_max":638,"o":"m 333 693 q 428 690 378 693 q 527 683 478 688 q 618 672 576 679 l 608 586 q 480 591 544 589 q 351 593 415 593 q 253 590 289 594 q 201 568 217 586 q 185 507 185 550 q 210 438 185 454 q 283 410 235 421 l 481 365 q 599 306 561 346 q 638 179 638 265 q 606 54 638 96 q 511 -1 575 13 q 349 -15 447 -15 q 241 -12 313 -15 q 83 4 169 -10 l 92 90 q 163 87 125 89 q 241 85 200 85 q 325 85 282 85 q 444 92 401 85 q 506 119 488 99 q 524 179 524 139 q 494 246 524 229 q 417 274 465 263 l 222 318 q 133 355 167 332 q 85 415 100 378 q 69 507 69 451 q 97 626 69 586 q 183 681 125 667 q 333 693 242 694 z "},"t":{"ha":529,"x_min":38,"x_max":493,"o":"m 278 876 l 278 186 q 299 117 278 138 q 369 96 319 96 l 472 96 l 486 6 q 435 -4 464 0 q 378 -10 406 -8 q 333 -12 350 -12 q 204 35 249 -12 q 160 171 160 82 l 160 876 l 278 876 m 493 676 l 493 583 l 38 583 l 38 669 l 171 676 l 493 676 z "},"u":{"ha":792,"x_min":104,"x_max":683,"o":"m 222 676 l 222 201 q 246 111 221 138 q 329 85 271 85 q 442 112 386 85 q 578 190 499 139 l 593 108 q 440 14 514 46 q 289 -18 365 -18 q 104 168 104 -18 l 104 676 l 222 676 m 683 676 l 683 0 l 589 0 l 578 128 l 565 149 l 565 676 l 683 676 z "},"v":{"ha":736,"x_min":25,"x_max":710,"o":"m 710 676 l 463 29 q 447 8 457 15 q 421 0 436 0 l 314 0 q 289 8 300 0 q 272 29 278 15 l 25 676 l 151 676 l 318 203 q 339 143 329 174 q 358 85 349 113 l 376 85 q 398 144 388 114 q 418 203 408 174 l 585 676 l 710 676 z "},"w":{"ha":1144,"x_min":35,"x_max":1110,"o":"m 1110 676 l 913 33 q 896 9 908 18 q 867 0 883 0 l 760 0 q 730 10 743 0 q 714 38 717 21 l 603 497 q 592 550 597 524 q 581 604 588 576 l 564 604 q 552 550 558 576 q 540 497 546 524 l 431 38 q 414 10 426 21 q 383 0 401 0 l 278 0 q 249 9 261 0 q 232 33 236 18 l 35 676 l 157 676 l 297 178 q 310 127 304 153 q 319 76 315 101 l 338 76 q 351 127 344 101 q 363 178 357 153 l 475 639 q 490 666 478 656 q 519 676 501 676 l 626 676 q 655 666 643 676 q 671 638 667 656 l 782 178 q 794 128 788 153 q 806 76 800 103 l 824 76 q 835 127 831 103 q 847 178 839 151 l 988 676 l 1110 676 z "},"x":{"ha":733,"x_min":32,"x_max":701,"o":"m 685 676 l 475 349 l 701 0 l 574 0 l 353 349 l 557 676 l 685 676 m 176 676 l 381 349 l 161 0 l 32 0 l 258 349 l 49 676 l 176 676 m 440 397 l 440 306 l 294 306 l 294 397 l 440 397 z "},"y":{"ha":735,"x_min":25,"x_max":708,"o":"m 708 676 l 438 -37 q 396 -125 421 -82 q 335 -203 371 -168 q 252 -261 300 -239 q 142 -286 204 -283 l 131 -208 q 257 -137 213 -182 q 328 -29 301 -93 l 361 51 q 383 113 372 79 q 404 172 394 146 l 581 676 l 708 676 m 151 676 l 331 172 q 344 131 338 151 q 356 90 351 111 l 388 90 l 349 0 l 313 0 q 287 8 299 0 q 271 31 275 17 l 25 676 l 151 676 z "},"z":{"ha":708,"x_min":68,"x_max":640,"o":"m 504 581 l 636 579 l 200 94 l 68 96 l 504 581 m 640 96 l 640 0 l 68 0 l 68 96 l 640 96 m 636 676 l 636 579 l 72 579 l 72 676 l 636 676 z "},"&":{"ha":1072,"x_min":93,"x_max":1007,"o":"m 483 972 q 585 970 528 972 q 704 958 642 968 l 690 868 q 651 870 676 869 q 596 872 626 871 q 535 872 565 872 q 479 872 504 872 q 340 860 392 872 q 267 814 289 849 q 244 707 244 779 q 262 606 244 642 q 320 557 279 571 q 431 543 361 543 l 976 543 l 975 450 l 425 450 q 305 433 350 450 q 240 376 260 417 q 221 263 221 336 q 238 160 221 197 q 294 107 254 122 q 401 92 333 92 q 576 124 504 93 q 704 218 649 154 l 724 143 q 629 50 679 85 q 517 1 579 15 q 374 -14 456 -14 q 212 10 274 -14 q 122 90 150 35 q 93 243 93 146 q 134 419 93 353 q 281 494 175 485 l 281 500 q 157 565 193 508 q 121 724 121 621 q 142 857 121 807 q 207 931 163 907 q 319 964 251 956 q 483 972 388 972 m 801 721 l 801 182 q 822 113 801 133 q 890 92 843 92 l 993 92 l 1007 6 q 958 -4 986 0 q 904 -10 931 -8 q 860 -12 878 -12 q 733 29 776 -12 q 690 146 690 71 l 690 503 l 703 721 l 801 721 z "},".":{"ha":318,"x_min":94,"x_max":222,"o":"m 178 164 q 213 154 203 164 q 222 119 222 144 l 222 44 q 213 10 222 19 q 178 0 203 0 l 139 0 q 105 10 115 0 q 94 44 94 19 l 94 119 q 105 154 94 144 q 139 164 115 164 l 178 164 z "},",":{"ha":317,"x_min":96,"x_max":219,"o":"m 176 164 q 210 154 201 164 q 219 119 219 144 l 219 31 q 213 -46 219 -8 q 197 -117 207 -83 q 171 -183 186 -151 l 115 -167 q 126 -87 122 -124 q 129 0 129 -51 q 96 39 96 0 l 96 119 q 108 154 97 144 q 142 164 119 164 l 176 164 z "},":":{"ha":328,"x_min":96,"x_max":224,"o":"m 179 611 q 214 601 204 611 q 224 567 224 592 l 224 492 q 214 457 224 467 q 179 447 204 447 l 140 447 q 106 457 117 447 q 96 492 96 467 l 96 567 q 106 601 96 592 q 140 611 117 611 l 179 611 m 179 164 q 214 154 204 164 q 224 119 224 144 l 224 44 q 214 10 224 19 q 179 0 204 0 l 140 0 q 106 10 117 0 q 96 44 96 19 l 96 119 q 106 154 96 144 q 140 164 117 164 l 179 164 z "},";":{"ha":329,"x_min":101,"x_max":229,"o":"m 185 611 q 219 601 210 611 q 229 567 229 592 l 229 492 q 219 457 229 467 q 185 447 210 447 l 146 447 q 112 457 122 447 q 101 492 101 467 l 101 567 q 112 601 101 592 q 146 611 122 611 l 185 611 m 183 164 q 217 154 208 164 q 226 119 226 144 l 226 31 q 220 -46 226 -8 q 203 -117 214 -83 q 178 -183 193 -151 l 122 -167 q 133 -87 129 -124 q 136 0 136 -51 q 103 39 103 0 l 103 119 q 115 154 104 144 q 149 164 126 164 l 183 164 z "},"…":{"ha":1174,"x_min":90,"x_max":1075,"o":"m 601 164 q 636 154 626 164 q 646 119 646 144 l 646 44 q 636 10 646 19 q 601 0 626 0 l 563 0 q 528 10 539 0 q 518 44 518 19 l 518 119 q 528 154 518 144 q 563 164 539 164 l 601 164 m 1031 164 q 1065 154 1056 164 q 1075 119 1075 144 l 1075 44 q 1065 10 1075 19 q 1031 0 1056 0 l 992 0 q 958 10 968 0 q 947 44 947 19 l 947 119 q 958 154 947 144 q 992 164 968 164 l 1031 164 m 174 164 q 208 154 199 164 q 218 119 218 144 l 218 44 q 208 10 218 19 q 174 0 199 0 l 135 0 q 101 10 111 0 q 90 44 90 19 l 90 119 q 101 154 90 144 q 135 164 111 164 l 174 164 z "},"¡":{"ha":356,"x_min":119,"x_max":238,"o":"m 225 392 l 238 144 l 238 -272 l 119 -272 l 119 144 l 131 392 l 225 392 m 194 685 q 228 675 218 685 q 238 640 238 665 l 238 564 q 228 531 238 540 q 194 521 218 521 l 164 521 q 130 531 140 521 q 119 564 119 540 l 119 640 q 130 675 119 665 q 164 685 140 685 l 194 685 z "},"!":{"ha":379,"x_min":131,"x_max":250,"o":"m 249 965 l 249 540 l 238 293 l 143 293 l 131 540 l 131 965 l 249 965 m 206 164 q 240 154 229 164 q 250 119 250 144 l 250 44 q 240 10 250 19 q 206 0 229 0 l 175 0 q 142 10 151 0 q 132 44 132 19 l 132 119 q 142 154 132 144 q 175 164 151 164 l 206 164 z "},"¿":{"ha":694,"x_min":57,"x_max":643,"o":"m 411 400 q 390 268 413 324 q 334 172 368 213 q 265 95 300 131 q 207 23 231 60 q 182 -61 183 -14 q 223 -162 179 -129 q 363 -194 267 -194 q 475 -193 432 -194 q 554 -189 518 -192 q 636 -182 590 -186 l 643 -267 q 578 -278 607 -272 q 517 -287 549 -283 q 442 -294 485 -292 q 338 -296 400 -296 q 128 -243 199 -296 q 57 -81 57 -190 q 82 27 57 -18 q 144 110 107 72 q 217 188 181 149 q 281 278 254 228 q 310 400 307 328 l 411 400 m 376 693 q 411 683 401 693 q 421 650 421 674 l 421 572 q 411 539 421 549 q 376 529 401 529 l 347 529 q 313 539 322 529 q 303 572 303 549 l 303 650 q 313 683 303 674 q 347 693 322 693 l 376 693 z "},"?":{"ha":701,"x_min":56,"x_max":642,"o":"m 361 989 q 572 937 501 989 q 642 774 642 885 q 617 666 642 711 q 555 583 592 621 q 481 506 518 546 q 418 416 444 467 q 389 293 392 365 l 288 293 q 308 425 286 369 q 365 522 331 481 q 433 599 399 564 q 492 671 468 635 q 517 753 515 707 q 476 856 519 822 q 336 889 432 889 q 224 888 268 889 q 145 883 181 886 q 63 875 110 879 l 56 960 q 121 972 92 967 q 182 981 150 976 q 256 987 214 985 q 361 989 299 989 m 354 164 q 388 154 378 164 q 397 119 397 144 l 397 44 q 388 10 397 19 q 354 0 378 0 l 322 0 q 289 10 299 0 q 279 44 279 19 l 279 119 q 289 154 279 144 q 322 164 299 164 l 354 164 z "},"(":{"ha":499,"x_min":75,"x_max":456,"o":"m 440 1097 l 456 1040 q 253 822 317 972 q 190 435 190 671 q 218 161 190 281 q 304 -41 246 42 q 456 -172 363 -124 l 440 -229 q 163 5 251 -156 q 75 433 75 165 q 163 864 75 703 q 440 1097 251 1025 z "},")":{"ha":499,"x_min":44,"x_max":425,"o":"m 58 1097 q 337 864 249 1025 q 425 433 425 703 q 337 5 425 165 q 58 -229 249 -156 l 44 -172 q 195 -41 138 -124 q 281 161 253 42 q 308 435 308 281 q 246 822 308 671 q 44 1040 183 972 l 58 1097 z "},"[":{"ha":457,"x_min":126,"x_max":400,"o":"m 400 1067 l 400 989 l 258 989 q 239 967 239 989 l 239 -129 q 258 -151 239 -151 l 400 -151 l 400 -229 l 201 -229 q 148 -211 169 -229 q 126 -154 126 -193 l 126 992 q 148 1046 126 1025 q 201 1067 169 1067 l 400 1067 z "},"]":{"ha":457,"x_min":57,"x_max":329,"o":"m 254 1067 q 308 1046 288 1067 q 329 992 329 1025 l 329 -154 q 308 -208 329 -187 q 254 -229 288 -229 l 57 -229 l 57 -151 l 197 -151 q 218 -129 218 -151 l 218 967 q 197 989 218 989 l 57 989 l 57 1067 l 254 1067 z "},"{":{"ha":443,"x_min":64,"x_max":389,"o":"m 383 1067 l 383 992 q 285 965 311 992 q 258 874 258 938 l 258 625 q 249 535 260 568 q 212 483 239 501 q 135 456 185 465 q 214 421 186 440 q 253 371 242 401 q 264 292 264 340 l 264 -37 q 290 -127 264 -100 q 389 -154 317 -154 l 389 -229 q 251 -215 304 -235 q 174 -153 199 -196 q 150 -44 150 -110 l 150 311 q 141 365 150 347 q 113 392 132 382 q 64 413 94 401 l 64 499 q 115 517 97 510 q 138 544 132 525 q 144 606 144 563 l 144 882 q 169 990 144 947 q 246 1053 193 1033 q 383 1067 299 1074 z "},"}":{"ha":444,"x_min":56,"x_max":381,"o":"m 61 1067 q 199 1053 147 1074 q 276 990 251 1033 q 300 882 300 947 l 300 606 q 306 544 300 563 q 330 517 313 525 q 381 499 347 510 l 381 413 q 331 392 350 401 q 303 365 311 382 q 294 311 294 347 l 294 -44 q 270 -153 294 -110 q 194 -215 246 -196 q 56 -229 142 -235 l 56 -154 q 155 -127 129 -154 q 181 -37 181 -100 l 181 292 q 193 371 182 340 q 232 421 204 401 q 310 456 260 440 q 234 483 261 465 q 197 535 207 501 q 186 625 186 568 l 186 874 q 160 965 186 938 q 61 992 135 992 l 61 1067 z "},"-":{"ha":624,"x_min":100,"x_max":524,"o":"m 524 396 l 524 306 l 100 306 l 100 396 l 524 396 z "},"_":{"ha":608,"x_min":0,"x_max":608,"o":"m 608 0 l 608 -90 l 0 -90 l 0 0 l 608 0 z "},"–":{"ha":822,"x_min":100,"x_max":722,"o":"m 722 396 l 722 306 l 100 306 l 100 396 l 722 396 z "},"—":{"ha":1244,"x_min":100,"x_max":1144,"o":"m 1144 396 l 1144 306 l 100 306 l 100 396 l 1144 396 z "},"‘":{"ha":301,"x_min":90,"x_max":214,"o":"m 133 690 q 99 699 108 690 q 90 732 90 708 l 90 814 q 97 886 92 851 q 113 953 103 921 q 139 1014 124 985 l 194 999 q 184 924 188 958 q 181 843 181 890 q 214 807 214 843 l 214 732 q 201 699 213 708 q 168 690 190 690 l 133 690 z "},"’":{"ha":297,"x_min":86,"x_max":210,"o":"m 167 1003 q 201 994 192 1003 q 210 961 210 985 l 210 879 q 203 807 208 842 q 187 740 197 772 q 161 679 176 708 l 106 694 q 116 769 113 735 q 119 850 119 803 q 86 886 86 850 l 86 961 q 99 994 88 985 q 132 1003 110 1003 l 167 1003 z "},"“":{"ha":513,"x_min":90,"x_max":426,"o":"m 133 690 q 99 699 108 690 q 90 732 90 708 l 90 814 q 97 886 92 851 q 113 953 103 921 q 139 1014 124 985 l 194 999 q 184 924 188 958 q 181 843 181 890 q 214 807 214 843 l 214 732 q 201 699 213 708 q 168 690 190 690 l 133 690 m 346 690 q 312 699 321 690 q 303 732 303 708 l 303 814 q 310 886 304 851 q 326 953 315 921 q 351 1014 336 985 l 407 999 q 397 924 400 958 q 393 843 393 890 q 426 807 426 843 l 426 732 q 414 699 425 708 q 381 690 403 690 l 346 690 z "},"”":{"ha":510,"x_min":86,"x_max":422,"o":"m 379 1003 q 413 994 404 1003 q 422 961 422 985 l 422 879 q 415 807 421 842 q 399 740 410 772 q 374 679 389 708 l 318 694 q 328 769 325 735 q 332 850 332 803 q 299 886 299 850 l 299 961 q 311 994 300 985 q 344 1003 322 1003 l 379 1003 m 167 1003 q 201 994 192 1003 q 210 961 210 985 l 210 879 q 203 807 208 842 q 187 740 197 772 q 161 679 176 708 l 106 694 q 116 769 113 735 q 119 850 119 803 q 86 886 86 850 l 86 961 q 99 994 88 985 q 132 1003 110 1003 l 167 1003 z "},"‚":{"ha":317,"x_min":96,"x_max":221,"o":"m 176 154 q 212 145 203 154 q 221 113 221 136 l 221 31 q 215 -42 221 -7 q 198 -108 208 -76 q 171 -169 188 -140 l 115 -154 q 126 -80 122 -114 q 129 1 129 -46 q 96 38 96 1 l 96 113 q 108 145 97 136 q 142 154 119 154 l 176 154 z "},"„":{"ha":529,"x_min":96,"x_max":432,"o":"m 389 154 q 423 145 414 154 q 432 113 432 136 l 432 31 q 425 -42 431 -7 q 409 -108 419 -76 q 383 -169 399 -140 l 328 -154 q 338 -80 335 -114 q 342 1 342 -46 q 308 38 308 1 l 308 113 q 321 145 310 136 q 354 154 332 154 l 389 154 m 176 154 q 210 145 201 154 q 219 113 219 136 l 219 31 q 213 -42 218 -7 q 197 -108 207 -76 q 171 -169 186 -140 l 115 -154 q 126 -80 122 -114 q 129 1 129 -46 q 96 38 96 1 l 96 113 q 108 145 97 136 q 142 154 119 154 l 176 154 z "},"‹":{"ha":396,"x_min":50,"x_max":336,"o":"m 272 638 l 335 596 l 160 349 l 336 96 l 274 54 l 50 335 l 50 363 l 272 638 z "},"›":{"ha":399,"x_min":60,"x_max":346,"o":"m 122 638 l 346 363 l 346 335 l 121 54 l 60 96 l 236 349 l 61 596 l 122 638 z "},"¦":{"ha":344,"x_min":129,"x_max":215,"o":"m 215 1085 l 215 529 l 129 529 l 129 1085 l 215 1085 m 215 321 l 215 -235 l 129 -235 l 129 321 l 215 321 z "},"/":{"ha":718,"x_min":38,"x_max":681,"o":"m 681 958 l 135 -92 l 38 -92 l 583 958 l 681 958 z "},"\\":{"ha":719,"x_min":38,"x_max":682,"o":"m 136 958 l 682 -92 l 583 -92 l 38 958 l 136 958 z "},"|":{"ha":342,"x_min":128,"x_max":214,"o":"m 214 1085 l 214 -235 l 128 -235 l 128 1085 l 214 1085 z "},"*":{"ha":625,"x_min":75,"x_max":551,"o":"m 349 960 l 338 736 l 476 557 l 419 515 l 313 686 l 206 517 l 147 558 l 286 736 l 276 960 l 349 960 m 99 835 l 264 771 l 263 740 l 247 721 l 75 767 l 99 835 m 528 835 l 551 765 l 378 721 l 361 740 l 361 771 l 528 835 z "},"†":{"ha":696,"x_min":63,"x_max":633,"o":"m 382 958 q 396 944 396 958 l 396 849 q 393 768 396 807 q 383 692 390 729 l 313 692 q 303 768 307 729 q 299 849 299 807 l 299 944 q 313 958 299 958 l 382 958 m 63 665 q 76 679 63 679 l 140 679 q 210 676 178 679 q 278 665 243 672 l 278 596 q 210 585 243 589 q 140 582 178 582 l 76 582 q 63 596 63 582 l 63 665 m 418 665 q 485 676 453 672 q 554 679 518 679 l 619 679 q 633 665 633 679 l 633 596 q 619 582 633 582 l 554 582 q 485 585 518 582 q 418 596 453 589 l 418 665 m 300 413 q 303 494 300 457 q 313 568 307 532 l 383 568 q 392 494 390 532 q 394 413 394 457 l 394 100 l 385 -174 l 311 -174 l 300 100 l 300 413 z "},"‡":{"ha":696,"x_min":63,"x_max":633,"o":"m 382 958 q 396 944 396 958 l 396 849 q 393 768 396 807 q 383 692 390 729 l 313 692 q 303 768 307 729 q 299 849 299 807 l 299 944 q 313 958 299 958 l 382 958 m 63 665 q 76 679 63 679 l 140 679 q 210 676 178 679 q 278 665 243 672 l 278 596 q 210 585 243 589 q 140 582 178 582 l 76 582 q 63 596 63 582 l 63 665 m 418 665 q 485 676 453 672 q 554 679 518 679 l 619 679 q 633 665 633 679 l 633 596 q 619 582 633 582 l 554 582 q 485 585 518 582 q 418 596 453 589 l 418 665 m 313 -174 q 299 -160 299 -174 l 299 -62 q 303 17 299 -21 q 313 93 307 56 l 383 93 q 393 17 390 56 q 396 -62 396 -21 l 396 -160 q 382 -174 396 -174 l 313 -174 m 633 121 q 619 107 633 107 l 554 107 q 485 110 518 107 q 418 119 453 114 l 418 190 q 485 200 453 197 q 554 203 518 203 l 619 203 q 633 189 633 203 l 633 121 m 76 203 l 140 203 q 210 200 178 203 q 278 190 243 197 l 278 119 q 210 110 243 114 q 140 107 178 107 l 76 107 q 63 121 63 107 l 63 189 q 76 203 63 203 m 313 568 l 383 568 q 391 506 389 533 q 394 442 393 479 l 394 344 q 391 279 393 308 q 383 218 389 250 l 313 218 q 304 279 307 250 q 300 344 301 308 l 300 442 q 304 507 301 481 q 313 568 307 533 z "},"·":{"ha":328,"x_min":100,"x_max":228,"o":"m 183 440 q 218 431 208 440 q 228 396 228 421 l 228 321 q 218 286 228 296 q 183 276 208 276 l 144 276 q 110 286 121 276 q 100 321 100 296 l 100 396 q 110 431 100 421 q 144 440 121 440 l 183 440 z "},"•":{"ha":504,"x_min":126,"x_max":378,"o":"m 263 497 q 353 472 328 497 q 378 382 378 447 l 378 365 q 353 272 378 297 q 263 246 328 246 l 246 246 q 152 272 178 246 q 126 365 126 297 l 126 382 q 152 472 126 447 q 246 497 178 497 l 263 497 z "},"'":{"ha":290,"x_min":97,"x_max":194,"o":"m 194 958 l 186 660 l 104 660 l 97 958 l 194 958 z "},"\"":{"ha":490,"x_min":97,"x_max":393,"o":"m 393 958 l 386 660 l 306 660 l 297 958 l 393 958 m 194 958 l 186 660 l 104 660 l 97 958 l 194 958 z "},"À":{"ha":864,"x_min":14,"x_max":850,"o":"m 496 958 q 525 949 513 958 q 542 925 538 940 l 850 0 l 724 0 l 475 786 q 463 826 469 806 q 451 864 457 846 l 413 864 q 401 826 407 846 q 389 786 396 806 l 140 0 l 14 0 l 322 925 q 339 949 326 940 q 368 958 351 958 l 496 958 m 674 406 l 674 300 l 188 300 l 188 406 l 674 406 m 274 1258 l 513 1056 l 472 1001 l 206 1168 l 274 1258 z "},"Á":{"ha":864,"x_min":14,"x_max":850,"o":"m 496 958 q 525 949 513 958 q 542 925 538 940 l 850 0 l 724 0 l 475 786 q 463 826 469 806 q 451 864 457 846 l 413 864 q 401 826 407 846 q 389 786 396 806 l 140 0 l 14 0 l 322 925 q 339 949 326 940 q 368 958 351 958 l 496 958 m 674 406 l 674 300 l 188 300 l 188 406 l 674 406 m 572 1269 l 640 1178 l 374 1011 l 333 1065 l 572 1269 z "},"Â":{"ha":864,"x_min":14,"x_max":850,"o":"m 496 958 q 525 949 513 958 q 542 925 538 940 l 850 0 l 724 0 l 475 786 q 463 826 469 806 q 451 864 457 846 l 413 864 q 401 826 407 846 q 389 786 396 806 l 140 0 l 14 0 l 322 925 q 339 949 326 940 q 368 958 351 958 l 496 958 m 674 406 l 674 300 l 188 300 l 188 406 l 674 406 m 475 1235 l 660 1058 l 618 1007 l 439 1142 l 428 1142 l 247 1007 l 207 1058 l 390 1235 l 475 1235 z "},"Ã":{"ha":864,"x_min":14,"x_max":850,"o":"m 496 958 q 525 949 513 958 q 542 925 538 940 l 850 0 l 724 0 l 475 786 q 463 826 469 806 q 451 864 457 846 l 413 864 q 401 826 407 846 q 389 786 396 806 l 140 0 l 14 0 l 322 925 q 339 949 326 940 q 368 958 351 958 l 496 958 m 674 406 l 674 300 l 188 300 l 188 406 l 674 406 m 321 1211 q 378 1198 353 1208 q 427 1174 404 1188 q 474 1150 450 1161 q 528 1135 499 1139 q 582 1147 568 1129 q 596 1204 596 1165 l 651 1204 q 628 1085 660 1126 q 543 1049 597 1044 q 462 1071 496 1053 q 398 1107 428 1089 q 333 1128 368 1125 q 281 1113 294 1132 q 268 1053 268 1094 l 213 1053 q 220 1144 207 1108 q 260 1197 233 1181 q 321 1211 288 1214 z "},"Ä":{"ha":864,"x_min":14,"x_max":850,"o":"m 496 958 q 525 949 513 958 q 542 925 538 940 l 850 0 l 724 0 l 475 786 q 463 826 469 806 q 451 864 457 846 l 413 864 q 401 826 407 846 q 389 786 396 806 l 140 0 l 14 0 l 322 925 q 339 949 326 940 q 368 958 351 958 l 496 958 m 674 406 l 674 300 l 188 300 l 188 406 l 674 406 m 575 1199 q 608 1165 608 1199 l 608 1089 q 575 1056 608 1056 l 536 1056 q 503 1089 503 1056 l 503 1165 q 536 1199 503 1199 l 575 1199 m 329 1199 q 361 1165 361 1199 l 361 1089 q 329 1056 361 1056 l 289 1056 q 257 1089 257 1056 l 257 1165 q 289 1199 257 1199 l 329 1199 z "},"Å":{"ha":864,"x_min":14,"x_max":850,"o":"m 496 958 q 525 949 513 958 q 542 925 538 940 l 850 0 l 724 0 l 475 786 q 463 826 469 806 q 451 864 457 846 l 413 864 q 401 826 407 846 q 389 786 396 806 l 140 0 l 14 0 l 322 925 q 339 949 326 940 q 368 958 351 958 l 496 958 m 674 406 l 674 300 l 188 300 l 188 406 l 674 406 m 432 1283 q 506 1264 472 1283 q 560 1212 540 1244 q 581 1138 581 1179 q 560 1064 581 1097 q 507 1011 540 1031 q 432 992 474 992 q 358 1011 392 992 q 303 1063 324 1031 q 283 1138 283 1096 q 303 1212 283 1179 q 358 1264 324 1244 q 432 1283 392 1283 m 432 1222 q 374 1199 397 1222 q 350 1138 350 1176 q 374 1076 350 1099 q 432 1053 397 1053 q 492 1076 468 1053 q 515 1138 515 1099 q 492 1199 515 1176 q 432 1222 468 1222 z "},"Ā":{"ha":864,"x_min":14,"x_max":850,"o":"m 496 958 q 525 949 513 958 q 542 925 538 940 l 850 0 l 724 0 l 475 786 q 463 826 469 806 q 451 864 457 846 l 413 864 q 401 826 407 846 q 389 786 396 806 l 140 0 l 14 0 l 322 925 q 339 949 326 940 q 368 958 351 958 l 496 958 m 674 406 l 674 300 l 188 300 l 188 406 l 674 406 m 625 1169 l 625 1082 l 239 1082 l 239 1169 l 625 1169 z "},"Ă":{"ha":864,"x_min":14,"x_max":850,"o":"m 496 958 q 525 949 513 958 q 542 925 538 940 l 850 0 l 724 0 l 475 786 q 463 826 469 806 q 451 864 457 846 l 413 864 q 401 826 407 846 q 389 786 396 806 l 140 0 l 14 0 l 322 925 q 339 949 326 940 q 368 958 351 958 l 496 958 m 674 406 l 674 300 l 188 300 l 188 406 l 674 406 m 579 1217 l 640 1208 q 619 1113 644 1154 q 547 1049 594 1072 q 432 1025 500 1025 q 317 1049 365 1025 q 245 1113 269 1072 q 224 1208 221 1154 l 285 1217 q 322 1140 283 1168 q 433 1113 361 1113 q 541 1140 503 1113 q 579 1217 579 1168 z "},"Ą":{"ha":864,"x_min":14,"x_max":868,"o":"m 496 958 q 525 949 513 958 q 542 925 538 940 l 850 0 l 724 0 l 475 786 q 463 826 469 806 q 451 864 457 846 l 413 864 q 401 826 407 846 q 389 786 396 806 l 140 0 l 14 0 l 322 925 q 339 949 326 940 q 368 958 351 958 l 496 958 m 674 406 l 674 300 l 188 300 l 188 406 l 674 406 m 796 3 l 849 0 q 791 -73 818 -35 q 746 -158 764 -111 q 757 -225 725 -210 q 854 -219 789 -240 l 868 -268 q 758 -297 803 -296 q 687 -279 713 -297 q 656 -230 661 -261 q 663 -162 650 -199 q 705 -86 674 -128 q 796 3 736 -44 z "},"Æ":{"ha":1268,"x_min":-1,"x_max":1197,"o":"m 788 960 q 1011 958 917 960 q 1197 951 1106 957 l 1193 854 l 839 854 q 770 828 796 854 q 744 758 744 803 l 744 196 q 767 126 744 149 q 839 103 790 103 l 1193 103 l 1197 7 q 996 0 1099 1 q 790 -1 893 -1 q 674 46 718 -1 q 629 165 629 93 l 629 775 q 642 833 629 804 q 674 875 656 863 l 663 875 q 623 842 644 865 q 582 788 601 819 l 126 0 l -1 0 l 475 808 q 528 883 500 853 q 593 929 557 913 q 677 953 629 946 q 788 960 725 960 m 663 414 l 663 313 l 246 313 l 257 414 l 663 414 m 649 557 l 1138 556 l 1138 457 l 649 456 l 649 557 z "},"Ç":{"ha":792,"x_min":85,"x_max":742,"o":"m 461 975 q 566 972 522 975 q 647 963 610 969 q 722 947 683 957 l 710 854 q 633 861 668 858 q 557 865 597 864 q 461 867 517 867 q 314 831 368 867 q 237 710 260 794 q 214 479 214 625 q 237 249 214 333 q 314 128 260 164 q 461 92 368 92 q 610 95 550 92 q 729 107 671 99 l 742 15 q 619 -9 682 -1 q 461 -17 556 -17 q 241 31 324 -17 q 122 188 158 79 q 85 479 85 296 q 122 771 85 663 q 241 927 158 879 q 461 975 324 975 m 392 -76 q 480 -77 446 -71 q 531 -104 514 -83 q 546 -167 547 -125 q 514 -266 544 -225 q 432 -325 483 -307 q 314 -335 381 -343 l 332 -272 q 424 -247 389 -274 q 461 -176 460 -219 q 446 -142 463 -151 q 379 -132 429 -133 l 392 -76 z "},"Ć":{"ha":792,"x_min":85,"x_max":742,"o":"m 461 975 q 566 972 522 975 q 647 963 610 969 q 722 947 683 957 l 710 854 q 633 861 668 858 q 557 865 597 864 q 461 867 517 867 q 314 831 368 867 q 237 710 260 794 q 214 479 214 625 q 237 249 214 333 q 314 128 260 164 q 461 92 368 92 q 610 95 550 92 q 729 107 671 99 l 742 15 q 619 -9 682 -1 q 461 -17 556 -17 q 241 31 324 -17 q 122 188 158 79 q 85 479 85 296 q 122 771 85 663 q 241 927 158 879 q 461 975 324 975 m 585 1279 l 653 1188 l 386 1021 l 346 1075 l 585 1279 z "},"Ĉ":{"ha":792,"x_min":85,"x_max":742,"o":"m 461 975 q 566 972 522 975 q 647 963 610 969 q 722 947 683 957 l 710 854 q 633 861 668 858 q 557 865 597 864 q 461 867 517 867 q 314 831 368 867 q 237 710 260 794 q 214 479 214 625 q 237 249 214 333 q 314 128 260 164 q 461 92 368 92 q 610 95 550 92 q 729 107 671 99 l 742 15 q 619 -9 682 -1 q 461 -17 556 -17 q 241 31 324 -17 q 122 188 158 79 q 85 479 85 296 q 122 771 85 663 q 241 927 158 879 q 461 975 324 975 m 488 1244 l 672 1068 l 631 1017 l 451 1151 l 440 1151 l 260 1017 l 219 1068 l 403 1244 l 488 1244 z "},"Ċ":{"ha":792,"x_min":85,"x_max":742,"o":"m 461 975 q 566 972 522 975 q 647 963 610 969 q 722 947 683 957 l 710 854 q 633 861 668 858 q 557 865 597 864 q 461 867 517 867 q 314 831 368 867 q 237 710 260 794 q 214 479 214 625 q 237 249 214 333 q 314 128 260 164 q 461 92 368 92 q 610 95 550 92 q 729 107 671 99 l 742 15 q 619 -9 682 -1 q 461 -17 556 -17 q 241 31 324 -17 q 122 188 158 79 q 85 479 85 296 q 122 771 85 663 q 241 927 158 879 q 461 975 324 975 m 464 1204 q 500 1169 500 1204 l 500 1090 q 464 1054 500 1054 l 426 1054 q 390 1090 390 1054 l 390 1169 q 426 1204 390 1204 l 464 1204 z "},"Č":{"ha":792,"x_min":85,"x_max":742,"o":"m 461 975 q 566 972 522 975 q 647 963 610 969 q 722 947 683 957 l 710 854 q 633 861 668 858 q 557 865 597 864 q 461 867 517 867 q 314 831 368 867 q 237 710 260 794 q 214 479 214 625 q 237 249 214 333 q 314 128 260 164 q 461 92 368 92 q 610 95 550 92 q 729 107 671 99 l 742 15 q 619 -9 682 -1 q 461 -17 556 -17 q 241 31 324 -17 q 122 188 158 79 q 85 479 85 296 q 122 771 85 663 q 241 927 158 879 q 461 975 324 975 m 632 1265 l 674 1215 l 475 1038 l 419 1038 l 221 1215 l 261 1265 l 442 1144 l 453 1144 l 632 1265 z "},"Ð":{"ha":929,"x_min":31,"x_max":842,"o":"m 460 543 l 460 475 l 31 475 l 31 543 l 460 543 m 468 971 q 642 946 571 971 q 758 864 714 921 q 822 713 801 807 q 842 479 842 618 q 822 246 842 340 q 758 94 801 151 q 642 13 714 38 q 468 -12 571 -12 q 285 -9 369 -12 q 126 0 201 -6 l 179 100 q 309 97 238 99 q 468 94 381 94 q 614 130 560 94 q 691 249 668 165 q 714 479 714 333 q 691 709 714 625 q 614 829 668 793 q 468 865 560 865 q 313 864 382 865 q 179 861 244 863 l 126 958 q 285 967 201 964 q 468 971 369 971 m 249 958 l 249 0 l 126 0 l 126 958 l 249 958 z "},"Ď":{"ha":922,"x_min":121,"x_max":836,"o":"m 463 971 q 637 946 565 971 q 752 864 708 921 q 816 713 796 807 q 836 479 836 618 q 816 246 836 340 q 752 94 796 151 q 637 13 708 38 q 463 -12 565 -12 q 280 -9 364 -12 q 121 0 196 -6 l 174 100 q 303 97 232 99 q 463 94 375 94 q 608 130 554 94 q 685 249 663 165 q 708 479 708 333 q 685 709 708 625 q 608 829 663 793 q 463 865 554 865 q 308 864 376 865 q 174 861 239 863 l 121 958 q 280 967 196 964 q 463 971 364 971 m 243 958 l 243 0 l 121 0 l 121 958 l 243 958 m 629 1265 l 671 1215 l 472 1038 l 417 1038 l 218 1215 l 258 1265 l 439 1144 l 450 1144 l 629 1265 z "},"Đ":{"ha":929,"x_min":31,"x_max":842,"o":"m 460 543 l 460 475 l 31 475 l 31 543 l 460 543 m 468 971 q 642 946 571 971 q 758 864 714 921 q 822 713 801 807 q 842 479 842 618 q 822 246 842 340 q 758 94 801 151 q 642 13 714 38 q 468 -12 571 -12 q 285 -9 369 -12 q 126 0 201 -6 l 179 100 q 309 97 238 99 q 468 94 381 94 q 614 130 560 94 q 691 249 668 165 q 714 479 714 333 q 691 709 714 625 q 614 829 668 793 q 468 865 560 865 q 313 864 382 865 q 179 861 244 863 l 126 958 q 285 967 201 964 q 468 971 369 971 m 249 958 l 249 0 l 126 0 l 126 958 l 249 958 z "},"È":{"ha":778,"x_min":113,"x_max":708,"o":"m 297 960 q 437 960 367 960 q 576 958 507 960 q 708 951 644 956 l 703 856 l 318 856 q 255 834 275 856 q 235 764 235 813 l 235 194 q 255 124 235 146 q 318 101 275 101 l 703 101 l 708 7 q 576 1 644 3 q 437 -1 507 0 q 297 -1 367 -1 q 163 44 213 -1 q 113 165 114 89 l 113 793 q 163 915 114 871 q 297 960 213 960 m 138 556 l 649 556 l 649 457 l 138 457 l 138 556 m 271 1288 l 510 1085 l 469 1031 l 203 1197 l 271 1288 z "},"É":{"ha":778,"x_min":113,"x_max":708,"o":"m 297 960 q 437 960 367 960 q 576 958 507 960 q 708 951 644 956 l 703 856 l 318 856 q 255 834 275 856 q 235 764 235 813 l 235 194 q 255 124 235 146 q 318 101 275 101 l 703 101 l 708 7 q 576 1 644 3 q 437 -1 507 0 q 297 -1 367 -1 q 163 44 213 -1 q 113 165 114 89 l 113 793 q 163 915 114 871 q 297 960 213 960 m 138 556 l 649 556 l 649 457 l 138 457 l 138 556 m 571 1299 l 639 1207 l 372 1040 l 332 1094 l 571 1299 z "},"Ê":{"ha":778,"x_min":113,"x_max":708,"o":"m 297 960 q 437 960 367 960 q 576 958 507 960 q 708 951 644 956 l 703 856 l 318 856 q 255 834 275 856 q 235 764 235 813 l 235 194 q 255 124 235 146 q 318 101 275 101 l 703 101 l 708 7 q 576 1 644 3 q 437 -1 507 0 q 297 -1 367 -1 q 163 44 213 -1 q 113 165 114 89 l 113 793 q 163 915 114 871 q 297 960 213 960 m 138 556 l 649 556 l 649 457 l 138 457 l 138 556 m 472 1264 l 657 1088 l 615 1036 l 436 1171 l 425 1171 l 244 1036 l 204 1088 l 388 1264 l 472 1264 z "},"Ë":{"ha":778,"x_min":113,"x_max":708,"o":"m 297 960 q 437 960 367 960 q 576 958 507 960 q 708 951 644 956 l 703 856 l 318 856 q 255 834 275 856 q 235 764 235 813 l 235 194 q 255 124 235 146 q 318 101 275 101 l 703 101 l 708 7 q 576 1 644 3 q 437 -1 507 0 q 297 -1 367 -1 q 163 44 213 -1 q 113 165 114 89 l 113 793 q 163 915 114 871 q 297 960 213 960 m 138 556 l 649 556 l 649 457 l 138 457 l 138 556 m 572 1226 q 606 1193 606 1226 l 606 1117 q 572 1083 606 1083 l 533 1083 q 500 1117 500 1083 l 500 1193 q 533 1226 500 1226 l 572 1226 m 326 1226 q 358 1193 358 1226 l 358 1117 q 326 1083 358 1083 l 286 1083 q 254 1117 254 1083 l 254 1193 q 286 1226 254 1226 l 326 1226 z "},"Ē":{"ha":778,"x_min":113,"x_max":708,"o":"m 297 960 q 437 960 367 960 q 576 958 507 960 q 708 951 644 956 l 703 856 l 318 856 q 255 834 275 856 q 235 764 235 813 l 235 194 q 255 124 235 146 q 318 101 275 101 l 703 101 l 708 7 q 576 1 644 3 q 437 -1 507 0 q 297 -1 367 -1 q 163 44 213 -1 q 113 165 114 89 l 113 793 q 163 915 114 871 q 297 960 213 960 m 138 556 l 649 556 l 649 457 l 138 457 l 138 556 m 624 1197 l 624 1110 l 238 1110 l 238 1197 l 624 1197 z "},"Ĕ":{"ha":778,"x_min":113,"x_max":708,"o":"m 297 960 q 437 960 367 960 q 576 958 507 960 q 708 951 644 956 l 703 856 l 318 856 q 255 834 275 856 q 235 764 235 813 l 235 194 q 255 124 235 146 q 318 101 275 101 l 703 101 l 708 7 q 576 1 644 3 q 437 -1 507 0 q 297 -1 367 -1 q 163 44 213 -1 q 113 165 114 89 l 113 793 q 163 915 114 871 q 297 960 213 960 m 138 556 l 649 556 l 649 457 l 138 457 l 138 556 m 576 1246 l 638 1238 q 617 1142 642 1183 q 544 1078 592 1101 q 429 1054 497 1054 q 315 1078 363 1054 q 242 1142 267 1101 q 221 1238 218 1183 l 282 1246 q 319 1169 281 1197 q 431 1142 358 1142 q 538 1169 500 1142 q 576 1246 576 1197 z "},"Ė":{"ha":778,"x_min":113,"x_max":708,"o":"m 297 960 q 437 960 367 960 q 576 958 507 960 q 708 951 644 956 l 703 856 l 318 856 q 255 834 275 856 q 235 764 235 813 l 235 194 q 255 124 235 146 q 318 101 275 101 l 703 101 l 708 7 q 576 1 644 3 q 437 -1 507 0 q 297 -1 367 -1 q 163 44 213 -1 q 113 165 114 89 l 113 793 q 163 915 114 871 q 297 960 213 960 m 138 556 l 649 556 l 649 457 l 138 457 l 138 556 m 450 1222 q 486 1188 486 1222 l 486 1108 q 450 1072 486 1072 l 413 1072 q 376 1108 376 1072 l 376 1188 q 413 1222 376 1222 l 450 1222 z "},"Ę":{"ha":778,"x_min":113,"x_max":728,"o":"m 297 960 q 437 960 367 960 q 576 958 507 960 q 708 951 644 956 l 703 856 l 318 856 q 255 834 275 856 q 235 764 235 813 l 235 194 q 255 124 235 146 q 318 101 275 101 l 703 101 l 708 7 q 576 1 644 3 q 437 -1 507 0 q 297 -1 367 -1 q 163 44 213 -1 q 113 165 114 89 l 113 793 q 163 915 114 871 q 297 960 213 960 m 138 556 l 649 556 l 649 457 l 138 457 l 138 556 m 656 10 l 708 7 q 651 -66 678 -28 q 606 -151 624 -104 q 617 -218 585 -203 q 714 -212 649 -233 l 728 -261 q 617 -290 663 -289 q 547 -272 572 -290 q 515 -223 521 -254 q 522 -156 510 -192 q 565 -79 533 -121 q 656 10 596 -37 z "},"Ě":{"ha":778,"x_min":113,"x_max":708,"o":"m 297 960 q 437 960 367 960 q 576 958 507 960 q 708 951 644 956 l 703 856 l 318 856 q 255 834 275 856 q 235 764 235 813 l 235 194 q 255 124 235 146 q 318 101 275 101 l 703 101 l 708 7 q 576 1 644 3 q 437 -1 507 0 q 297 -1 367 -1 q 163 44 213 -1 q 113 165 114 89 l 113 793 q 163 915 114 871 q 297 960 213 960 m 138 556 l 649 556 l 649 457 l 138 457 l 138 556 m 617 1283 l 658 1233 l 460 1056 l 404 1056 l 206 1233 l 246 1283 l 426 1163 l 438 1163 l 617 1283 z "},"Ĝ":{"ha":872,"x_min":86,"x_max":778,"o":"m 486 976 q 581 974 535 976 q 669 965 626 971 q 753 947 713 958 l 740 856 q 653 863 697 860 q 569 866 610 865 q 493 867 529 867 q 362 852 415 867 q 276 796 308 838 q 230 676 244 754 q 215 474 215 599 q 235 248 215 332 q 300 126 254 164 q 422 89 346 89 q 519 104 475 89 q 601 144 563 119 q 675 194 639 168 l 692 119 q 623 58 667 90 q 521 4 579 26 q 389 -18 463 -18 q 215 35 282 -18 q 117 199 147 89 q 86 482 86 310 q 124 780 86 672 q 251 932 163 888 q 486 976 339 976 m 778 554 l 778 0 l 689 0 l 669 142 l 658 169 l 658 554 l 778 554 m 497 1256 l 682 1079 l 640 1028 l 461 1163 l 450 1163 l 269 1028 l 229 1079 l 413 1256 l 497 1256 z "},"Ğ":{"ha":872,"x_min":86,"x_max":778,"o":"m 486 976 q 581 974 535 976 q 669 965 626 971 q 753 947 713 958 l 740 856 q 653 863 697 860 q 569 866 610 865 q 493 867 529 867 q 362 852 415 867 q 276 796 308 838 q 230 676 244 754 q 215 474 215 599 q 235 248 215 332 q 300 126 254 164 q 422 89 346 89 q 519 104 475 89 q 601 144 563 119 q 675 194 639 168 l 692 119 q 623 58 667 90 q 521 4 579 26 q 389 -18 463 -18 q 215 35 282 -18 q 117 199 147 89 q 86 482 86 310 q 124 780 86 672 q 251 932 163 888 q 486 976 339 976 m 778 554 l 778 0 l 689 0 l 669 142 l 658 169 l 658 554 l 778 554 m 601 1238 l 663 1229 q 642 1134 667 1175 q 569 1069 617 1093 q 454 1046 522 1046 q 340 1069 388 1046 q 267 1134 292 1093 q 246 1229 243 1175 l 307 1238 q 344 1161 306 1189 q 456 1133 383 1133 q 563 1161 525 1133 q 601 1238 601 1189 z "},"Ġ":{"ha":872,"x_min":86,"x_max":778,"o":"m 486 976 q 581 974 535 976 q 669 965 626 971 q 753 947 713 958 l 740 856 q 653 863 697 860 q 569 866 610 865 q 493 867 529 867 q 362 852 415 867 q 276 796 308 838 q 230 676 244 754 q 215 474 215 599 q 235 248 215 332 q 300 126 254 164 q 422 89 346 89 q 519 104 475 89 q 601 144 563 119 q 675 194 639 168 l 692 119 q 623 58 667 90 q 521 4 579 26 q 389 -18 463 -18 q 215 35 282 -18 q 117 199 147 89 q 86 482 86 310 q 124 780 86 672 q 251 932 163 888 q 486 976 339 976 m 778 554 l 778 0 l 689 0 l 669 142 l 658 169 l 658 554 l 778 554 m 474 1214 q 510 1179 510 1214 l 510 1100 q 474 1064 510 1064 l 436 1064 q 400 1100 400 1064 l 400 1179 q 436 1214 400 1214 l 474 1214 z "},"Ģ":{"ha":872,"x_min":86,"x_max":778,"o":"m 467 -82 q 499 -90 490 -82 q 507 -119 507 -99 l 507 -196 q 501 -262 506 -231 q 486 -323 496 -293 q 463 -379 476 -353 l 411 -365 q 422 -298 418 -329 q 425 -222 425 -267 q 394 -189 394 -222 l 394 -119 q 405 -90 394 -99 q 436 -82 415 -82 l 467 -82 m 486 976 q 581 974 535 976 q 669 965 626 971 q 753 947 713 958 l 740 856 q 653 863 697 860 q 569 866 610 865 q 493 867 529 867 q 362 852 415 867 q 276 796 308 838 q 230 676 244 754 q 215 474 215 599 q 235 248 215 332 q 300 126 254 164 q 422 89 346 89 q 519 104 475 89 q 601 144 563 119 q 675 194 639 168 l 692 119 q 623 58 667 90 q 521 4 579 26 q 389 -18 463 -18 q 215 35 282 -18 q 117 199 147 89 q 86 482 86 310 q 124 780 86 672 q 251 932 163 888 q 486 976 339 976 m 778 554 l 778 0 l 689 0 l 669 142 l 658 169 l 658 554 l 778 554 z "},"Ĥ":{"ha":928,"x_min":121,"x_max":807,"o":"m 243 958 l 243 0 l 121 0 l 121 958 l 243 958 m 700 565 l 700 460 l 232 460 l 232 565 l 700 565 m 807 958 l 807 0 l 685 0 l 685 958 l 807 958 m 507 1256 l 692 1079 l 650 1028 l 471 1163 l 460 1163 l 279 1028 l 239 1079 l 422 1256 l 507 1256 z "},"Ħ":{"ha":939,"x_min":28,"x_max":910,"o":"m 910 786 l 910 721 l 28 721 l 28 786 l 910 786 m 249 958 l 249 0 l 126 0 l 126 958 l 249 958 m 706 565 l 706 460 l 238 460 l 238 565 l 706 565 m 813 958 l 813 0 l 690 0 l 690 958 l 813 958 z "},"Ì":{"ha":364,"x_min":-46,"x_max":261,"o":"m 243 958 l 243 0 l 121 0 l 121 958 l 243 958 m 22 1268 l 261 1065 l 221 1011 l -46 1178 l 22 1268 z "},"Í":{"ha":364,"x_min":83,"x_max":390,"o":"m 243 958 l 243 0 l 121 0 l 121 958 l 243 958 m 322 1279 l 390 1188 l 124 1021 l 83 1075 l 322 1279 z "},"Î":{"ha":364,"x_min":-44,"x_max":408,"o":"m 243 958 l 243 0 l 121 0 l 121 958 l 243 958 m 224 1244 l 408 1068 l 367 1017 l 188 1151 l 176 1151 l -4 1017 l -44 1068 l 139 1244 l 224 1244 z "},"Ĩ":{"ha":364,"x_min":-43,"x_max":410,"o":"m 243 958 l 243 0 l 121 0 l 121 958 l 243 958 m 71 1221 q 128 1208 103 1218 q 177 1184 154 1197 q 224 1160 200 1171 q 278 1144 249 1149 q 332 1157 318 1139 q 346 1214 346 1175 l 401 1214 q 378 1095 410 1136 q 293 1058 347 1054 q 212 1081 246 1063 q 148 1117 178 1099 q 83 1138 118 1135 q 31 1123 44 1142 q 18 1063 18 1104 l -37 1063 q -30 1154 -43 1118 q 10 1207 -17 1190 q 71 1221 38 1224 z "},"Ï":{"ha":364,"x_min":6,"x_max":357,"o":"m 243 958 l 243 0 l 121 0 l 121 958 l 243 958 m 324 1208 q 357 1175 357 1208 l 357 1099 q 324 1065 357 1065 l 285 1065 q 251 1099 251 1065 l 251 1175 q 285 1208 251 1208 l 324 1208 m 78 1208 q 110 1175 110 1208 l 110 1099 q 78 1065 110 1065 l 38 1065 q 6 1099 6 1065 l 6 1175 q 38 1208 6 1208 l 78 1208 z "},"Ī":{"ha":364,"x_min":-11,"x_max":375,"o":"m 243 958 l 243 0 l 121 0 l 121 958 l 243 958 m 375 1179 l 375 1092 l -11 1092 l -11 1179 l 375 1179 z "},"Ĭ":{"ha":364,"x_min":-31,"x_max":393,"o":"m 243 958 l 243 0 l 121 0 l 121 958 l 243 958 m 328 1226 l 389 1218 q 368 1123 393 1164 q 296 1058 343 1082 q 181 1035 249 1035 q 66 1058 114 1035 q -6 1123 18 1082 q -28 1218 -31 1164 l 33 1226 q 71 1150 32 1178 q 182 1122 110 1122 q 290 1150 251 1122 q 328 1226 328 1178 z "},"Į":{"ha":364,"x_min":31,"x_max":249,"o":"m 243 958 l 243 0 l 121 0 l 121 958 l 243 958 m 176 3 l 229 0 q 172 -73 199 -35 q 126 -158 144 -111 q 138 -225 106 -210 q 235 -219 169 -240 l 249 -268 q 138 -297 183 -296 q 67 -279 93 -297 q 36 -230 42 -261 q 43 -162 31 -199 q 85 -86 54 -128 q 176 3 117 -44 z "},"İ":{"ha":364,"x_min":121,"x_max":243,"o":"m 243 958 l 243 0 l 121 0 l 121 958 l 243 958 m 201 1204 q 238 1169 238 1204 l 238 1090 q 201 1054 238 1054 l 164 1054 q 128 1090 128 1054 l 128 1169 q 164 1204 128 1204 l 201 1204 z "},"Ĳ":{"ha":836,"x_min":121,"x_max":719,"o":"m 243 958 l 243 0 l 121 0 l 121 958 l 243 958 m 719 958 l 719 201 q 672 42 719 96 q 533 -12 624 -12 q 491 -10 515 -12 q 444 -4 467 -8 q 406 6 421 0 l 419 92 l 489 92 q 597 197 597 92 l 597 958 l 719 958 z "},"Ĵ":{"ha":472,"x_min":42,"x_max":521,"o":"m 356 958 l 356 201 q 308 42 356 96 q 169 -12 260 -12 q 127 -10 151 -12 q 80 -4 103 -8 q 42 6 57 0 l 56 92 l 125 92 q 233 197 233 92 l 233 958 l 356 958 m 336 1247 l 521 1071 l 479 1019 l 300 1154 l 289 1154 l 108 1019 l 68 1071 l 251 1247 l 336 1247 z "},"Ķ":{"ha":821,"x_min":121,"x_max":794,"o":"m 453 -82 q 485 -90 476 -82 q 493 -119 493 -99 l 493 -196 q 487 -262 492 -231 q 472 -323 482 -293 q 449 -379 463 -353 l 397 -365 q 408 -298 404 -329 q 411 -222 411 -267 q 381 -189 381 -222 l 381 -119 q 391 -90 381 -99 q 422 -82 401 -82 l 453 -82 m 775 958 l 496 561 q 472 530 483 543 q 443 500 460 517 l 443 497 q 476 464 461 481 q 503 431 492 447 l 794 0 l 657 0 l 317 501 l 642 958 l 775 958 m 242 958 l 242 658 q 238 579 242 617 q 225 501 233 542 q 237 424 232 463 q 242 349 242 385 l 242 0 l 121 0 l 121 958 l 242 958 m 383 549 l 383 450 l 199 450 l 199 549 l 383 549 z "},"Ĺ":{"ha":714,"x_min":82,"x_max":683,"o":"m 239 958 l 239 194 q 262 125 239 147 q 332 103 285 103 l 678 103 l 683 8 q 499 0 593 1 q 313 -1 406 -1 q 163 50 207 -1 q 118 179 118 101 l 118 958 l 239 958 m 321 1282 l 389 1190 l 122 1024 l 82 1078 l 321 1282 z "},"Ļ":{"ha":714,"x_min":118,"x_max":683,"o":"m 426 -85 q 458 -93 450 -85 q 467 -122 467 -101 l 467 -199 q 460 -265 465 -233 q 446 -326 456 -296 q 422 -382 436 -356 l 371 -368 q 381 -301 378 -332 q 385 -225 385 -269 q 354 -192 354 -225 l 354 -122 q 365 -93 354 -101 q 396 -85 375 -85 l 426 -85 m 239 958 l 239 194 q 262 125 239 147 q 332 103 285 103 l 678 103 l 683 8 q 499 0 593 1 q 313 -1 406 -1 q 163 50 207 -1 q 118 179 118 101 l 118 958 l 239 958 z "},"Ľ":{"ha":714,"x_min":118,"x_max":683,"o":"m 239 958 l 239 194 q 262 125 239 147 q 332 103 285 103 l 678 103 l 683 8 q 499 0 593 1 q 313 -1 406 -1 q 163 50 207 -1 q 118 179 118 101 l 118 958 l 239 958 m 489 957 q 520 949 513 957 q 528 921 528 940 l 528 846 q 517 753 529 797 q 485 668 504 708 l 433 681 q 443 747 440 717 q 446 821 446 778 q 417 851 417 821 l 417 921 q 426 949 417 940 q 458 957 436 957 l 489 957 z "},"Ŀ":{"ha":714,"x_min":118,"x_max":683,"o":"m 465 489 q 429 524 429 489 l 429 603 q 465 639 429 639 l 503 639 q 539 603 539 639 l 539 524 q 503 489 539 489 l 465 489 m 239 958 l 239 194 q 262 125 239 147 q 332 103 285 103 l 678 103 l 683 8 q 499 0 593 1 q 313 -1 406 -1 q 163 50 207 -1 q 118 179 118 101 l 118 958 l 239 958 z "},"Ł":{"ha":722,"x_min":28,"x_max":692,"o":"m 408 658 l 408 583 l 28 424 l 28 500 l 408 658 m 247 958 l 247 194 q 270 125 247 147 q 340 103 293 103 l 686 103 l 692 8 q 508 0 601 1 q 321 -1 414 -1 q 171 50 215 -1 q 126 179 126 101 l 126 958 l 247 958 z "},"Ñ":{"ha":979,"x_min":121,"x_max":858,"o":"m 858 958 l 858 49 q 811 0 858 0 l 692 0 q 658 10 671 0 q 638 39 646 19 l 314 718 q 285 781 301 746 q 260 844 268 815 l 238 844 q 242 782 240 814 q 243 718 243 750 l 243 0 l 121 0 l 121 910 q 169 958 121 958 l 285 958 q 318 949 306 958 q 339 919 331 939 l 653 257 q 685 191 668 228 q 718 118 703 154 l 742 118 q 739 192 740 156 q 738 264 738 228 l 738 958 l 858 958 m 394 1221 q 452 1208 426 1218 q 501 1184 478 1197 q 548 1160 524 1171 q 601 1144 572 1149 q 656 1157 642 1139 q 669 1214 669 1175 l 725 1214 q 702 1095 733 1136 q 617 1058 671 1054 q 535 1081 569 1063 q 472 1117 501 1099 q 407 1138 442 1135 q 355 1123 368 1142 q 342 1063 342 1104 l 286 1063 q 294 1154 281 1118 q 334 1207 307 1190 q 394 1221 361 1224 z "},"Ń":{"ha":979,"x_min":121,"x_max":858,"o":"m 858 958 l 858 49 q 811 0 858 0 l 692 0 q 658 10 671 0 q 638 39 646 19 l 314 718 q 285 781 301 746 q 260 844 268 815 l 238 844 q 242 782 240 814 q 243 718 243 750 l 243 0 l 121 0 l 121 910 q 169 958 121 958 l 285 958 q 318 949 306 958 q 339 919 331 939 l 653 257 q 685 191 668 228 q 718 118 703 154 l 742 118 q 739 192 740 156 q 738 264 738 228 l 738 958 l 858 958 m 644 1279 l 713 1188 l 446 1021 l 406 1075 l 644 1279 z "},"Ņ":{"ha":979,"x_min":121,"x_max":858,"o":"m 488 -82 q 519 -90 511 -82 q 528 -119 528 -99 l 528 -196 q 522 -262 526 -231 q 507 -323 517 -293 q 483 -379 497 -353 l 432 -365 q 442 -298 439 -329 q 446 -222 446 -267 q 415 -189 415 -222 l 415 -119 q 426 -90 415 -99 q 457 -82 436 -82 l 488 -82 m 858 958 l 858 49 q 811 0 858 0 l 692 0 q 658 10 671 0 q 638 39 646 19 l 314 718 q 285 781 301 746 q 260 844 268 815 l 238 844 q 242 782 240 814 q 243 718 243 750 l 243 0 l 121 0 l 121 910 q 169 958 121 958 l 285 958 q 318 949 306 958 q 339 919 331 939 l 653 257 q 685 191 668 228 q 718 118 703 154 l 742 118 q 739 192 740 156 q 738 264 738 228 l 738 958 l 858 958 z "},"Ň":{"ha":979,"x_min":121,"x_max":858,"o":"m 858 958 l 858 49 q 811 0 858 0 l 692 0 q 658 10 671 0 q 638 39 646 19 l 314 718 q 285 781 301 746 q 260 844 268 815 l 238 844 q 242 782 240 814 q 243 718 243 750 l 243 0 l 121 0 l 121 910 q 169 958 121 958 l 285 958 q 318 949 306 958 q 339 919 331 939 l 653 257 q 685 191 668 228 q 718 118 703 154 l 742 118 q 739 192 740 156 q 738 264 738 228 l 738 958 l 858 958 m 692 1265 l 733 1215 l 535 1038 l 479 1038 l 281 1215 l 321 1265 l 501 1144 l 513 1144 l 692 1265 z "},"Ŋ":{"ha":979,"x_min":121,"x_max":858,"o":"m 858 958 l 858 -110 q 808 -252 858 -203 q 671 -300 757 -301 q 610 -296 646 -300 q 549 -283 574 -292 l 561 -206 l 629 -206 q 743 -100 743 -206 l 743 0 l 694 0 q 674 10 682 0 q 658 35 665 21 l 314 697 q 285 759 300 724 q 257 825 269 794 l 238 825 q 242 760 242 793 q 243 696 243 728 l 243 0 l 121 0 l 121 910 q 169 958 121 958 l 263 958 q 296 949 283 958 q 318 919 308 939 l 653 278 q 685 213 668 250 q 718 139 703 175 l 742 139 q 738 210 740 175 q 736 281 736 246 l 736 958 l 858 958 z "},"Ò":{"ha":928,"x_min":85,"x_max":842,"o":"m 464 976 q 641 951 568 976 q 758 869 714 926 q 822 715 801 811 q 842 479 842 619 q 822 243 842 339 q 758 90 801 147 q 641 7 714 32 q 464 -18 568 -18 q 287 7 360 -18 q 169 90 214 32 q 105 243 125 147 q 85 479 85 339 q 105 715 85 619 q 169 869 125 811 q 287 951 214 926 q 464 976 360 976 m 464 867 q 315 831 369 867 q 237 710 260 794 q 214 479 214 626 q 237 249 214 333 q 315 128 260 164 q 464 92 369 92 q 613 128 558 92 q 691 249 668 164 q 714 479 714 333 q 691 710 714 626 q 613 831 668 794 q 464 867 558 867 m 307 1268 l 546 1065 l 506 1011 l 239 1178 l 307 1268 z "},"Ó":{"ha":928,"x_min":85,"x_max":842,"o":"m 464 976 q 641 951 568 976 q 758 869 714 926 q 822 715 801 811 q 842 479 842 619 q 822 243 842 339 q 758 90 801 147 q 641 7 714 32 q 464 -18 568 -18 q 287 7 360 -18 q 169 90 214 32 q 105 243 125 147 q 85 479 85 339 q 105 715 85 619 q 169 869 125 811 q 287 951 214 926 q 464 976 360 976 m 464 867 q 315 831 369 867 q 237 710 260 794 q 214 479 214 626 q 237 249 214 333 q 315 128 260 164 q 464 92 369 92 q 613 128 558 92 q 691 249 668 164 q 714 479 714 333 q 691 710 714 626 q 613 831 668 794 q 464 867 558 867 m 606 1279 l 674 1188 l 407 1021 l 367 1075 l 606 1279 z "},"Ô":{"ha":928,"x_min":85,"x_max":842,"o":"m 464 976 q 641 951 568 976 q 758 869 714 926 q 822 715 801 811 q 842 479 842 619 q 822 243 842 339 q 758 90 801 147 q 641 7 714 32 q 464 -18 568 -18 q 287 7 360 -18 q 169 90 214 32 q 105 243 125 147 q 85 479 85 339 q 105 715 85 619 q 169 869 125 811 q 287 951 214 926 q 464 976 360 976 m 464 867 q 315 831 369 867 q 237 710 260 794 q 214 479 214 626 q 237 249 214 333 q 315 128 260 164 q 464 92 369 92 q 613 128 558 92 q 691 249 668 164 q 714 479 714 333 q 691 710 714 626 q 613 831 668 794 q 464 867 558 867 m 508 1244 l 693 1068 l 651 1017 l 472 1151 l 461 1151 l 281 1017 l 240 1068 l 424 1244 l 508 1244 z "},"Õ":{"ha":928,"x_min":85,"x_max":842,"o":"m 464 976 q 641 951 568 976 q 758 869 714 926 q 822 715 801 811 q 842 479 842 619 q 822 243 842 339 q 758 90 801 147 q 641 7 714 32 q 464 -18 568 -18 q 287 7 360 -18 q 169 90 214 32 q 105 243 125 147 q 85 479 85 339 q 105 715 85 619 q 169 869 125 811 q 287 951 214 926 q 464 976 360 976 m 464 867 q 315 831 369 867 q 237 710 260 794 q 214 479 214 626 q 237 249 214 333 q 315 128 260 164 q 464 92 369 92 q 613 128 558 92 q 691 249 668 164 q 714 479 714 333 q 691 710 714 626 q 613 831 668 794 q 464 867 558 867 m 354 1221 q 412 1208 386 1218 q 460 1184 438 1197 q 508 1160 483 1171 q 561 1144 532 1149 q 615 1157 601 1139 q 629 1214 629 1175 l 685 1214 q 662 1095 693 1136 q 576 1058 631 1054 q 495 1081 529 1063 q 431 1117 461 1099 q 367 1138 401 1135 q 315 1123 328 1142 q 301 1063 301 1104 l 246 1063 q 253 1154 240 1118 q 294 1207 267 1190 q 354 1221 321 1224 z "},"Ö":{"ha":928,"x_min":85,"x_max":842,"o":"m 464 976 q 641 951 568 976 q 758 869 714 926 q 822 715 801 811 q 842 479 842 619 q 822 243 842 339 q 758 90 801 147 q 641 7 714 32 q 464 -18 568 -18 q 287 7 360 -18 q 169 90 214 32 q 105 243 125 147 q 85 479 85 339 q 105 715 85 619 q 169 869 125 811 q 287 951 214 926 q 464 976 360 976 m 464 867 q 315 831 369 867 q 237 710 260 794 q 214 479 214 626 q 237 249 214 333 q 315 128 260 164 q 464 92 369 92 q 613 128 558 92 q 691 249 668 164 q 714 479 714 333 q 691 710 714 626 q 613 831 668 794 q 464 867 558 867 m 608 1208 q 642 1175 642 1208 l 642 1099 q 608 1065 642 1065 l 569 1065 q 536 1099 536 1065 l 536 1175 q 569 1208 536 1208 l 608 1208 m 363 1208 q 394 1175 394 1208 l 394 1099 q 363 1065 394 1065 l 322 1065 q 290 1099 290 1065 l 290 1175 q 322 1208 290 1208 l 363 1208 z "},"Ō":{"ha":928,"x_min":85,"x_max":842,"o":"m 464 976 q 641 951 568 976 q 758 869 714 926 q 822 715 801 811 q 842 479 842 619 q 822 243 842 339 q 758 90 801 147 q 641 7 714 32 q 464 -18 568 -18 q 287 7 360 -18 q 169 90 214 32 q 105 243 125 147 q 85 479 85 339 q 105 715 85 619 q 169 869 125 811 q 287 951 214 926 q 464 976 360 976 m 464 867 q 315 831 369 867 q 237 710 260 794 q 214 479 214 626 q 237 249 214 333 q 315 128 260 164 q 464 92 369 92 q 613 128 558 92 q 691 249 668 164 q 714 479 714 333 q 691 710 714 626 q 613 831 668 794 q 464 867 558 867 m 660 1179 l 660 1092 l 274 1092 l 274 1179 l 660 1179 z "},"Ŏ":{"ha":928,"x_min":85,"x_max":842,"o":"m 464 976 q 641 951 568 976 q 758 869 714 926 q 822 715 801 811 q 842 479 842 619 q 822 243 842 339 q 758 90 801 147 q 641 7 714 32 q 464 -18 568 -18 q 287 7 360 -18 q 169 90 214 32 q 105 243 125 147 q 85 479 85 339 q 105 715 85 619 q 169 869 125 811 q 287 951 214 926 q 464 976 360 976 m 464 867 q 315 831 369 867 q 237 710 260 794 q 214 479 214 626 q 237 249 214 333 q 315 128 260 164 q 464 92 369 92 q 613 128 558 92 q 691 249 668 164 q 714 479 714 333 q 691 710 714 626 q 613 831 668 794 q 464 867 558 867 m 613 1226 l 674 1218 q 653 1123 678 1164 q 581 1058 628 1082 q 465 1035 533 1035 q 351 1058 399 1035 q 278 1123 303 1082 q 257 1218 254 1164 l 318 1226 q 356 1150 317 1178 q 467 1122 394 1122 q 574 1150 536 1122 q 613 1226 613 1178 z "},"Ő":{"ha":928,"x_min":85,"x_max":842,"o":"m 464 976 q 641 951 568 976 q 758 869 714 926 q 822 715 801 811 q 842 479 842 619 q 822 243 842 339 q 758 90 801 147 q 641 7 714 32 q 464 -18 568 -18 q 287 7 360 -18 q 169 90 214 32 q 105 243 125 147 q 85 479 85 339 q 105 715 85 619 q 169 869 125 811 q 287 951 214 926 q 464 976 360 976 m 464 867 q 315 831 369 867 q 237 710 260 794 q 214 479 214 626 q 237 249 214 333 q 315 128 260 164 q 464 92 369 92 q 613 128 558 92 q 691 249 668 164 q 714 479 714 333 q 691 710 714 626 q 613 831 668 794 q 464 867 558 867 m 426 1293 l 513 1235 l 326 1013 l 274 1051 l 426 1293 m 654 1293 l 740 1235 l 554 1013 l 501 1051 l 654 1293 z "},"Ø":{"ha":928,"x_min":85,"x_max":842,"o":"m 685 1042 l 749 1015 l 235 -81 l 172 -53 l 685 1042 m 464 976 q 641 951 568 976 q 758 869 714 926 q 822 715 801 811 q 842 479 842 619 q 822 243 842 339 q 758 90 801 147 q 641 7 714 32 q 464 -18 568 -18 q 287 7 360 -18 q 169 90 214 32 q 105 243 125 147 q 85 479 85 339 q 105 715 85 619 q 169 869 125 811 q 287 951 214 926 q 464 976 360 976 m 464 867 q 315 831 369 867 q 237 710 260 794 q 214 479 214 626 q 237 249 214 333 q 315 128 260 164 q 464 92 369 92 q 613 128 558 92 q 691 249 668 164 q 714 479 714 333 q 691 710 714 626 q 613 831 668 794 q 464 867 558 867 z "},"Œ":{"ha":1268,"x_min":85,"x_max":1197,"o":"m 464 976 q 555 972 517 976 q 628 956 593 967 q 704 929 664 946 l 660 838 q 601 853 628 847 q 542 863 574 860 q 464 867 510 867 q 315 831 369 867 q 237 712 260 796 q 214 479 214 628 q 237 249 214 333 q 315 128 260 164 q 464 92 369 92 q 544 95 513 92 q 603 106 576 99 q 664 124 631 114 l 707 36 q 631 5 667 17 q 557 -12 596 -7 q 464 -18 518 -18 q 287 7 360 -18 q 169 90 214 32 q 105 243 125 147 q 85 479 85 339 q 105 715 85 619 q 169 869 125 811 q 287 951 214 926 q 464 976 360 976 m 796 960 q 932 960 864 960 q 1067 958 1000 960 q 1197 951 1135 956 l 1193 856 l 836 856 q 766 834 789 856 q 743 764 743 813 l 743 194 q 766 124 743 146 q 836 101 789 101 l 1193 101 l 1197 7 q 1065 1 1133 3 q 926 -1 996 0 q 786 -1 856 -1 q 667 49 714 -1 q 621 179 621 99 l 621 779 q 670 910 621 860 q 796 960 719 960 m 644 557 l 1138 556 l 1138 457 l 644 456 l 644 557 z "},"Ŕ":{"ha":858,"x_min":121,"x_max":796,"o":"m 451 971 q 631 947 563 971 q 730 863 699 922 q 761 694 761 803 q 743 565 761 617 q 687 484 725 513 q 585 447 649 456 l 585 440 q 631 417 608 435 q 674 372 654 400 q 703 303 693 343 l 796 0 l 665 0 l 581 300 q 532 377 563 354 q 453 400 501 400 q 306 401 368 400 q 201 403 243 401 q 135 404 160 404 l 139 506 l 449 506 q 560 522 519 507 q 619 577 601 538 q 638 688 638 617 q 619 797 638 758 q 560 850 601 835 q 449 865 519 865 q 252 864 335 865 q 140 863 169 863 l 121 958 q 219 967 174 964 q 320 970 265 969 q 451 971 375 971 m 242 958 l 242 0 l 121 0 l 121 958 l 242 958 m 561 1279 l 629 1188 l 363 1021 l 322 1075 l 561 1279 z "},"Ŗ":{"ha":858,"x_min":121,"x_max":796,"o":"m 471 -82 q 503 -90 494 -82 q 511 -119 511 -99 l 511 -196 q 505 -262 510 -231 q 490 -323 500 -293 q 467 -379 481 -353 l 415 -365 q 426 -298 422 -329 q 429 -222 429 -267 q 399 -189 399 -222 l 399 -119 q 409 -90 399 -99 q 440 -82 419 -82 l 471 -82 m 451 971 q 631 947 563 971 q 730 863 699 922 q 761 694 761 803 q 743 565 761 617 q 687 484 725 513 q 585 447 649 456 l 585 440 q 631 417 608 435 q 674 372 654 400 q 703 303 693 343 l 796 0 l 665 0 l 581 300 q 532 377 563 354 q 453 400 501 400 q 306 401 368 400 q 201 403 243 401 q 135 404 160 404 l 139 506 l 449 506 q 560 522 519 507 q 619 577 601 538 q 638 688 638 617 q 619 797 638 758 q 560 850 601 835 q 449 865 519 865 q 252 864 335 865 q 140 863 169 863 l 121 958 q 219 967 174 964 q 320 970 265 969 q 451 971 375 971 m 242 958 l 242 0 l 121 0 l 121 958 l 242 958 z "},"Ř":{"ha":858,"x_min":121,"x_max":796,"o":"m 451 971 q 631 947 563 971 q 730 863 699 922 q 761 694 761 803 q 743 565 761 617 q 687 484 725 513 q 585 447 649 456 l 585 440 q 631 417 608 435 q 674 372 654 400 q 703 303 693 343 l 796 0 l 665 0 l 581 300 q 532 377 563 354 q 453 400 501 400 q 306 401 368 400 q 201 403 243 401 q 135 404 160 404 l 139 506 l 449 506 q 560 522 519 507 q 619 577 601 538 q 638 688 638 617 q 619 797 638 758 q 560 850 601 835 q 449 865 519 865 q 252 864 335 865 q 140 863 169 863 l 121 958 q 219 967 174 964 q 320 970 265 969 q 451 971 375 971 m 242 958 l 242 0 l 121 0 l 121 958 l 242 958 m 607 1265 l 649 1215 l 450 1038 l 394 1038 l 196 1215 l 236 1265 l 417 1144 l 428 1144 l 607 1265 z "},"Ś":{"ha":779,"x_min":76,"x_max":708,"o":"m 388 975 q 528 968 456 974 q 672 947 600 963 l 664 858 q 532 863 604 861 q 393 865 460 865 q 305 862 342 865 q 244 845 268 858 q 210 802 221 832 q 200 719 200 772 q 228 609 200 640 q 321 563 257 578 l 515 514 q 667 422 626 488 q 708 244 708 356 q 690 110 708 161 q 632 31 671 58 q 532 -6 593 4 q 388 -17 471 -17 q 265 -12 340 -17 q 90 10 189 -8 l 99 100 q 231 95 181 97 q 317 93 281 93 q 392 93 353 93 q 508 104 465 93 q 567 149 550 115 q 585 247 585 182 q 572 333 585 303 q 533 380 560 364 q 464 406 506 396 l 265 456 q 119 547 161 482 q 76 722 76 613 q 95 856 76 806 q 152 933 114 907 q 249 967 190 958 q 388 975 307 975 m 536 1279 l 604 1188 l 338 1021 l 297 1075 l 536 1279 z "},"Ŝ":{"ha":779,"x_min":76,"x_max":708,"o":"m 388 975 q 528 968 456 974 q 672 947 600 963 l 664 858 q 532 863 604 861 q 393 865 460 865 q 305 862 342 865 q 244 845 268 858 q 210 802 221 832 q 200 719 200 772 q 228 609 200 640 q 321 563 257 578 l 515 514 q 667 422 626 488 q 708 244 708 356 q 690 110 708 161 q 632 31 671 58 q 532 -6 593 4 q 388 -17 471 -17 q 265 -12 340 -17 q 90 10 189 -8 l 99 100 q 231 95 181 97 q 317 93 281 93 q 392 93 353 93 q 508 104 465 93 q 567 149 550 115 q 585 247 585 182 q 572 333 585 303 q 533 380 560 364 q 464 406 506 396 l 265 456 q 119 547 161 482 q 76 722 76 613 q 95 856 76 806 q 152 933 114 907 q 249 967 190 958 q 388 975 307 975 m 438 1244 l 622 1068 l 581 1017 l 401 1151 l 390 1151 l 210 1017 l 169 1068 l 353 1244 l 438 1244 z "},"Ş":{"ha":779,"x_min":76,"x_max":708,"o":"m 388 975 q 528 968 456 974 q 672 947 600 963 l 664 858 q 532 863 604 861 q 393 865 460 865 q 305 862 342 865 q 244 845 268 858 q 210 802 221 832 q 200 719 200 772 q 228 609 200 640 q 321 563 257 578 l 515 514 q 667 422 626 488 q 708 244 708 356 q 690 110 708 161 q 632 31 671 58 q 532 -6 593 4 q 388 -17 471 -17 q 265 -12 340 -17 q 90 10 189 -8 l 99 100 q 231 95 181 97 q 317 93 281 93 q 392 93 353 93 q 508 104 465 93 q 567 149 550 115 q 585 247 585 182 q 572 333 585 303 q 533 380 560 364 q 464 406 506 396 l 265 456 q 119 547 161 482 q 76 722 76 613 q 95 856 76 806 q 152 933 114 907 q 249 967 190 958 q 388 975 307 975 m 335 -76 q 423 -77 389 -71 q 474 -104 457 -83 q 489 -167 490 -125 q 457 -266 488 -225 q 375 -325 426 -307 q 257 -335 324 -343 l 275 -272 q 367 -247 332 -274 q 404 -176 403 -219 q 389 -142 406 -151 q 322 -132 372 -133 l 335 -76 z "},"Š":{"ha":779,"x_min":76,"x_max":708,"o":"m 388 975 q 528 968 456 974 q 672 947 600 963 l 664 858 q 532 863 604 861 q 393 865 460 865 q 305 862 342 865 q 244 845 268 858 q 210 802 221 832 q 200 719 200 772 q 228 609 200 640 q 321 563 257 578 l 515 514 q 667 422 626 488 q 708 244 708 356 q 690 110 708 161 q 632 31 671 58 q 532 -6 593 4 q 388 -17 471 -17 q 265 -12 340 -17 q 90 10 189 -8 l 99 100 q 231 95 181 97 q 317 93 281 93 q 392 93 353 93 q 508 104 465 93 q 567 149 550 115 q 585 247 585 182 q 572 333 585 303 q 533 380 560 364 q 464 406 506 396 l 265 456 q 119 547 161 482 q 76 722 76 613 q 95 856 76 806 q 152 933 114 907 q 249 967 190 958 q 388 975 307 975 m 583 1265 l 625 1215 l 426 1038 l 371 1038 l 172 1215 l 213 1265 l 393 1144 l 404 1144 l 583 1265 z "},"Ș":{"ha":779,"x_min":76,"x_max":708,"o":"m 413 -82 q 444 -90 436 -82 q 453 -119 453 -99 l 453 -196 q 447 -262 451 -231 q 432 -323 442 -293 q 408 -379 422 -353 l 357 -365 q 367 -298 364 -329 q 371 -222 371 -267 q 340 -189 340 -222 l 340 -119 q 351 -90 340 -99 q 382 -82 361 -82 l 413 -82 m 388 975 q 528 968 456 974 q 672 947 600 963 l 664 858 q 532 863 604 861 q 393 865 460 865 q 305 862 342 865 q 244 845 268 858 q 210 802 221 832 q 200 719 200 772 q 228 609 200 640 q 321 563 257 578 l 515 514 q 667 422 626 488 q 708 244 708 356 q 690 110 708 161 q 632 31 671 58 q 532 -6 593 4 q 388 -17 471 -17 q 265 -12 340 -17 q 90 10 189 -8 l 99 100 q 231 95 181 97 q 317 93 281 93 q 392 93 353 93 q 508 104 465 93 q 567 149 550 115 q 585 247 585 182 q 572 333 585 303 q 533 380 560 364 q 464 406 506 396 l 265 456 q 119 547 161 482 q 76 722 76 613 q 95 856 76 806 q 152 933 114 907 q 249 967 190 958 q 388 975 307 975 z "},"Ț":{"ha":807,"x_min":33,"x_max":774,"o":"m 403 -82 q 435 -90 426 -82 q 443 -119 443 -99 l 443 -196 q 437 -262 442 -231 q 422 -323 432 -293 q 399 -379 413 -353 l 347 -365 q 358 -298 354 -329 q 361 -222 361 -267 q 331 -189 331 -222 l 331 -119 q 341 -90 331 -99 q 372 -82 351 -82 l 403 -82 m 464 958 l 464 0 l 342 0 l 342 958 l 464 958 m 774 958 l 774 850 l 33 850 l 33 958 l 774 958 z "},"Ť":{"ha":807,"x_min":33,"x_max":774,"o":"m 464 958 l 464 0 l 342 0 l 342 958 l 464 958 m 774 958 l 774 850 l 33 850 l 33 958 l 774 958 m 590 1265 l 632 1215 l 433 1038 l 378 1038 l 179 1215 l 219 1265 l 400 1144 l 411 1144 l 590 1265 z "},"Ŧ":{"ha":807,"x_min":33,"x_max":774,"o":"m 658 557 l 658 488 l 146 488 l 146 557 l 658 557 m 464 958 l 464 0 l 342 0 l 342 958 l 464 958 m 774 958 l 774 850 l 33 850 l 33 958 l 774 958 z "},"Ţ":{"ha":807,"x_min":33,"x_max":774,"o":"m 464 958 l 464 0 l 342 0 l 342 958 l 464 958 m 774 958 l 774 850 l 33 850 l 33 958 l 774 958 m 343 -60 q 431 -60 397 -54 q 482 -87 465 -67 q 497 -150 499 -108 q 465 -249 496 -208 q 383 -308 435 -290 q 265 -318 332 -326 l 283 -256 q 376 -230 340 -257 q 413 -160 411 -203 q 397 -126 414 -135 q 331 -115 381 -117 l 343 -60 z "},"Þ":{"ha":822,"x_min":121,"x_max":758,"o":"m 451 788 q 633 761 567 788 q 729 669 700 735 q 758 485 758 604 q 730 299 758 365 q 637 208 701 233 q 464 182 572 182 q 352 185 406 182 q 254 192 299 188 q 178 203 210 197 q 135 213 147 208 l 139 288 q 292 288 213 288 q 449 288 371 288 q 559 305 518 289 q 617 363 600 321 q 635 485 635 406 q 617 608 635 565 q 559 667 600 650 q 449 683 518 683 q 252 682 335 683 q 140 678 169 681 l 121 776 q 219 784 174 782 q 319 787 265 786 q 451 788 374 788 m 243 958 l 243 0 l 121 0 l 121 958 l 243 958 z "},"Ù":{"ha":925,"x_min":114,"x_max":811,"o":"m 811 958 l 811 367 q 778 143 811 228 q 669 20 744 58 q 468 -18 594 -18 q 261 20 339 -18 q 149 143 183 58 q 114 367 114 228 l 114 958 l 236 958 l 236 367 q 258 203 236 264 q 329 117 279 143 q 463 92 379 92 q 595 117 546 92 q 667 203 644 143 q 689 367 689 264 l 689 958 l 811 958 m 304 1268 l 543 1065 l 503 1011 l 236 1178 l 304 1268 z "},"Ú":{"ha":925,"x_min":114,"x_max":811,"o":"m 811 958 l 811 367 q 778 143 811 228 q 669 20 744 58 q 468 -18 594 -18 q 261 20 339 -18 q 149 143 183 58 q 114 367 114 228 l 114 958 l 236 958 l 236 367 q 258 203 236 264 q 329 117 279 143 q 463 92 379 92 q 595 117 546 92 q 667 203 644 143 q 689 367 689 264 l 689 958 l 811 958 m 604 1279 l 672 1188 l 406 1021 l 365 1075 l 604 1279 z "},"Û":{"ha":925,"x_min":114,"x_max":811,"o":"m 811 958 l 811 367 q 778 143 811 228 q 669 20 744 58 q 468 -18 594 -18 q 261 20 339 -18 q 149 143 183 58 q 114 367 114 228 l 114 958 l 236 958 l 236 367 q 258 203 236 264 q 329 117 279 143 q 463 92 379 92 q 595 117 546 92 q 667 203 644 143 q 689 367 689 264 l 689 958 l 811 958 m 506 1244 l 690 1068 l 649 1017 l 469 1151 l 458 1151 l 278 1017 l 238 1068 l 421 1244 l 506 1244 z "},"Ũ":{"ha":925,"x_min":114,"x_max":811,"o":"m 811 958 l 811 367 q 778 143 811 228 q 669 20 744 58 q 468 -18 594 -18 q 261 20 339 -18 q 149 143 183 58 q 114 367 114 228 l 114 958 l 236 958 l 236 367 q 258 203 236 264 q 329 117 279 143 q 463 92 379 92 q 595 117 546 92 q 667 203 644 143 q 689 367 689 264 l 689 958 l 811 958 m 353 1221 q 410 1208 385 1218 q 459 1184 436 1197 q 506 1160 482 1171 q 560 1144 531 1149 q 614 1157 600 1139 q 628 1214 628 1175 l 683 1214 q 660 1095 692 1136 q 575 1058 629 1054 q 494 1081 528 1063 q 430 1117 460 1099 q 365 1138 400 1135 q 313 1123 326 1142 q 300 1063 300 1104 l 244 1063 q 252 1154 239 1118 q 292 1207 265 1190 q 353 1221 319 1224 z "},"Ü":{"ha":925,"x_min":114,"x_max":811,"o":"m 811 958 l 811 367 q 778 143 811 228 q 669 20 744 58 q 468 -18 594 -18 q 261 20 339 -18 q 149 143 183 58 q 114 367 114 228 l 114 958 l 236 958 l 236 367 q 258 203 236 264 q 329 117 279 143 q 463 92 379 92 q 595 117 546 92 q 667 203 644 143 q 689 367 689 264 l 689 958 l 811 958 m 607 1208 q 640 1175 640 1208 l 640 1099 q 607 1065 640 1065 l 568 1065 q 535 1099 535 1065 l 535 1175 q 568 1208 535 1208 l 607 1208 m 361 1208 q 393 1175 393 1208 l 393 1099 q 361 1065 393 1065 l 321 1065 q 289 1099 289 1065 l 289 1175 q 321 1208 289 1208 l 361 1208 z "},"Ū":{"ha":925,"x_min":114,"x_max":811,"o":"m 811 958 l 811 367 q 778 143 811 228 q 669 20 744 58 q 468 -18 594 -18 q 261 20 339 -18 q 149 143 183 58 q 114 367 114 228 l 114 958 l 236 958 l 236 367 q 258 203 236 264 q 329 117 279 143 q 463 92 379 92 q 595 117 546 92 q 667 203 644 143 q 689 367 689 264 l 689 958 l 811 958 m 657 1179 l 657 1092 l 271 1092 l 271 1179 l 657 1179 z "},"Ŭ":{"ha":925,"x_min":114,"x_max":811,"o":"m 811 958 l 811 367 q 778 143 811 228 q 669 20 744 58 q 468 -18 594 -18 q 261 20 339 -18 q 149 143 183 58 q 114 367 114 228 l 114 958 l 236 958 l 236 367 q 258 203 236 264 q 329 117 279 143 q 463 92 379 92 q 595 117 546 92 q 667 203 644 143 q 689 367 689 264 l 689 958 l 811 958 m 611 1226 l 672 1218 q 651 1123 676 1164 q 579 1058 626 1082 q 464 1035 532 1035 q 349 1058 397 1035 q 277 1123 301 1082 q 256 1218 253 1164 l 317 1226 q 354 1150 315 1178 q 465 1122 393 1122 q 573 1150 535 1122 q 611 1226 611 1178 z "},"Ů":{"ha":925,"x_min":114,"x_max":811,"o":"m 811 958 l 811 367 q 778 143 811 228 q 669 20 744 58 q 468 -18 594 -18 q 261 20 339 -18 q 149 143 183 58 q 114 367 114 228 l 114 958 l 236 958 l 236 367 q 258 203 236 264 q 329 117 279 143 q 463 92 379 92 q 595 117 546 92 q 667 203 644 143 q 689 367 689 264 l 689 958 l 811 958 m 464 1294 q 538 1275 504 1294 q 592 1223 572 1256 q 613 1149 613 1190 q 592 1075 613 1108 q 539 1022 572 1042 q 464 1003 506 1003 q 390 1022 424 1003 q 335 1074 356 1042 q 315 1149 315 1107 q 335 1223 315 1190 q 390 1275 356 1256 q 464 1294 424 1294 m 464 1233 q 406 1210 429 1233 q 382 1149 382 1188 q 406 1087 382 1110 q 464 1064 429 1064 q 524 1087 500 1064 q 547 1149 547 1110 q 524 1210 547 1188 q 464 1233 500 1233 z "},"Ű":{"ha":925,"x_min":114,"x_max":811,"o":"m 811 958 l 811 367 q 778 143 811 228 q 669 20 744 58 q 468 -18 594 -18 q 261 20 339 -18 q 149 143 183 58 q 114 367 114 228 l 114 958 l 236 958 l 236 367 q 258 203 236 264 q 329 117 279 143 q 463 92 379 92 q 595 117 546 92 q 667 203 644 143 q 689 367 689 264 l 689 958 l 811 958 m 424 1293 l 510 1235 l 324 1013 l 271 1051 l 424 1293 m 651 1293 l 738 1235 l 551 1013 l 499 1051 l 651 1293 z "},"Ų":{"ha":925,"x_min":114,"x_max":811,"o":"m 811 958 l 811 367 q 778 143 811 228 q 669 20 744 58 q 468 -18 594 -18 q 261 20 339 -18 q 149 143 183 58 q 114 367 114 228 l 114 958 l 236 958 l 236 367 q 258 203 236 264 q 329 117 279 143 q 463 92 379 92 q 595 117 546 92 q 667 203 644 143 q 689 367 689 264 l 689 958 l 811 958 m 467 -10 l 519 -12 q 462 -85 489 -47 q 417 -171 435 -124 q 428 -237 396 -222 q 525 -232 460 -253 l 539 -281 q 428 -309 474 -308 q 358 -292 383 -310 q 326 -242 332 -274 q 333 -175 321 -211 q 376 -99 344 -140 q 467 -10 407 -57 z "},"Ẁ":{"ha":1317,"x_min":43,"x_max":1274,"o":"m 1274 958 l 1079 36 q 1063 10 1075 21 q 1031 0 1050 0 l 892 0 q 860 10 874 0 q 844 38 847 21 l 694 758 q 683 813 689 786 q 672 867 678 840 l 643 867 q 633 813 638 840 q 622 758 628 785 l 474 38 q 456 10 469 21 q 425 0 443 0 l 285 0 q 253 10 267 0 q 238 36 240 21 l 43 958 l 172 958 l 322 211 q 332 155 328 185 q 342 93 336 125 l 374 93 q 385 154 379 125 q 396 211 390 183 l 544 918 q 560 947 547 936 q 592 958 574 958 l 725 958 q 756 947 743 958 q 772 918 768 936 l 921 211 q 933 151 928 181 q 940 93 938 122 l 975 93 q 983 152 979 122 q 993 210 988 182 l 1144 958 l 1274 958 m 500 1268 l 739 1065 l 699 1011 l 432 1178 l 500 1268 z "},"Ẃ":{"ha":1317,"x_min":43,"x_max":1274,"o":"m 1274 958 l 1079 36 q 1063 10 1075 21 q 1031 0 1050 0 l 892 0 q 860 10 874 0 q 844 38 847 21 l 694 758 q 683 813 689 786 q 672 867 678 840 l 643 867 q 633 813 638 840 q 622 758 628 785 l 474 38 q 456 10 469 21 q 425 0 443 0 l 285 0 q 253 10 267 0 q 238 36 240 21 l 43 958 l 172 958 l 322 211 q 332 155 328 185 q 342 93 336 125 l 374 93 q 385 154 379 125 q 396 211 390 183 l 544 918 q 560 947 547 936 q 592 958 574 958 l 725 958 q 756 947 743 958 q 772 918 768 936 l 921 211 q 933 151 928 181 q 940 93 938 122 l 975 93 q 983 152 979 122 q 993 210 988 182 l 1144 958 l 1274 958 m 799 1279 l 867 1188 l 600 1021 l 560 1075 l 799 1279 z "},"Ŵ":{"ha":1317,"x_min":43,"x_max":1274,"o":"m 1274 958 l 1079 36 q 1063 10 1075 21 q 1031 0 1050 0 l 892 0 q 860 10 874 0 q 844 38 847 21 l 694 758 q 683 813 689 786 q 672 867 678 840 l 643 867 q 633 813 638 840 q 622 758 628 785 l 474 38 q 456 10 469 21 q 425 0 443 0 l 285 0 q 253 10 267 0 q 238 36 240 21 l 43 958 l 172 958 l 322 211 q 332 155 328 185 q 342 93 336 125 l 374 93 q 385 154 379 125 q 396 211 390 183 l 544 918 q 560 947 547 936 q 592 958 574 958 l 725 958 q 756 947 743 958 q 772 918 768 936 l 921 211 q 933 151 928 181 q 940 93 938 122 l 975 93 q 983 152 979 122 q 993 210 988 182 l 1144 958 l 1274 958 m 701 1244 l 886 1068 l 844 1017 l 665 1151 l 654 1151 l 474 1017 l 433 1068 l 617 1244 l 701 1244 z "},"Ẅ":{"ha":1317,"x_min":43,"x_max":1274,"o":"m 1274 958 l 1079 36 q 1063 10 1075 21 q 1031 0 1050 0 l 892 0 q 860 10 874 0 q 844 38 847 21 l 694 758 q 683 813 689 786 q 672 867 678 840 l 643 867 q 633 813 638 840 q 622 758 628 785 l 474 38 q 456 10 469 21 q 425 0 443 0 l 285 0 q 253 10 267 0 q 238 36 240 21 l 43 958 l 172 958 l 322 211 q 332 155 328 185 q 342 93 336 125 l 374 93 q 385 154 379 125 q 396 211 390 183 l 544 918 q 560 947 547 936 q 592 958 574 958 l 725 958 q 756 947 743 958 q 772 918 768 936 l 921 211 q 933 151 928 181 q 940 93 938 122 l 975 93 q 983 152 979 122 q 993 210 988 182 l 1144 958 l 1274 958 m 801 1207 q 835 1174 835 1207 l 835 1097 q 801 1064 835 1064 l 763 1064 q 729 1097 729 1064 l 729 1174 q 763 1207 729 1207 l 801 1207 m 556 1207 q 588 1174 588 1207 l 588 1097 q 556 1064 588 1064 l 515 1064 q 483 1097 483 1064 l 483 1174 q 515 1207 483 1207 l 556 1207 z "},"Ỳ":{"ha":790,"x_min":15,"x_max":774,"o":"m 774 958 l 450 325 l 340 325 l 15 958 l 146 958 l 347 554 q 370 500 360 528 q 390 446 381 472 l 400 446 q 421 500 410 472 q 443 553 432 528 l 644 958 l 774 958 m 456 411 l 456 0 l 333 0 l 333 411 l 456 411 m 238 1254 l 476 1051 l 436 997 l 169 1164 l 238 1254 z "},"Ý":{"ha":790,"x_min":15,"x_max":774,"o":"m 774 958 l 450 325 l 340 325 l 15 958 l 146 958 l 347 554 q 370 500 360 528 q 390 446 381 472 l 400 446 q 421 500 410 472 q 443 553 432 528 l 644 958 l 774 958 m 456 411 l 456 0 l 333 0 l 333 411 l 456 411 m 536 1265 l 604 1174 l 338 1007 l 297 1061 l 536 1265 z "},"Ŷ":{"ha":790,"x_min":15,"x_max":774,"o":"m 774 958 l 450 325 l 340 325 l 15 958 l 146 958 l 347 554 q 370 500 360 528 q 390 446 381 472 l 400 446 q 421 500 410 472 q 443 553 432 528 l 644 958 l 774 958 m 456 411 l 456 0 l 333 0 l 333 411 l 456 411 m 439 1231 l 624 1054 l 582 1003 l 403 1138 l 392 1138 l 211 1003 l 171 1054 l 354 1231 l 439 1231 z "},"Ÿ":{"ha":790,"x_min":15,"x_max":774,"o":"m 774 958 l 450 325 l 340 325 l 15 958 l 146 958 l 347 554 q 370 500 360 528 q 390 446 381 472 l 400 446 q 421 500 410 472 q 443 553 432 528 l 644 958 l 774 958 m 456 411 l 456 0 l 333 0 l 333 411 l 456 411 m 539 1194 q 572 1161 572 1194 l 572 1085 q 539 1051 572 1051 l 500 1051 q 467 1085 467 1051 l 467 1161 q 500 1194 467 1194 l 539 1194 m 293 1194 q 325 1161 325 1194 l 325 1085 q 293 1051 325 1051 l 253 1051 q 221 1085 221 1051 l 221 1161 q 253 1194 221 1194 l 293 1194 z "},"Ź":{"ha":786,"x_min":67,"x_max":721,"o":"m 578 856 l 711 854 l 201 103 l 67 104 l 578 856 m 721 104 l 721 0 l 67 0 l 67 104 l 721 104 m 711 958 l 711 854 l 75 854 l 75 958 l 711 958 m 531 1279 l 599 1188 l 332 1021 l 292 1075 l 531 1279 z "},"Ż":{"ha":786,"x_min":67,"x_max":721,"o":"m 578 856 l 711 854 l 201 103 l 67 104 l 578 856 m 721 104 l 721 0 l 67 0 l 67 104 l 721 104 m 711 958 l 711 854 l 75 854 l 75 958 l 711 958 m 410 1204 q 446 1169 446 1204 l 446 1090 q 410 1054 446 1054 l 372 1054 q 336 1090 336 1054 l 336 1169 q 372 1204 336 1204 l 410 1204 z "},"Ž":{"ha":786,"x_min":67,"x_max":721,"o":"m 578 856 l 711 854 l 201 103 l 67 104 l 578 856 m 721 104 l 721 0 l 67 0 l 67 104 l 721 104 m 711 958 l 711 854 l 75 854 l 75 958 l 711 958 m 578 1265 l 619 1215 l 421 1038 l 365 1038 l 167 1215 l 207 1265 l 388 1144 l 399 1144 l 578 1265 z "},"Ǿ":{"ha":928,"x_min":85,"x_max":842,"o":"m 685 1042 l 749 1015 l 235 -81 l 172 -53 l 685 1042 m 464 976 q 641 951 568 976 q 758 869 714 926 q 822 715 801 811 q 842 479 842 619 q 822 243 842 339 q 758 90 801 147 q 641 7 714 32 q 464 -18 568 -18 q 287 7 360 -18 q 169 90 214 32 q 105 243 125 147 q 85 479 85 339 q 105 715 85 619 q 169 869 125 811 q 287 951 214 926 q 464 976 360 976 m 464 867 q 315 831 369 867 q 237 710 260 794 q 214 479 214 626 q 237 249 214 333 q 315 128 260 164 q 464 92 369 92 q 613 128 558 92 q 691 249 668 164 q 714 479 714 333 q 691 710 714 626 q 613 831 668 794 q 464 867 558 867 m 606 1278 l 672 1188 l 407 1021 l 365 1075 l 606 1278 z "},"Ǻ":{"ha":864,"x_min":14,"x_max":850,"o":"m 496 875 q 524 866 513 875 q 542 842 536 857 l 850 0 l 724 0 l 475 703 q 463 742 468 722 q 451 781 457 763 l 413 781 q 401 742 407 763 q 389 703 396 722 l 140 0 l 14 0 l 322 842 q 340 866 329 857 q 368 875 351 875 l 496 875 m 678 349 l 678 243 l 185 243 l 185 349 l 678 349 m 517 1421 l 579 1332 l 353 1207 l 315 1260 l 517 1421 m 433 1197 q 508 1178 474 1197 q 562 1126 542 1158 q 582 1051 582 1093 q 562 978 582 1011 q 508 925 542 944 q 433 906 475 906 q 359 925 393 906 q 305 977 325 944 q 285 1051 285 1010 q 305 1126 285 1093 q 359 1178 325 1158 q 433 1197 393 1197 m 433 1136 q 375 1113 399 1136 q 351 1051 351 1090 q 375 990 351 1013 q 433 967 399 967 q 493 990 469 967 q 517 1051 517 1013 q 493 1113 517 1090 q 433 1136 469 1136 z "},"Ǽ":{"ha":1268,"x_min":-1,"x_max":1197,"o":"m 788 960 q 1011 958 917 960 q 1197 951 1106 957 l 1193 854 l 839 854 q 770 828 796 854 q 744 758 744 803 l 744 196 q 767 126 744 149 q 839 103 790 103 l 1193 103 l 1197 7 q 996 0 1099 1 q 790 -1 893 -1 q 674 46 718 -1 q 629 165 629 93 l 629 775 q 642 833 629 804 q 674 875 656 863 l 663 875 q 623 842 644 865 q 582 788 601 819 l 126 0 l -1 0 l 475 808 q 528 883 500 853 q 593 929 557 913 q 677 953 629 946 q 788 960 725 960 m 663 414 l 663 313 l 246 313 l 257 414 l 663 414 m 649 557 l 1138 556 l 1138 457 l 649 456 l 649 557 m 933 1268 l 1000 1178 l 735 1011 l 693 1065 l 933 1268 z "},"Ə":{"ha":879,"x_min":76,"x_max":794,"o":"m 435 -17 q 226 22 304 -17 q 113 130 147 61 q 78 288 78 199 q 135 476 76 413 q 311 540 194 540 l 753 540 l 753 429 l 318 429 q 229 385 254 429 q 206 286 204 342 q 254 145 207 199 q 425 92 301 92 q 573 133 521 92 q 646 259 625 175 q 667 468 667 343 q 655 656 667 579 q 614 778 643 732 q 534 846 585 825 q 404 867 483 867 q 259 860 329 867 q 115 843 189 854 l 100 928 q 197 955 146 944 q 303 971 249 965 q 413 976 358 976 q 649 924 567 976 q 763 762 732 872 q 794 476 794 651 q 763 195 794 304 q 653 35 731 86 q 435 -17 575 -17 z "},"à":{"ha":763,"x_min":71,"x_max":660,"o":"m 428 693 q 555 673 503 693 q 633 606 607 653 q 660 476 660 558 l 660 0 l 567 0 l 549 147 l 540 163 l 540 476 q 512 566 540 539 q 403 593 483 593 q 270 588 350 593 q 113 575 190 582 l 101 663 q 205 678 149 671 q 319 689 261 685 q 428 693 378 693 m 604 417 l 603 328 l 279 326 q 211 301 231 325 q 192 233 192 276 l 192 190 q 217 113 192 138 q 297 89 242 89 q 385 103 336 89 q 485 149 435 118 q 576 226 535 179 l 576 139 q 533 94 561 119 q 465 44 504 68 q 377 3 425 19 q 274 -12 329 -12 q 168 9 214 -12 q 97 73 122 31 q 71 176 71 115 l 71 250 q 120 373 71 329 q 258 417 169 417 l 604 417 m 221 1018 l 460 815 l 419 761 l 153 928 l 221 1018 z "},"á":{"ha":763,"x_min":71,"x_max":660,"o":"m 428 693 q 555 673 503 693 q 633 606 607 653 q 660 476 660 558 l 660 0 l 567 0 l 549 147 l 540 163 l 540 476 q 512 566 540 539 q 403 593 483 593 q 270 588 350 593 q 113 575 190 582 l 101 663 q 205 678 149 671 q 319 689 261 685 q 428 693 378 693 m 604 417 l 603 328 l 279 326 q 211 301 231 325 q 192 233 192 276 l 192 190 q 217 113 192 138 q 297 89 242 89 q 385 103 336 89 q 485 149 435 118 q 576 226 535 179 l 576 139 q 533 94 561 119 q 465 44 504 68 q 377 3 425 19 q 274 -12 329 -12 q 168 9 214 -12 q 97 73 122 31 q 71 176 71 115 l 71 250 q 120 373 71 329 q 258 417 169 417 l 604 417 m 519 1029 l 588 938 l 321 771 l 281 825 l 519 1029 z "},"â":{"ha":763,"x_min":71,"x_max":660,"o":"m 428 693 q 555 673 503 693 q 633 606 607 653 q 660 476 660 558 l 660 0 l 567 0 l 549 147 l 540 163 l 540 476 q 512 566 540 539 q 403 593 483 593 q 270 588 350 593 q 113 575 190 582 l 101 663 q 205 678 149 671 q 319 689 261 685 q 428 693 378 693 m 604 417 l 603 328 l 279 326 q 211 301 231 325 q 192 233 192 276 l 192 190 q 217 113 192 138 q 297 89 242 89 q 385 103 336 89 q 485 149 435 118 q 576 226 535 179 l 576 139 q 533 94 561 119 q 465 44 504 68 q 377 3 425 19 q 274 -12 329 -12 q 168 9 214 -12 q 97 73 122 31 q 71 176 71 115 l 71 250 q 120 373 71 329 q 258 417 169 417 l 604 417 m 422 994 l 607 818 l 565 767 l 386 901 l 375 901 l 194 767 l 154 818 l 338 994 l 422 994 z "},"ã":{"ha":763,"x_min":71,"x_max":660,"o":"m 428 693 q 555 673 503 693 q 633 606 607 653 q 660 476 660 558 l 660 0 l 567 0 l 549 147 l 540 163 l 540 476 q 512 566 540 539 q 403 593 483 593 q 270 588 350 593 q 113 575 190 582 l 101 663 q 205 678 149 671 q 319 689 261 685 q 428 693 378 693 m 604 417 l 603 328 l 279 326 q 211 301 231 325 q 192 233 192 276 l 192 190 q 217 113 192 138 q 297 89 242 89 q 385 103 336 89 q 485 149 435 118 q 576 226 535 179 l 576 139 q 533 94 561 119 q 465 44 504 68 q 377 3 425 19 q 274 -12 329 -12 q 168 9 214 -12 q 97 73 122 31 q 71 176 71 115 l 71 250 q 120 373 71 329 q 258 417 169 417 l 604 417 m 268 971 q 326 958 300 968 q 374 934 351 947 q 422 910 397 921 q 475 894 446 899 q 529 907 515 889 q 543 964 543 925 l 599 964 q 576 845 607 886 q 490 808 544 804 q 409 831 443 813 q 345 867 375 849 q 281 888 315 885 q 228 873 242 892 q 215 813 215 854 l 160 813 q 167 904 154 868 q 208 957 181 940 q 268 971 235 974 z "},"ä":{"ha":763,"x_min":71,"x_max":660,"o":"m 428 693 q 555 673 503 693 q 633 606 607 653 q 660 476 660 558 l 660 0 l 567 0 l 549 147 l 540 163 l 540 476 q 512 566 540 539 q 403 593 483 593 q 270 588 350 593 q 113 575 190 582 l 101 663 q 205 678 149 671 q 319 689 261 685 q 428 693 378 693 m 604 417 l 603 328 l 279 326 q 211 301 231 325 q 192 233 192 276 l 192 190 q 217 113 192 138 q 297 89 242 89 q 385 103 336 89 q 485 149 435 118 q 576 226 535 179 l 576 139 q 533 94 561 119 q 465 44 504 68 q 377 3 425 19 q 274 -12 329 -12 q 168 9 214 -12 q 97 73 122 31 q 71 176 71 115 l 71 250 q 120 373 71 329 q 258 417 169 417 l 604 417 m 522 958 q 556 925 556 958 l 556 849 q 522 815 556 815 l 483 815 q 450 849 450 815 l 450 925 q 483 958 450 958 l 522 958 m 276 958 q 308 925 308 958 l 308 849 q 276 815 308 815 l 236 815 q 204 849 204 815 l 204 925 q 236 958 204 958 l 276 958 z "},"å":{"ha":763,"x_min":71,"x_max":660,"o":"m 428 693 q 555 673 503 693 q 633 606 607 653 q 660 476 660 558 l 660 0 l 567 0 l 549 147 l 540 163 l 540 476 q 512 566 540 539 q 403 593 483 593 q 270 588 350 593 q 113 575 190 582 l 101 663 q 205 678 149 671 q 319 689 261 685 q 428 693 378 693 m 604 417 l 603 328 l 279 326 q 211 301 231 325 q 192 233 192 276 l 192 190 q 217 113 192 138 q 297 89 242 89 q 385 103 336 89 q 485 149 435 118 q 576 226 535 179 l 576 139 q 533 94 561 119 q 465 44 504 68 q 377 3 425 19 q 274 -12 329 -12 q 168 9 214 -12 q 97 73 122 31 q 71 176 71 115 l 71 250 q 120 373 71 329 q 258 417 169 417 l 604 417 m 379 1043 q 453 1024 419 1043 q 508 972 488 1004 q 528 897 528 939 q 508 824 528 857 q 454 771 488 790 q 379 751 421 751 q 305 771 339 751 q 251 823 271 790 q 231 897 231 856 q 251 972 231 939 q 305 1024 271 1004 q 379 1043 339 1043 m 379 982 q 321 959 344 982 q 297 897 297 936 q 321 835 297 858 q 379 813 344 813 q 439 835 415 813 q 463 897 463 858 q 439 959 463 936 q 379 982 415 982 z "},"ā":{"ha":763,"x_min":71,"x_max":660,"o":"m 428 693 q 555 673 503 693 q 633 606 607 653 q 660 476 660 558 l 660 0 l 567 0 l 549 147 l 540 163 l 540 476 q 512 566 540 539 q 403 593 483 593 q 270 588 350 593 q 113 575 190 582 l 101 663 q 205 678 149 671 q 319 689 261 685 q 428 693 378 693 m 604 417 l 603 328 l 279 326 q 211 301 231 325 q 192 233 192 276 l 192 190 q 217 113 192 138 q 297 89 242 89 q 385 103 336 89 q 485 149 435 118 q 576 226 535 179 l 576 139 q 533 94 561 119 q 465 44 504 68 q 377 3 425 19 q 274 -12 329 -12 q 168 9 214 -12 q 97 73 122 31 q 71 176 71 115 l 71 250 q 120 373 71 329 q 258 417 169 417 l 604 417 m 574 928 l 574 840 l 188 840 l 188 928 l 574 928 z "},"ă":{"ha":763,"x_min":71,"x_max":660,"o":"m 428 693 q 555 673 503 693 q 633 606 607 653 q 660 476 660 558 l 660 0 l 567 0 l 549 147 l 540 163 l 540 476 q 512 566 540 539 q 403 593 483 593 q 270 588 350 593 q 113 575 190 582 l 101 663 q 205 678 149 671 q 319 689 261 685 q 428 693 378 693 m 604 417 l 603 328 l 279 326 q 211 301 231 325 q 192 233 192 276 l 192 190 q 217 113 192 138 q 297 89 242 89 q 385 103 336 89 q 485 149 435 118 q 576 226 535 179 l 576 139 q 533 94 561 119 q 465 44 504 68 q 377 3 425 19 q 274 -12 329 -12 q 168 9 214 -12 q 97 73 122 31 q 71 176 71 115 l 71 250 q 120 373 71 329 q 258 417 169 417 l 604 417 m 526 976 l 588 968 q 567 873 592 914 q 494 808 542 832 q 379 785 447 785 q 265 808 313 785 q 192 873 217 832 q 171 968 168 914 l 232 976 q 269 900 231 928 q 381 872 308 872 q 488 900 450 872 q 526 976 526 928 z "},"ą":{"ha":763,"x_min":71,"x_max":676,"o":"m 428 693 q 555 673 503 693 q 633 606 607 653 q 660 476 660 558 l 660 0 l 567 0 l 549 147 l 540 163 l 540 476 q 512 566 540 539 q 403 593 483 593 q 270 588 350 593 q 113 575 190 582 l 101 663 q 205 678 149 671 q 319 689 261 685 q 428 693 378 693 m 604 417 l 603 328 l 279 326 q 211 301 231 325 q 192 233 192 276 l 192 190 q 217 113 192 138 q 297 89 242 89 q 385 103 336 89 q 485 149 435 118 q 576 226 535 179 l 576 139 q 533 94 561 119 q 465 44 504 68 q 377 3 425 19 q 274 -12 329 -12 q 168 9 214 -12 q 97 73 122 31 q 71 176 71 115 l 71 250 q 120 373 71 329 q 258 417 169 417 l 604 417 m 604 3 l 657 0 q 599 -73 626 -35 q 554 -158 572 -111 q 565 -225 533 -210 q 663 -219 597 -240 l 676 -268 q 566 -297 611 -296 q 495 -279 521 -297 q 464 -230 469 -261 q 471 -162 458 -199 q 513 -86 482 -128 q 604 3 544 -44 z "},"æ":{"ha":1210,"x_min":71,"x_max":1142,"o":"m 850 693 q 1072 638 1003 693 q 1142 472 1140 582 q 1123 367 1142 410 q 1065 303 1104 325 q 965 281 1026 281 l 585 281 l 585 372 l 935 372 q 1006 402 988 372 q 1022 472 1024 432 q 984 565 1022 536 q 856 593 946 593 q 740 572 782 593 q 680 497 697 550 q 663 347 663 443 q 684 182 663 239 q 753 104 706 125 q 878 83 800 83 q 997 88 933 83 q 1114 100 1061 93 l 1125 21 q 1047 0 1094 8 q 951 -12 1000 -8 q 863 -17 901 -17 q 676 19 747 -17 q 572 133 604 54 q 540 340 540 211 q 572 551 540 474 q 673 660 604 628 q 850 693 742 693 m 604 417 l 603 328 l 279 326 q 211 301 231 325 q 192 233 192 276 l 192 190 q 217 113 192 138 q 297 89 242 89 q 388 103 338 89 q 490 150 438 118 q 583 231 542 182 l 583 143 q 539 96 568 122 q 469 44 510 69 q 380 3 429 19 q 274 -12 331 -12 q 168 9 214 -12 q 97 73 122 31 q 71 176 71 115 l 71 250 q 120 373 71 329 q 258 417 169 417 l 604 417 m 428 693 q 555 673 503 693 q 633 606 607 653 q 660 476 660 558 l 660 335 l 540 335 l 540 476 q 512 566 540 539 q 403 593 483 593 q 270 588 350 593 q 113 575 190 582 l 101 663 q 205 678 149 671 q 319 689 261 685 q 428 693 378 693 z "},"ç":{"ha":679,"x_min":75,"x_max":628,"o":"m 397 693 q 465 690 428 693 q 542 681 503 688 q 615 661 582 674 l 600 585 q 503 591 554 589 q 417 593 453 593 q 289 571 336 593 q 221 493 242 549 q 200 339 200 438 q 221 184 200 240 q 289 106 242 128 q 417 83 336 83 q 471 85 438 83 q 542 89 504 86 q 615 97 581 92 l 628 18 q 516 -8 576 0 q 396 -17 456 -17 q 208 18 279 -17 q 106 131 138 53 q 75 339 75 208 q 107 547 75 469 q 210 659 139 625 q 397 693 281 693 m 326 -76 q 415 -77 381 -71 q 465 -104 449 -83 q 481 -167 482 -125 q 449 -266 479 -225 q 367 -325 418 -307 q 249 -335 315 -343 l 267 -272 q 359 -247 324 -274 q 396 -176 394 -219 q 381 -142 397 -151 q 314 -132 364 -133 l 326 -76 z "},"ć":{"ha":679,"x_min":75,"x_max":628,"o":"m 397 693 q 465 690 428 693 q 542 681 503 688 q 615 661 582 674 l 600 585 q 503 591 554 589 q 417 593 453 593 q 289 571 336 593 q 221 493 242 549 q 200 339 200 438 q 221 184 200 240 q 289 106 242 128 q 417 83 336 83 q 471 85 438 83 q 542 89 504 86 q 615 97 581 92 l 628 18 q 516 -8 576 0 q 396 -17 456 -17 q 208 18 279 -17 q 106 131 138 53 q 75 339 75 208 q 107 547 75 469 q 210 659 139 625 q 397 693 281 693 m 511 1031 l 579 939 l 313 772 l 272 826 l 511 1031 z "},"ĉ":{"ha":679,"x_min":75,"x_max":628,"o":"m 397 693 q 465 690 428 693 q 542 681 503 688 q 615 661 582 674 l 600 585 q 503 591 554 589 q 417 593 453 593 q 289 571 336 593 q 221 493 242 549 q 200 339 200 438 q 221 184 200 240 q 289 106 242 128 q 417 83 336 83 q 471 85 438 83 q 542 89 504 86 q 615 97 581 92 l 628 18 q 516 -8 576 0 q 396 -17 456 -17 q 208 18 279 -17 q 106 131 138 53 q 75 339 75 208 q 107 547 75 469 q 210 659 139 625 q 397 693 281 693 m 414 994 l 599 818 l 557 767 l 378 901 l 367 901 l 186 767 l 146 818 l 329 994 l 414 994 z "},"ċ":{"ha":679,"x_min":75,"x_max":628,"o":"m 397 693 q 465 690 428 693 q 542 681 503 688 q 615 661 582 674 l 600 585 q 503 591 554 589 q 417 593 453 593 q 289 571 336 593 q 221 493 242 549 q 200 339 200 438 q 221 184 200 240 q 289 106 242 128 q 417 83 336 83 q 471 85 438 83 q 542 89 504 86 q 615 97 581 92 l 628 18 q 516 -8 576 0 q 396 -17 456 -17 q 208 18 279 -17 q 106 131 138 53 q 75 339 75 208 q 107 547 75 469 q 210 659 139 625 q 397 693 281 693 m 392 954 q 428 919 428 954 l 428 840 q 392 804 428 804 l 354 804 q 318 840 318 804 l 318 919 q 354 954 318 954 l 392 954 z "},"č":{"ha":679,"x_min":75,"x_max":628,"o":"m 397 693 q 465 690 428 693 q 542 681 503 688 q 615 661 582 674 l 600 585 q 503 591 554 589 q 417 593 453 593 q 289 571 336 593 q 221 493 242 549 q 200 339 200 438 q 221 184 200 240 q 289 106 242 128 q 417 83 336 83 q 471 85 438 83 q 542 89 504 86 q 615 97 581 92 l 628 18 q 516 -8 576 0 q 396 -17 456 -17 q 208 18 279 -17 q 106 131 138 53 q 75 339 75 208 q 107 547 75 469 q 210 659 139 625 q 397 693 281 693 m 558 1015 l 600 965 l 401 788 l 346 788 l 147 965 l 188 1015 l 368 894 l 379 894 l 558 1015 z "},"ď":{"ha":796,"x_min":78,"x_max":871,"o":"m 333 693 q 465 676 400 693 q 590 622 531 658 l 583 549 q 468 579 518 568 q 361 590 418 590 q 267 570 303 590 q 215 496 232 550 q 199 342 199 442 q 215 186 199 242 q 265 108 231 131 q 354 86 300 86 q 427 97 394 86 q 497 131 460 107 q 583 190 533 154 l 594 107 q 468 19 539 56 q 315 -17 397 -17 q 133 74 188 -17 q 78 340 78 164 q 106 549 78 472 q 190 660 133 626 q 333 693 247 693 m 686 972 l 686 0 l 594 0 l 581 118 l 568 128 l 568 592 l 576 613 q 569 688 571 651 q 568 764 568 724 l 568 972 l 686 972 m 831 981 q 862 972 854 981 q 869 944 869 964 l 869 869 q 858 776 871 821 q 826 692 846 732 l 775 704 q 785 771 782 740 q 788 844 788 801 q 758 875 758 844 l 758 944 q 768 972 758 964 q 800 981 778 981 l 831 981 z "},"đ":{"ha":789,"x_min":78,"x_max":781,"o":"m 781 864 l 781 796 l 356 796 l 356 864 l 781 864 m 333 693 q 465 676 400 693 q 590 622 531 658 l 583 549 q 468 579 518 568 q 361 590 418 590 q 267 570 303 590 q 215 496 232 550 q 199 342 199 442 q 215 186 199 242 q 265 108 231 131 q 354 86 300 86 q 427 97 394 86 q 497 131 460 107 q 583 190 533 154 l 594 107 q 468 19 539 56 q 315 -17 397 -17 q 133 74 188 -17 q 78 340 78 164 q 106 549 78 472 q 190 660 133 626 q 333 693 247 693 m 686 972 l 686 0 l 594 0 l 581 118 l 568 128 l 568 592 l 576 613 q 569 688 571 651 q 568 764 568 724 l 568 972 l 686 972 z "},"ð":{"ha":776,"x_min":76,"x_max":688,"o":"m 179 969 q 328 958 254 974 q 467 904 401 943 q 581 799 532 865 q 659 632 631 732 q 688 393 688 532 q 675 226 688 301 q 630 96 663 150 q 537 12 597 42 q 382 -18 476 -18 q 151 59 226 -18 q 76 304 76 136 q 104 476 76 406 q 194 585 132 547 q 361 622 257 622 q 441 615 399 622 q 528 585 483 607 q 613 524 572 564 l 603 472 q 493 512 546 500 q 379 524 440 524 q 272 498 311 524 q 217 423 233 472 q 201 304 201 374 q 245 132 201 182 q 383 82 289 82 q 502 119 464 82 q 553 226 540 156 q 565 399 565 297 q 542 615 565 528 q 478 757 518 703 q 386 839 438 811 q 278 876 335 867 q 165 883 221 886 l 179 969 m 574 989 l 615 935 l 332 717 l 289 769 l 574 989 z "},"è":{"ha":746,"x_min":75,"x_max":678,"o":"m 386 693 q 608 638 539 693 q 676 472 676 582 q 639 331 678 382 q 515 281 600 281 l 121 281 l 121 372 l 485 372 q 544 403 531 372 q 558 472 558 435 q 519 565 557 538 q 392 593 482 593 q 276 572 318 593 q 216 497 233 550 q 199 347 199 443 q 220 182 199 239 q 289 104 242 125 q 414 83 336 83 q 533 88 468 83 q 649 100 597 93 l 661 21 q 583 0 629 8 q 487 -12 536 -8 q 399 -17 438 -17 q 211 19 282 -17 q 108 133 140 54 q 75 340 75 211 q 108 551 75 474 q 209 660 140 628 q 386 693 278 693 m 231 1018 l 469 815 l 429 761 l 163 928 l 231 1018 z "},"é":{"ha":746,"x_min":75,"x_max":678,"o":"m 386 693 q 608 638 539 693 q 676 472 676 582 q 639 331 678 382 q 515 281 600 281 l 121 281 l 121 372 l 485 372 q 544 403 531 372 q 558 472 558 435 q 519 565 557 538 q 392 593 482 593 q 276 572 318 593 q 216 497 233 550 q 199 347 199 443 q 220 182 199 239 q 289 104 242 125 q 414 83 336 83 q 533 88 468 83 q 649 100 597 93 l 661 21 q 583 0 629 8 q 487 -12 536 -8 q 399 -17 438 -17 q 211 19 282 -17 q 108 133 140 54 q 75 340 75 211 q 108 551 75 474 q 209 660 140 628 q 386 693 278 693 m 531 1029 l 599 938 l 332 771 l 292 825 l 531 1029 z "},"ê":{"ha":746,"x_min":75,"x_max":678,"o":"m 386 693 q 608 638 539 693 q 676 472 676 582 q 639 331 678 382 q 515 281 600 281 l 121 281 l 121 372 l 485 372 q 544 403 531 372 q 558 472 558 435 q 519 565 557 538 q 392 593 482 593 q 276 572 318 593 q 216 497 233 550 q 199 347 199 443 q 220 182 199 239 q 289 104 242 125 q 414 83 336 83 q 533 88 468 83 q 649 100 597 93 l 661 21 q 583 0 629 8 q 487 -12 536 -8 q 399 -17 438 -17 q 211 19 282 -17 q 108 133 140 54 q 75 340 75 211 q 108 551 75 474 q 209 660 140 628 q 386 693 278 693 m 433 994 l 618 818 l 576 767 l 397 901 l 386 901 l 206 767 l 165 818 l 349 994 l 433 994 z "},"ë":{"ha":746,"x_min":75,"x_max":678,"o":"m 386 693 q 608 638 539 693 q 676 472 676 582 q 639 331 678 382 q 515 281 600 281 l 121 281 l 121 372 l 485 372 q 544 403 531 372 q 558 472 558 435 q 519 565 557 538 q 392 593 482 593 q 276 572 318 593 q 216 497 233 550 q 199 347 199 443 q 220 182 199 239 q 289 104 242 125 q 414 83 336 83 q 533 88 468 83 q 649 100 597 93 l 661 21 q 583 0 629 8 q 487 -12 536 -8 q 399 -17 438 -17 q 211 19 282 -17 q 108 133 140 54 q 75 340 75 211 q 108 551 75 474 q 209 660 140 628 q 386 693 278 693 m 533 958 q 567 925 567 958 l 567 849 q 533 815 567 815 l 494 815 q 461 849 461 815 l 461 925 q 494 958 461 958 l 533 958 m 288 958 q 319 925 319 958 l 319 849 q 288 815 319 815 l 247 815 q 215 849 215 815 l 215 925 q 247 958 215 958 l 288 958 z "},"ē":{"ha":746,"x_min":75,"x_max":678,"o":"m 386 693 q 608 638 539 693 q 676 472 676 582 q 639 331 678 382 q 515 281 600 281 l 121 281 l 121 372 l 485 372 q 544 403 531 372 q 558 472 558 435 q 519 565 557 538 q 392 593 482 593 q 276 572 318 593 q 216 497 233 550 q 199 347 199 443 q 220 182 199 239 q 289 104 242 125 q 414 83 336 83 q 533 88 468 83 q 649 100 597 93 l 661 21 q 583 0 629 8 q 487 -12 536 -8 q 399 -17 438 -17 q 211 19 282 -17 q 108 133 140 54 q 75 340 75 211 q 108 551 75 474 q 209 660 140 628 q 386 693 278 693 m 583 928 l 583 840 l 197 840 l 197 928 l 583 928 z "},"ĕ":{"ha":746,"x_min":75,"x_max":678,"o":"m 386 693 q 608 638 539 693 q 676 472 676 582 q 639 331 678 382 q 515 281 600 281 l 121 281 l 121 372 l 485 372 q 544 403 531 372 q 558 472 558 435 q 519 565 557 538 q 392 593 482 593 q 276 572 318 593 q 216 497 233 550 q 199 347 199 443 q 220 182 199 239 q 289 104 242 125 q 414 83 336 83 q 533 88 468 83 q 649 100 597 93 l 661 21 q 583 0 629 8 q 487 -12 536 -8 q 399 -17 438 -17 q 211 19 282 -17 q 108 133 140 54 q 75 340 75 211 q 108 551 75 474 q 209 660 140 628 q 386 693 278 693 m 538 976 l 599 968 q 578 873 603 914 q 506 808 553 832 q 390 785 458 785 q 276 808 324 785 q 203 873 228 832 q 182 968 179 914 l 243 976 q 281 900 242 928 q 392 872 319 872 q 499 900 461 872 q 538 976 538 928 z "},"ė":{"ha":746,"x_min":75,"x_max":678,"o":"m 386 693 q 608 638 539 693 q 676 472 676 582 q 639 331 678 382 q 515 281 600 281 l 121 281 l 121 372 l 485 372 q 544 403 531 372 q 558 472 558 435 q 519 565 557 538 q 392 593 482 593 q 276 572 318 593 q 216 497 233 550 q 199 347 199 443 q 220 182 199 239 q 289 104 242 125 q 414 83 336 83 q 533 88 468 83 q 649 100 597 93 l 661 21 q 583 0 629 8 q 487 -12 536 -8 q 399 -17 438 -17 q 211 19 282 -17 q 108 133 140 54 q 75 340 75 211 q 108 551 75 474 q 209 660 140 628 q 386 693 278 693 m 410 953 q 446 918 446 953 l 446 839 q 410 803 446 803 l 372 803 q 336 839 336 803 l 336 918 q 372 953 336 953 l 410 953 z "},"ę":{"ha":746,"x_min":75,"x_max":679,"o":"m 386 693 q 608 638 539 693 q 676 472 676 582 q 639 331 678 382 q 515 281 600 281 l 121 281 l 121 372 l 485 372 q 544 403 531 372 q 558 472 558 435 q 519 565 557 538 q 392 593 482 593 q 276 572 318 593 q 216 497 233 550 q 199 347 199 443 q 220 182 199 239 q 289 104 242 125 q 414 83 336 83 q 533 88 468 83 q 649 100 597 93 l 661 21 q 583 0 629 8 q 487 -12 536 -8 q 399 -17 438 -17 q 211 19 282 -17 q 108 133 140 54 q 75 340 75 211 q 108 551 75 474 q 209 660 140 628 q 386 693 278 693 m 607 25 l 660 22 q 602 -51 629 -12 q 557 -136 575 -89 q 568 -203 536 -187 q 665 -197 600 -218 l 679 -246 q 569 -274 614 -274 q 498 -257 524 -275 q 467 -208 472 -239 q 474 -140 461 -176 q 516 -64 485 -106 q 607 25 547 -22 z "},"ě":{"ha":746,"x_min":75,"x_max":678,"o":"m 386 693 q 608 638 539 693 q 676 472 676 582 q 639 331 678 382 q 515 281 600 281 l 121 281 l 121 372 l 485 372 q 544 403 531 372 q 558 472 558 435 q 519 565 557 538 q 392 593 482 593 q 276 572 318 593 q 216 497 233 550 q 199 347 199 443 q 220 182 199 239 q 289 104 242 125 q 414 83 336 83 q 533 88 468 83 q 649 100 597 93 l 661 21 q 583 0 629 8 q 487 -12 536 -8 q 399 -17 438 -17 q 211 19 282 -17 q 108 133 140 54 q 75 340 75 211 q 108 551 75 474 q 209 660 140 628 q 386 693 278 693 m 578 1014 l 619 964 l 421 786 l 365 786 l 167 964 l 207 1014 l 388 893 l 399 893 l 578 1014 z "},"ĝ":{"ha":775,"x_min":57,"x_max":744,"o":"m 376 693 q 548 671 485 693 q 638 601 611 649 q 665 478 665 554 q 638 356 665 404 q 547 285 611 308 q 375 263 483 263 q 203 285 267 263 q 113 356 140 308 q 86 476 86 403 q 113 601 86 553 q 204 671 140 649 q 376 693 268 693 m 375 603 q 234 574 274 603 q 194 478 194 546 q 234 382 194 411 q 375 353 274 353 q 517 382 478 353 q 556 478 556 411 q 517 574 556 546 q 375 603 478 603 m 744 676 l 738 611 l 565 597 l 517 676 l 744 676 m 185 307 l 253 297 q 221 247 229 276 q 226 192 213 217 q 282 160 239 167 l 535 119 q 668 60 631 106 q 706 -71 706 14 q 676 -196 706 -150 q 575 -261 646 -242 q 383 -281 504 -281 q 229 -270 292 -281 q 128 -235 167 -260 q 74 -172 90 -211 q 57 -75 57 -133 q 70 -1 57 -31 q 112 53 83 29 q 186 99 140 76 l 269 144 l 324 125 l 256 74 q 209 33 228 53 q 181 -10 190 13 q 172 -65 172 -33 q 190 -137 172 -112 q 254 -172 208 -162 q 382 -181 300 -181 q 509 -171 464 -181 q 572 -136 554 -161 q 590 -65 590 -111 q 581 -12 590 -31 q 547 15 572 6 q 474 32 522 25 l 231 65 q 162 93 188 71 q 126 146 136 115 q 121 208 117 176 q 142 266 125 239 q 185 307 158 293 m 419 994 l 604 818 l 563 767 l 383 901 l 372 901 l 192 767 l 151 818 l 335 994 l 419 994 z "},"ğ":{"ha":775,"x_min":57,"x_max":744,"o":"m 376 693 q 548 671 485 693 q 638 601 611 649 q 665 478 665 554 q 638 356 665 404 q 547 285 611 308 q 375 263 483 263 q 203 285 267 263 q 113 356 140 308 q 86 476 86 403 q 113 601 86 553 q 204 671 140 649 q 376 693 268 693 m 375 603 q 234 574 274 603 q 194 478 194 546 q 234 382 194 411 q 375 353 274 353 q 517 382 478 353 q 556 478 556 411 q 517 574 556 546 q 375 603 478 603 m 744 676 l 738 611 l 565 597 l 517 676 l 744 676 m 185 307 l 253 297 q 221 247 229 276 q 226 192 213 217 q 282 160 239 167 l 535 119 q 668 60 631 106 q 706 -71 706 14 q 676 -196 706 -150 q 575 -261 646 -242 q 383 -281 504 -281 q 229 -270 292 -281 q 128 -235 167 -260 q 74 -172 90 -211 q 57 -75 57 -133 q 70 -1 57 -31 q 112 53 83 29 q 186 99 140 76 l 269 144 l 324 125 l 256 74 q 209 33 228 53 q 181 -10 190 13 q 172 -65 172 -33 q 190 -137 172 -112 q 254 -172 208 -162 q 382 -181 300 -181 q 509 -171 464 -181 q 572 -136 554 -161 q 590 -65 590 -111 q 581 -12 590 -31 q 547 15 572 6 q 474 32 522 25 l 231 65 q 162 93 188 71 q 126 146 136 115 q 121 208 117 176 q 142 266 125 239 q 185 307 158 293 m 524 978 l 585 969 q 564 874 589 915 q 492 810 539 833 q 376 786 444 786 q 262 810 310 786 q 190 874 214 833 q 168 969 165 915 l 229 978 q 267 901 228 929 q 378 874 306 874 q 485 901 447 874 q 524 978 524 929 z "},"ġ":{"ha":775,"x_min":57,"x_max":744,"o":"m 376 693 q 548 671 485 693 q 638 601 611 649 q 665 478 665 554 q 638 356 665 404 q 547 285 611 308 q 375 263 483 263 q 203 285 267 263 q 113 356 140 308 q 86 476 86 403 q 113 601 86 553 q 204 671 140 649 q 376 693 268 693 m 375 603 q 234 574 274 603 q 194 478 194 546 q 234 382 194 411 q 375 353 274 353 q 517 382 478 353 q 556 478 556 411 q 517 574 556 546 q 375 603 478 603 m 744 676 l 738 611 l 565 597 l 517 676 l 744 676 m 185 307 l 253 297 q 221 247 229 276 q 226 192 213 217 q 282 160 239 167 l 535 119 q 668 60 631 106 q 706 -71 706 14 q 676 -196 706 -150 q 575 -261 646 -242 q 383 -281 504 -281 q 229 -270 292 -281 q 128 -235 167 -260 q 74 -172 90 -211 q 57 -75 57 -133 q 70 -1 57 -31 q 112 53 83 29 q 186 99 140 76 l 269 144 l 324 125 l 256 74 q 209 33 228 53 q 181 -10 190 13 q 172 -65 172 -33 q 190 -137 172 -112 q 254 -172 208 -162 q 382 -181 300 -181 q 509 -171 464 -181 q 572 -136 554 -161 q 590 -65 590 -111 q 581 -12 590 -31 q 547 15 572 6 q 474 32 522 25 l 231 65 q 162 93 188 71 q 126 146 136 115 q 121 208 117 176 q 142 266 125 239 q 185 307 158 293 m 397 954 q 433 919 433 954 l 433 840 q 397 804 433 804 l 360 804 q 324 840 324 804 l 324 919 q 360 954 324 954 l 397 954 z "},"ģ":{"ha":775,"x_min":57,"x_max":744,"o":"m 379 775 q 347 783 356 775 q 339 813 339 792 l 339 889 q 345 955 340 924 q 360 1016 350 986 q 383 1072 369 1046 l 435 1058 q 424 991 428 1022 q 421 915 421 960 q 451 882 451 915 l 451 813 q 441 783 451 792 q 410 775 431 775 l 379 775 m 376 693 q 548 671 485 693 q 638 601 611 649 q 665 478 665 554 q 638 356 665 404 q 547 285 611 308 q 375 263 483 263 q 203 285 267 263 q 113 356 140 308 q 86 476 86 403 q 113 601 86 553 q 204 671 140 649 q 376 693 268 693 m 375 603 q 234 574 274 603 q 194 478 194 546 q 234 382 194 411 q 375 353 274 353 q 517 382 478 353 q 556 478 556 411 q 517 574 556 546 q 375 603 478 603 m 744 676 l 738 611 l 565 597 l 517 676 l 744 676 m 185 307 l 253 297 q 221 247 229 276 q 226 192 213 217 q 282 160 239 167 l 535 119 q 668 60 631 106 q 706 -71 706 14 q 676 -196 706 -150 q 575 -261 646 -242 q 383 -281 504 -281 q 229 -270 292 -281 q 128 -235 167 -260 q 74 -172 90 -211 q 57 -75 57 -133 q 70 -1 57 -31 q 112 53 83 29 q 186 99 140 76 l 269 144 l 324 125 l 256 74 q 209 33 228 53 q 181 -10 190 13 q 172 -65 172 -33 q 190 -137 172 -112 q 254 -172 208 -162 q 382 -181 300 -181 q 509 -171 464 -181 q 572 -136 554 -161 q 590 -65 590 -111 q 581 -12 590 -31 q 547 15 572 6 q 474 32 522 25 l 231 65 q 162 93 188 71 q 126 146 136 115 q 121 208 117 176 q 142 266 125 239 q 185 307 158 293 z "},"ĥ":{"ha":807,"x_min":-60,"x_max":703,"o":"m 519 693 q 703 507 703 693 l 703 0 l 583 0 l 583 474 q 562 567 583 542 q 488 593 540 593 q 363 564 425 593 q 214 479 300 535 l 208 564 q 365 658 288 624 q 519 693 443 693 m 226 972 l 228 704 q 224 618 228 658 q 214 547 221 578 l 226 526 l 226 0 l 108 0 l 108 972 l 226 972 m 208 1206 l 393 1029 l 351 978 l 172 1113 l 161 1113 l -19 978 l -60 1029 l 124 1206 l 208 1206 z "},"ħ":{"ha":813,"x_min":8,"x_max":708,"o":"m 435 864 l 435 796 l 8 796 l 8 864 l 435 864 m 525 693 q 708 507 708 693 l 708 0 l 589 0 l 589 474 q 567 567 589 542 q 493 593 546 593 q 368 564 431 593 q 219 479 306 535 l 214 564 q 371 658 293 624 q 525 693 449 693 m 232 972 l 233 704 q 230 618 233 658 q 219 547 226 578 l 232 526 l 232 0 l 114 0 l 114 972 l 232 972 z "},"ì":{"ha":346,"x_min":-54,"x_max":253,"o":"m 232 676 l 232 0 l 114 0 l 114 676 l 232 676 m 14 1019 l 253 817 l 213 763 l -54 929 l 14 1019 z "},"í":{"ha":346,"x_min":75,"x_max":382,"o":"m 232 676 l 232 0 l 114 0 l 114 676 l 232 676 m 314 1031 l 382 939 l 115 772 l 75 826 l 314 1031 z "},"î":{"ha":346,"x_min":-53,"x_max":400,"o":"m 232 676 l 232 0 l 114 0 l 114 676 l 232 676 m 215 994 l 400 818 l 358 767 l 179 901 l 168 901 l -12 767 l -53 818 l 131 994 l 215 994 z "},"ĩ":{"ha":346,"x_min":-51,"x_max":401,"o":"m 232 676 l 232 0 l 114 0 l 114 676 l 232 676 m 63 972 q 120 959 94 969 q 169 935 146 949 q 216 911 192 922 q 269 896 240 900 q 324 908 310 890 q 338 965 338 926 l 393 965 q 370 847 401 888 q 285 810 339 806 q 203 832 238 814 q 140 868 169 850 q 75 889 110 886 q 23 874 36 893 q 10 814 10 856 l -46 814 q -38 906 -51 869 q 2 958 -25 942 q 63 972 29 975 z "},"ï":{"ha":346,"x_min":-3,"x_max":349,"o":"m 232 676 l 232 0 l 114 0 l 114 676 l 232 676 m 315 958 q 349 925 349 958 l 349 849 q 315 815 349 815 l 276 815 q 243 849 243 815 l 243 925 q 276 958 243 958 l 315 958 m 69 958 q 101 925 101 958 l 101 849 q 69 815 101 815 l 29 815 q -3 849 -3 815 l -3 925 q 29 958 -3 958 l 69 958 z "},"ī":{"ha":346,"x_min":-19,"x_max":367,"o":"m 232 676 l 232 0 l 114 0 l 114 676 l 232 676 m 367 929 l 367 842 l -19 842 l -19 929 l 367 929 z "},"ĭ":{"ha":346,"x_min":-39,"x_max":385,"o":"m 232 676 l 232 0 l 114 0 l 114 676 l 232 676 m 319 978 l 381 969 q 360 874 385 915 q 288 810 335 833 q 172 786 240 786 q 58 810 106 786 q -15 874 10 833 q -36 969 -39 915 l 25 978 q 63 901 24 929 q 174 874 101 874 q 281 901 243 874 q 319 978 319 929 z "},"į":{"ha":346,"x_min":24,"x_max":242,"o":"m 232 676 l 232 0 l 114 0 l 114 676 l 232 676 m 193 954 q 229 919 229 954 l 229 840 q 193 804 229 804 l 156 804 q 119 840 119 804 l 119 919 q 156 954 119 954 l 193 954 m 169 3 l 222 0 q 165 -73 192 -35 q 119 -158 138 -111 q 131 -225 99 -210 q 228 -219 163 -240 l 242 -268 q 131 -297 176 -296 q 60 -279 86 -297 q 29 -230 35 -261 q 36 -162 24 -199 q 78 -86 47 -128 q 169 3 110 -44 z "},"ĳ":{"ha":692,"x_min":108,"x_max":582,"o":"m 231 676 l 231 0 l 114 0 l 114 676 l 231 676 m 200 964 q 236 928 236 964 l 236 849 q 200 813 236 813 l 144 813 q 108 849 108 813 l 108 928 q 144 964 108 964 l 200 964 m 578 676 l 578 -17 q 562 -120 578 -71 q 517 -210 546 -169 q 447 -282 488 -251 l 382 -231 q 441 -132 422 -182 q 460 -17 460 -82 l 460 676 l 578 676 m 547 964 q 582 928 582 964 l 582 849 q 547 813 582 813 l 492 813 q 456 849 456 813 l 456 928 q 492 964 456 964 l 547 964 z "},"ĵ":{"ha":347,"x_min":-53,"x_max":400,"o":"m 233 676 l 233 -17 q 217 -120 233 -71 q 172 -210 201 -169 q 103 -282 143 -251 l 38 -231 q 97 -132 78 -182 q 115 -17 115 -82 l 115 676 l 233 676 m 215 994 l 400 818 l 358 767 l 179 901 l 168 901 l -12 767 l -53 818 l 131 994 l 215 994 z "},"ķ":{"ha":707,"x_min":108,"x_max":683,"o":"m 399 -82 q 431 -90 422 -82 q 439 -119 439 -99 l 439 -196 q 433 -262 438 -231 q 418 -323 428 -293 q 394 -379 408 -353 l 343 -365 q 353 -298 350 -329 q 357 -222 357 -267 q 326 -189 326 -222 l 326 -119 q 337 -90 326 -99 q 368 -82 347 -82 l 399 -82 m 661 676 l 449 428 q 425 402 439 415 q 401 382 411 389 l 401 379 q 425 356 411 372 q 449 325 439 340 l 683 0 l 546 0 l 278 388 l 524 676 l 661 676 m 226 972 l 228 540 q 224 460 228 497 q 214 383 221 424 q 224 306 221 344 q 226 231 226 267 l 226 0 l 108 0 l 108 972 l 226 972 m 342 425 l 342 339 l 185 339 l 185 425 l 342 425 z "},"ĺ":{"ha":413,"x_min":69,"x_max":399,"o":"m 228 972 l 226 186 q 251 119 226 142 q 319 96 275 96 l 385 96 l 399 6 q 363 -4 386 0 q 316 -10 340 -8 q 275 -12 292 -12 q 155 32 200 -12 q 110 160 110 76 l 110 972 l 228 972 m 308 1303 l 376 1211 l 110 1044 l 69 1099 l 308 1303 z "},"ļ":{"ha":413,"x_min":110,"x_max":399,"o":"m 256 -85 q 288 -93 279 -85 q 296 -122 296 -101 l 296 -199 q 290 -265 294 -233 q 275 -326 285 -296 q 251 -382 265 -356 l 200 -368 q 210 -301 207 -332 q 214 -225 214 -269 q 183 -192 183 -225 l 183 -122 q 194 -93 183 -101 q 225 -85 204 -85 l 256 -85 m 228 972 l 226 186 q 251 119 226 142 q 319 96 275 96 l 385 96 l 399 6 q 363 -4 386 0 q 316 -10 340 -8 q 275 -12 292 -12 q 155 32 200 -12 q 110 160 110 76 l 110 972 l 228 972 z "},"ľ":{"ha":413,"x_min":110,"x_max":418,"o":"m 228 972 l 226 186 q 251 119 226 142 q 319 96 275 96 l 385 96 l 399 6 q 363 -4 386 0 q 316 -10 340 -8 q 275 -12 292 -12 q 155 32 200 -12 q 110 160 110 76 l 110 972 l 228 972 m 378 975 q 409 967 401 975 q 417 939 417 958 l 417 864 q 406 771 418 815 q 374 686 393 726 l 322 699 q 332 765 329 735 q 335 839 335 796 q 306 869 306 839 l 306 939 q 315 967 306 958 q 347 975 325 975 l 378 975 z "},"ŀ":{"ha":444,"x_min":110,"x_max":442,"o":"m 368 467 q 332 501 332 467 l 332 581 q 368 617 332 617 l 406 617 q 442 581 442 617 l 442 501 q 406 467 442 467 l 368 467 m 228 972 l 226 186 q 251 119 226 142 q 319 96 275 96 l 385 96 l 399 6 q 363 -4 386 0 q 316 -10 340 -8 q 275 -12 292 -12 q 155 32 200 -12 q 110 160 110 76 l 110 972 l 228 972 z "},"ł":{"ha":456,"x_min":29,"x_max":429,"o":"m 408 653 l 408 576 l 29 418 l 29 494 l 408 653 m 258 972 l 257 186 q 281 119 257 142 q 350 96 306 96 l 415 96 l 429 6 q 394 -4 417 0 q 347 -10 371 -8 q 306 -12 322 -12 q 185 32 231 -12 q 140 160 140 76 l 140 972 l 258 972 z "},"ñ":{"ha":807,"x_min":108,"x_max":703,"o":"m 519 693 q 703 507 703 693 l 703 0 l 585 0 l 585 474 q 563 567 585 542 q 488 593 540 593 q 363 563 425 593 q 214 479 300 532 l 208 564 q 365 659 288 625 q 519 693 443 693 m 208 676 l 218 547 l 226 526 l 226 0 l 108 0 l 108 676 l 208 676 m 310 971 q 367 958 342 968 q 416 934 393 947 q 463 910 439 921 q 517 894 488 899 q 571 907 557 889 q 585 964 585 925 l 640 964 q 617 845 649 886 q 532 808 586 804 q 451 831 485 813 q 387 867 417 849 q 322 888 357 885 q 270 873 283 892 q 257 813 257 854 l 201 813 q 209 904 196 868 q 249 957 222 940 q 310 971 276 974 z "},"ń":{"ha":807,"x_min":108,"x_max":703,"o":"m 519 693 q 703 507 703 693 l 703 0 l 585 0 l 585 474 q 563 567 585 542 q 488 593 540 593 q 363 563 425 593 q 214 479 300 532 l 208 564 q 365 659 288 625 q 519 693 443 693 m 208 676 l 218 547 l 226 526 l 226 0 l 108 0 l 108 676 l 208 676 m 561 1029 l 629 938 l 363 771 l 322 825 l 561 1029 z "},"ņ":{"ha":807,"x_min":108,"x_max":703,"o":"m 419 -82 q 451 -90 443 -82 q 460 -119 460 -99 l 460 -196 q 453 -262 458 -231 q 439 -323 449 -293 q 415 -379 429 -353 l 364 -365 q 374 -298 371 -329 q 378 -222 378 -267 q 347 -189 347 -222 l 347 -119 q 358 -90 347 -99 q 389 -82 368 -82 l 419 -82 m 519 693 q 703 507 703 693 l 703 0 l 585 0 l 585 474 q 563 567 585 542 q 488 593 540 593 q 363 563 425 593 q 214 479 300 532 l 208 564 q 365 659 288 625 q 519 693 443 693 m 208 676 l 218 547 l 226 526 l 226 0 l 108 0 l 108 676 l 208 676 z "},"ň":{"ha":807,"x_min":108,"x_max":703,"o":"m 519 693 q 703 507 703 693 l 703 0 l 585 0 l 585 474 q 563 567 585 542 q 488 593 540 593 q 363 563 425 593 q 214 479 300 532 l 208 564 q 365 659 288 625 q 519 693 443 693 m 208 676 l 218 547 l 226 526 l 226 0 l 108 0 l 108 676 l 208 676 m 608 1014 l 650 964 l 451 786 l 396 786 l 197 964 l 238 1014 l 418 893 l 429 893 l 608 1014 z "},"ŋ":{"ha":807,"x_min":108,"x_max":703,"o":"m 518 693 q 703 507 703 693 l 703 -94 q 659 -237 703 -187 q 531 -285 615 -286 q 493 -283 514 -285 q 451 -276 472 -281 q 411 -267 431 -272 l 425 -192 l 485 -192 q 585 -85 585 -192 l 585 474 q 563 559 585 533 q 485 585 540 585 q 365 558 429 585 q 226 486 301 531 l 226 0 l 108 0 l 108 676 l 200 676 l 211 565 q 367 660 290 628 q 518 693 444 693 z "},"ò":{"ha":789,"x_min":76,"x_max":713,"o":"m 394 693 q 581 658 511 693 q 682 545 651 624 q 713 338 713 467 q 682 130 713 208 q 581 17 651 51 q 394 -18 511 -18 q 209 17 279 -18 q 108 130 139 51 q 76 338 76 208 q 108 545 76 467 q 209 658 139 624 q 394 693 279 693 m 394 593 q 278 570 321 593 q 218 492 236 547 q 200 338 200 436 q 218 183 200 239 q 278 105 236 128 q 394 82 321 82 q 511 105 468 82 q 572 183 554 128 q 590 338 590 239 q 572 492 590 436 q 511 570 554 547 q 394 593 468 593 m 238 1013 l 476 810 l 436 756 l 169 922 l 238 1013 z "},"ó":{"ha":789,"x_min":76,"x_max":713,"o":"m 394 693 q 581 658 511 693 q 682 545 651 624 q 713 338 713 467 q 682 130 713 208 q 581 17 651 51 q 394 -18 511 -18 q 209 17 279 -18 q 108 130 139 51 q 76 338 76 208 q 108 545 76 467 q 209 658 139 624 q 394 693 279 693 m 394 593 q 278 570 321 593 q 218 492 236 547 q 200 338 200 436 q 218 183 200 239 q 278 105 236 128 q 394 82 321 82 q 511 105 468 82 q 572 183 554 128 q 590 338 590 239 q 572 492 590 436 q 511 570 554 547 q 394 593 468 593 m 536 1024 l 604 932 l 338 765 l 297 819 l 536 1024 z "},"ô":{"ha":789,"x_min":76,"x_max":713,"o":"m 394 693 q 581 658 511 693 q 682 545 651 624 q 713 338 713 467 q 682 130 713 208 q 581 17 651 51 q 394 -18 511 -18 q 209 17 279 -18 q 108 130 139 51 q 76 338 76 208 q 108 545 76 467 q 209 658 139 624 q 394 693 279 693 m 394 593 q 278 570 321 593 q 218 492 236 547 q 200 338 200 436 q 218 183 200 239 q 278 105 236 128 q 394 82 321 82 q 511 105 468 82 q 572 183 554 128 q 590 338 590 239 q 572 492 590 436 q 511 570 554 547 q 394 593 468 593 m 439 989 l 624 813 l 582 761 l 403 896 l 392 896 l 211 761 l 171 813 l 354 989 l 439 989 z "},"õ":{"ha":789,"x_min":76,"x_max":713,"o":"m 394 693 q 581 658 511 693 q 682 545 651 624 q 713 338 713 467 q 682 130 713 208 q 581 17 651 51 q 394 -18 511 -18 q 209 17 279 -18 q 108 130 139 51 q 76 338 76 208 q 108 545 76 467 q 209 658 139 624 q 394 693 279 693 m 394 593 q 278 570 321 593 q 218 492 236 547 q 200 338 200 436 q 218 183 200 239 q 278 105 236 128 q 394 82 321 82 q 511 105 468 82 q 572 183 554 128 q 590 338 590 239 q 572 492 590 436 q 511 570 554 547 q 394 593 468 593 m 285 965 q 342 952 317 963 q 391 928 368 942 q 438 904 414 915 q 492 889 463 893 q 546 901 532 883 q 560 958 560 919 l 615 958 q 592 840 624 881 q 507 803 561 799 q 426 825 460 807 q 362 861 392 843 q 297 882 332 879 q 245 867 258 886 q 232 807 232 849 l 176 807 q 184 899 171 863 q 224 951 197 935 q 285 965 251 968 z "},"ö":{"ha":789,"x_min":76,"x_max":713,"o":"m 394 693 q 581 658 511 693 q 682 545 651 624 q 713 338 713 467 q 682 130 713 208 q 581 17 651 51 q 394 -18 511 -18 q 209 17 279 -18 q 108 130 139 51 q 76 338 76 208 q 108 545 76 467 q 209 658 139 624 q 394 693 279 693 m 394 593 q 278 570 321 593 q 218 492 236 547 q 200 338 200 436 q 218 183 200 239 q 278 105 236 128 q 394 82 321 82 q 511 105 468 82 q 572 183 554 128 q 590 338 590 239 q 572 492 590 436 q 511 570 554 547 q 394 593 468 593 m 539 953 q 572 919 572 953 l 572 843 q 539 810 572 810 l 500 810 q 467 843 467 810 l 467 919 q 500 953 467 953 l 539 953 m 293 953 q 325 919 325 953 l 325 843 q 293 810 325 810 l 253 810 q 221 843 221 810 l 221 919 q 253 953 221 953 l 293 953 z "},"ō":{"ha":789,"x_min":76,"x_max":713,"o":"m 394 693 q 581 658 511 693 q 682 545 651 624 q 713 338 713 467 q 682 130 713 208 q 581 17 651 51 q 394 -18 511 -18 q 209 17 279 -18 q 108 130 139 51 q 76 338 76 208 q 108 545 76 467 q 209 658 139 624 q 394 693 279 693 m 394 593 q 278 570 321 593 q 218 492 236 547 q 200 338 200 436 q 218 183 200 239 q 278 105 236 128 q 394 82 321 82 q 511 105 468 82 q 572 183 554 128 q 590 338 590 239 q 572 492 590 436 q 511 570 554 547 q 394 593 468 593 m 590 924 l 590 836 l 204 836 l 204 924 l 590 924 z "},"ŏ":{"ha":789,"x_min":76,"x_max":713,"o":"m 394 693 q 581 658 511 693 q 682 545 651 624 q 713 338 713 467 q 682 130 713 208 q 581 17 651 51 q 394 -18 511 -18 q 209 17 279 -18 q 108 130 139 51 q 76 338 76 208 q 108 545 76 467 q 209 658 139 624 q 394 693 279 693 m 394 593 q 278 570 321 593 q 218 492 236 547 q 200 338 200 436 q 218 183 200 239 q 278 105 236 128 q 394 82 321 82 q 511 105 468 82 q 572 183 554 128 q 590 338 590 239 q 572 492 590 436 q 511 570 554 547 q 394 593 468 593 m 543 971 l 604 963 q 583 867 608 908 q 511 803 558 826 q 396 779 464 779 q 281 803 329 779 q 209 867 233 826 q 188 963 185 908 l 249 971 q 286 894 247 922 q 397 867 325 867 q 505 894 467 867 q 543 971 543 922 z "},"ő":{"ha":789,"x_min":76,"x_max":713,"o":"m 394 693 q 581 658 511 693 q 682 545 651 624 q 713 338 713 467 q 682 130 713 208 q 581 17 651 51 q 394 -18 511 -18 q 209 17 279 -18 q 108 130 139 51 q 76 338 76 208 q 108 545 76 467 q 209 658 139 624 q 394 693 279 693 m 394 593 q 278 570 321 593 q 218 492 236 547 q 200 338 200 436 q 218 183 200 239 q 278 105 236 128 q 394 82 321 82 q 511 105 468 82 q 572 183 554 128 q 590 338 590 239 q 572 492 590 436 q 511 570 554 547 q 394 593 468 593 m 357 1038 l 443 979 l 257 757 l 204 796 l 357 1038 m 585 1038 l 671 979 l 485 757 l 432 796 l 585 1038 z "},"ø":{"ha":789,"x_min":76,"x_max":713,"o":"m 563 778 l 617 751 l 218 -104 l 164 -78 l 563 778 m 394 693 q 581 658 511 693 q 682 545 651 624 q 713 338 713 467 q 682 130 713 208 q 581 17 651 51 q 394 -18 511 -18 q 209 17 279 -18 q 108 130 139 51 q 76 338 76 208 q 108 545 76 467 q 209 658 139 624 q 394 693 279 693 m 394 593 q 278 570 321 593 q 218 492 236 547 q 200 338 200 436 q 218 183 200 239 q 278 105 236 128 q 394 82 321 82 q 511 105 468 82 q 572 183 554 128 q 590 338 590 239 q 572 492 590 436 q 511 570 554 547 q 394 593 468 593 z "},"œ":{"ha":1260,"x_min":76,"x_max":1192,"o":"m 394 -18 q 209 17 279 -18 q 108 130 139 51 q 76 338 76 208 q 108 545 76 467 q 209 658 139 624 q 394 693 279 693 q 581 658 511 693 q 682 545 651 624 q 713 338 713 467 q 682 130 713 208 q 581 17 651 51 q 394 -18 511 -18 m 394 82 q 511 105 468 82 q 572 183 554 128 q 590 338 590 239 q 572 492 590 436 q 511 570 554 547 q 394 593 468 593 q 278 570 321 593 q 218 492 236 547 q 200 338 200 436 q 218 183 200 239 q 278 105 236 128 q 394 82 321 82 m 911 -17 q 724 19 794 -17 q 621 133 653 54 q 589 343 589 213 q 619 549 589 472 q 717 659 650 625 q 893 693 785 693 q 1121 638 1051 693 q 1192 485 1190 582 q 1170 365 1192 408 q 1103 304 1149 322 q 981 286 1057 286 l 633 286 l 633 374 l 974 374 q 1053 399 1031 374 q 1072 486 1075 424 q 1028 567 1069 540 q 896 593 986 593 q 786 571 826 593 q 729 495 746 549 q 713 347 713 442 q 734 182 713 239 q 803 104 756 125 q 929 83 850 83 q 1047 88 982 83 q 1163 100 1111 93 l 1174 21 q 1097 0 1143 8 q 1001 -12 1050 -8 q 911 -17 951 -17 z "},"ŕ":{"ha":557,"x_min":108,"x_max":532,"o":"m 200 676 l 215 547 l 226 526 l 226 0 l 108 0 l 108 676 l 200 676 m 532 693 l 518 582 l 479 582 q 360 558 419 582 q 214 489 300 533 l 204 563 q 355 658 279 624 q 501 693 431 693 l 532 693 m 446 1031 l 514 939 l 247 772 l 207 826 l 446 1031 z "},"ŗ":{"ha":557,"x_min":100,"x_max":532,"o":"m 172 -82 q 204 -90 196 -82 q 213 -119 213 -99 l 213 -196 q 206 -262 211 -231 q 192 -323 201 -293 q 168 -379 182 -353 l 117 -365 q 127 -298 124 -329 q 131 -222 131 -267 q 100 -189 100 -222 l 100 -119 q 110 -90 100 -99 q 142 -82 121 -82 l 172 -82 m 200 676 l 215 547 l 226 526 l 226 0 l 108 0 l 108 676 l 200 676 m 532 693 l 518 582 l 479 582 q 360 558 419 582 q 214 489 300 533 l 204 563 q 355 658 279 624 q 501 693 431 693 l 532 693 z "},"ř":{"ha":557,"x_min":82,"x_max":535,"o":"m 200 676 l 215 547 l 226 526 l 226 0 l 108 0 l 108 676 l 200 676 m 532 693 l 518 582 l 479 582 q 360 558 419 582 q 214 489 300 533 l 204 563 q 355 658 279 624 q 501 693 431 693 l 532 693 m 493 1015 l 535 965 l 336 788 l 281 788 l 82 965 l 122 1015 l 303 894 l 314 894 l 493 1015 z "},"ś":{"ha":706,"x_min":69,"x_max":638,"o":"m 333 693 q 428 690 378 693 q 527 683 478 688 q 618 672 576 679 l 608 586 q 480 591 544 589 q 351 593 415 593 q 253 590 289 594 q 201 568 217 586 q 185 507 185 550 q 210 438 185 454 q 283 410 235 421 l 481 365 q 599 306 561 346 q 638 179 638 265 q 606 54 638 96 q 511 -1 575 13 q 349 -15 447 -15 q 241 -12 313 -15 q 83 4 169 -10 l 92 90 q 163 87 125 89 q 241 85 200 85 q 325 85 282 85 q 444 92 401 85 q 506 119 488 99 q 524 179 524 139 q 494 246 524 229 q 417 274 465 263 l 222 318 q 133 355 167 332 q 85 415 100 378 q 69 507 69 451 q 97 626 69 586 q 183 681 125 667 q 333 693 242 694 m 499 1031 l 567 939 l 300 772 l 260 826 l 499 1031 z "},"ŝ":{"ha":706,"x_min":69,"x_max":638,"o":"m 333 693 q 428 690 378 693 q 527 683 478 688 q 618 672 576 679 l 608 586 q 480 591 544 589 q 351 593 415 593 q 253 590 289 594 q 201 568 217 586 q 185 507 185 550 q 210 438 185 454 q 283 410 235 421 l 481 365 q 599 306 561 346 q 638 179 638 265 q 606 54 638 96 q 511 -1 575 13 q 349 -15 447 -15 q 241 -12 313 -15 q 83 4 169 -10 l 92 90 q 163 87 125 89 q 241 85 200 85 q 325 85 282 85 q 444 92 401 85 q 506 119 488 99 q 524 179 524 139 q 494 246 524 229 q 417 274 465 263 l 222 318 q 133 355 167 332 q 85 415 100 378 q 69 507 69 451 q 97 626 69 586 q 183 681 125 667 q 333 693 242 694 m 400 994 l 585 818 l 543 767 l 364 901 l 353 901 l 172 767 l 132 818 l 315 994 l 400 994 z "},"ş":{"ha":706,"x_min":69,"x_max":638,"o":"m 333 693 q 428 690 378 693 q 527 683 478 688 q 618 672 576 679 l 608 586 q 480 591 544 589 q 351 593 415 593 q 253 590 289 594 q 201 568 217 586 q 185 507 185 550 q 210 438 185 454 q 283 410 235 421 l 481 365 q 599 306 561 346 q 638 179 638 265 q 606 54 638 96 q 511 -1 575 13 q 349 -15 447 -15 q 241 -12 313 -15 q 83 4 169 -10 l 92 90 q 163 87 125 89 q 241 85 200 85 q 325 85 282 85 q 444 92 401 85 q 506 119 488 99 q 524 179 524 139 q 494 246 524 229 q 417 274 465 263 l 222 318 q 133 355 167 332 q 85 415 100 378 q 69 507 69 451 q 97 626 69 586 q 183 681 125 667 q 333 693 242 694 m 286 -75 q 374 -76 340 -69 q 425 -103 408 -82 q 440 -165 442 -124 q 408 -265 439 -224 q 326 -324 378 -306 q 208 -333 275 -342 l 226 -271 q 319 -245 283 -272 q 356 -175 354 -218 q 340 -141 357 -150 q 274 -131 324 -132 l 286 -75 z "},"š":{"ha":706,"x_min":69,"x_max":638,"o":"m 333 693 q 428 690 378 693 q 527 683 478 688 q 618 672 576 679 l 608 586 q 480 591 544 589 q 351 593 415 593 q 253 590 289 594 q 201 568 217 586 q 185 507 185 550 q 210 438 185 454 q 283 410 235 421 l 481 365 q 599 306 561 346 q 638 179 638 265 q 606 54 638 96 q 511 -1 575 13 q 349 -15 447 -15 q 241 -12 313 -15 q 83 4 169 -10 l 92 90 q 163 87 125 89 q 241 85 200 85 q 325 85 282 85 q 444 92 401 85 q 506 119 488 99 q 524 179 524 139 q 494 246 524 229 q 417 274 465 263 l 222 318 q 133 355 167 332 q 85 415 100 378 q 69 507 69 451 q 97 626 69 586 q 183 681 125 667 q 333 693 242 694 m 546 1015 l 588 965 l 389 788 l 333 788 l 135 965 l 175 1015 l 356 894 l 367 894 l 546 1015 z "},"ș":{"ha":706,"x_min":69,"x_max":638,"o":"m 378 -82 q 410 -90 401 -82 q 418 -119 418 -99 l 418 -196 q 412 -262 417 -231 q 397 -323 407 -293 q 374 -379 388 -353 l 322 -365 q 333 -298 329 -329 q 336 -222 336 -267 q 306 -189 306 -222 l 306 -119 q 316 -90 306 -99 q 347 -82 326 -82 l 378 -82 m 333 693 q 428 690 378 693 q 527 683 478 688 q 618 672 576 679 l 608 586 q 480 591 544 589 q 351 593 415 593 q 253 590 289 594 q 201 568 217 586 q 185 507 185 550 q 210 438 185 454 q 283 410 235 421 l 481 365 q 599 306 561 346 q 638 179 638 265 q 606 54 638 96 q 511 -1 575 13 q 349 -15 447 -15 q 241 -12 313 -15 q 83 4 169 -10 l 92 90 q 163 87 125 89 q 241 85 200 85 q 325 85 282 85 q 444 92 401 85 q 506 119 488 99 q 524 179 524 139 q 494 246 524 229 q 417 274 465 263 l 222 318 q 133 355 167 332 q 85 415 100 378 q 69 507 69 451 q 97 626 69 586 q 183 681 125 667 q 333 693 242 694 z "},"ß":{"ha":938,"x_min":39,"x_max":886,"o":"m 474 1001 q 654 985 585 1001 q 756 928 724 968 q 788 818 788 889 q 778 751 788 781 q 742 693 768 721 q 667 636 717 665 q 592 595 624 611 q 545 561 561 579 q 529 510 529 543 q 553 456 529 474 q 619 419 576 439 l 764 356 q 833 314 807 336 q 873 259 860 292 q 886 175 886 226 q 858 55 886 96 q 776 -1 831 14 q 640 -15 721 -15 q 541 -12 597 -15 q 418 0 485 -10 l 425 89 q 528 83 478 85 q 618 82 578 82 q 706 89 672 83 q 755 115 739 94 q 771 181 771 136 q 760 230 771 213 q 729 260 750 247 q 678 286 708 272 l 531 351 q 448 412 479 375 q 417 507 417 449 q 440 591 417 560 q 503 644 464 622 q 588 692 542 667 q 657 745 638 719 q 676 814 676 771 q 660 864 676 844 q 601 894 643 883 q 479 904 558 904 q 359 891 403 904 q 297 843 315 878 q 279 742 279 808 l 279 0 l 161 0 l 161 754 q 183 885 161 836 q 244 959 204 933 q 342 993 285 985 q 474 1001 400 1001 m 222 676 l 222 582 l 39 582 l 39 674 l 167 676 l 222 676 z "},"ț":{"ha":529,"x_min":38,"x_max":493,"o":"m 344 -82 q 376 -90 368 -82 q 385 -119 385 -99 l 385 -196 q 378 -262 383 -231 q 364 -323 374 -293 q 340 -379 354 -353 l 289 -365 q 299 -298 296 -329 q 303 -222 303 -267 q 272 -189 272 -222 l 272 -119 q 283 -90 272 -99 q 314 -82 293 -82 l 344 -82 m 278 876 l 278 186 q 299 117 278 138 q 369 96 319 96 l 472 96 l 486 6 q 435 -4 464 0 q 378 -10 406 -8 q 333 -12 350 -12 q 204 35 249 -12 q 160 171 160 82 l 160 876 l 278 876 m 493 676 l 493 583 l 38 583 l 38 669 l 171 676 l 493 676 z "},"ť":{"ha":529,"x_min":38,"x_max":493,"o":"m 278 876 l 278 186 q 299 117 278 138 q 369 96 319 96 l 472 96 l 486 6 q 435 -4 464 0 q 378 -10 406 -8 q 333 -12 350 -12 q 204 35 249 -12 q 160 171 160 82 l 160 876 l 278 876 m 493 676 l 493 583 l 38 583 l 38 669 l 171 676 l 493 676 m 449 1053 q 480 1044 472 1053 q 488 1017 488 1036 l 488 942 q 476 849 489 893 q 444 764 464 804 l 393 776 q 403 843 400 813 q 406 917 406 874 q 376 947 376 917 l 376 1017 q 386 1044 376 1036 q 418 1053 396 1053 l 449 1053 z "},"ŧ":{"ha":529,"x_min":38,"x_max":493,"o":"m 458 424 l 458 357 l 69 357 l 69 424 l 458 424 m 278 876 l 278 186 q 299 117 278 138 q 369 96 319 96 l 472 96 l 486 6 q 435 -4 464 0 q 378 -10 406 -8 q 333 -12 350 -12 q 204 35 249 -12 q 160 171 160 82 l 160 876 l 278 876 m 493 676 l 493 583 l 38 583 l 38 669 l 171 676 l 493 676 z "},"ţ":{"ha":529,"x_min":38,"x_max":493,"o":"m 278 876 l 278 186 q 299 117 278 138 q 369 96 319 96 l 472 96 l 486 6 q 435 -4 464 0 q 378 -10 406 -8 q 333 -12 350 -12 q 204 35 249 -12 q 160 171 160 82 l 160 876 l 278 876 m 493 676 l 493 583 l 38 583 l 38 669 l 171 676 l 493 676 m 283 -72 q 372 -73 338 -67 q 422 -100 406 -79 q 438 -162 439 -121 q 406 -262 436 -221 q 324 -321 375 -303 q 206 -331 272 -339 l 224 -268 q 316 -242 281 -269 q 353 -172 351 -215 q 338 -138 354 -147 q 271 -128 321 -129 l 283 -72 z "},"þ":{"ha":797,"x_min":108,"x_max":718,"o":"m 475 693 q 663 608 607 693 q 718 333 718 522 q 692 126 718 203 q 612 15 667 49 q 471 -18 557 -18 q 327 2 399 -18 q 190 63 256 22 l 213 136 q 331 95 278 110 q 433 81 383 81 q 528 103 493 81 q 580 182 564 126 q 596 335 596 238 q 580 489 596 433 q 529 568 564 544 q 438 592 494 592 q 334 566 386 592 q 221 494 282 540 l 194 572 q 324 660 256 628 q 475 693 392 693 m 226 972 l 226 736 q 226 660 226 696 q 221 585 225 624 l 226 568 l 226 85 l 221 68 q 226 -7 225 29 q 226 -83 226 -43 l 226 -279 l 108 -279 l 108 972 l 226 972 z "},"ù":{"ha":792,"x_min":104,"x_max":683,"o":"m 222 676 l 222 201 q 246 111 221 138 q 329 85 271 85 q 442 112 386 85 q 578 190 499 139 l 593 108 q 440 14 514 46 q 289 -18 365 -18 q 104 168 104 -18 l 104 676 l 222 676 m 683 676 l 683 0 l 589 0 l 578 128 l 565 149 l 565 676 l 683 676 m 236 1022 l 475 819 l 435 765 l 168 932 l 236 1022 z "},"ú":{"ha":792,"x_min":104,"x_max":683,"o":"m 222 676 l 222 201 q 246 111 221 138 q 329 85 271 85 q 442 112 386 85 q 578 190 499 139 l 593 108 q 440 14 514 46 q 289 -18 365 -18 q 104 168 104 -18 l 104 676 l 222 676 m 683 676 l 683 0 l 589 0 l 578 128 l 565 149 l 565 676 l 683 676 m 536 1033 l 604 942 l 338 775 l 297 829 l 536 1033 z "},"û":{"ha":792,"x_min":104,"x_max":683,"o":"m 222 676 l 222 201 q 246 111 221 138 q 329 85 271 85 q 442 112 386 85 q 578 190 499 139 l 593 108 q 440 14 514 46 q 289 -18 365 -18 q 104 168 104 -18 l 104 676 l 222 676 m 683 676 l 683 0 l 589 0 l 578 128 l 565 149 l 565 676 l 683 676 m 438 999 l 622 822 l 581 771 l 401 906 l 390 906 l 210 771 l 169 822 l 353 999 l 438 999 z "},"ũ":{"ha":792,"x_min":104,"x_max":683,"o":"m 222 676 l 222 201 q 246 111 221 138 q 329 85 271 85 q 442 112 386 85 q 578 190 499 139 l 593 108 q 440 14 514 46 q 289 -18 365 -18 q 104 168 104 -18 l 104 676 l 222 676 m 683 676 l 683 0 l 589 0 l 578 128 l 565 149 l 565 676 l 683 676 m 285 976 q 342 963 317 974 q 391 940 368 953 q 438 915 414 926 q 492 900 463 904 q 546 913 532 894 q 560 969 560 931 l 615 969 q 592 851 624 892 q 507 814 561 810 q 426 836 460 818 q 362 872 392 854 q 297 893 332 890 q 245 878 258 897 q 232 818 232 860 l 176 818 q 184 910 171 874 q 224 963 197 946 q 285 976 251 979 z "},"ü":{"ha":792,"x_min":104,"x_max":683,"o":"m 222 676 l 222 201 q 246 111 221 138 q 329 85 271 85 q 442 112 386 85 q 578 190 499 139 l 593 108 q 440 14 514 46 q 289 -18 365 -18 q 104 168 104 -18 l 104 676 l 222 676 m 683 676 l 683 0 l 589 0 l 578 128 l 565 149 l 565 676 l 683 676 m 539 963 q 572 929 572 963 l 572 853 q 539 819 572 819 l 500 819 q 467 853 467 819 l 467 929 q 500 963 467 963 l 539 963 m 293 963 q 325 929 325 963 l 325 853 q 293 819 325 819 l 253 819 q 221 853 221 819 l 221 929 q 253 963 221 963 l 293 963 z "},"ū":{"ha":792,"x_min":104,"x_max":683,"o":"m 222 676 l 222 201 q 246 111 221 138 q 329 85 271 85 q 442 112 386 85 q 578 190 499 139 l 593 108 q 440 14 514 46 q 289 -18 365 -18 q 104 168 104 -18 l 104 676 l 222 676 m 683 676 l 683 0 l 589 0 l 578 128 l 565 149 l 565 676 l 683 676 m 589 933 l 589 846 l 203 846 l 203 933 l 589 933 z "},"ŭ":{"ha":792,"x_min":104,"x_max":683,"o":"m 222 676 l 222 201 q 246 111 221 138 q 329 85 271 85 q 442 112 386 85 q 578 190 499 139 l 593 108 q 440 14 514 46 q 289 -18 365 -18 q 104 168 104 -18 l 104 676 l 222 676 m 683 676 l 683 0 l 589 0 l 578 128 l 565 149 l 565 676 l 683 676 m 542 982 l 603 974 q 582 878 607 919 q 510 814 557 838 q 394 790 463 790 q 280 814 328 790 q 208 878 232 838 q 186 974 183 919 l 247 982 q 285 906 246 933 q 396 878 324 878 q 503 906 465 878 q 542 982 542 933 z "},"ů":{"ha":792,"x_min":104,"x_max":683,"o":"m 222 676 l 222 201 q 246 111 221 138 q 329 85 271 85 q 442 112 386 85 q 578 190 499 139 l 593 108 q 440 14 514 46 q 289 -18 365 -18 q 104 168 104 -18 l 104 676 l 222 676 m 683 676 l 683 0 l 589 0 l 578 128 l 565 149 l 565 676 l 683 676 m 396 1049 q 470 1029 436 1049 q 524 977 504 1010 q 544 903 544 944 q 524 829 544 863 q 471 776 504 796 q 396 757 438 757 q 322 776 356 757 q 267 828 288 796 q 247 903 247 861 q 267 977 247 944 q 322 1029 288 1010 q 396 1049 356 1049 m 396 988 q 338 965 361 988 q 314 903 314 942 q 338 841 314 864 q 396 818 361 818 q 456 841 432 818 q 479 903 479 864 q 456 965 479 942 q 396 988 432 988 z "},"ű":{"ha":792,"x_min":104,"x_max":683,"o":"m 222 676 l 222 201 q 246 111 221 138 q 329 85 271 85 q 442 112 386 85 q 578 190 499 139 l 593 108 q 440 14 514 46 q 289 -18 365 -18 q 104 168 104 -18 l 104 676 l 222 676 m 683 676 l 683 0 l 589 0 l 578 128 l 565 149 l 565 676 l 683 676 m 356 1047 l 442 989 l 256 767 l 203 806 l 356 1047 m 583 1047 l 669 989 l 483 767 l 431 806 l 583 1047 z "},"ų":{"ha":792,"x_min":104,"x_max":706,"o":"m 222 676 l 222 201 q 246 111 221 138 q 329 85 271 85 q 442 112 386 85 q 578 190 499 139 l 593 108 q 440 14 514 46 q 289 -18 365 -18 q 104 168 104 -18 l 104 676 l 222 676 m 683 676 l 683 0 l 589 0 l 578 128 l 565 149 l 565 676 l 683 676 m 633 3 l 686 0 q 628 -73 656 -35 q 583 -158 601 -111 q 594 -225 563 -210 q 692 -219 626 -240 l 706 -268 q 595 -297 640 -296 q 524 -279 550 -297 q 493 -230 499 -261 q 500 -162 488 -199 q 542 -86 511 -128 q 633 3 574 -44 z "},"ẁ":{"ha":1144,"x_min":35,"x_max":1110,"o":"m 1110 676 l 913 33 q 896 9 908 18 q 867 0 883 0 l 760 0 q 730 10 743 0 q 714 38 717 21 l 603 497 q 592 550 597 524 q 581 604 588 576 l 564 604 q 552 550 558 576 q 540 497 546 524 l 431 38 q 414 10 426 21 q 383 0 401 0 l 278 0 q 249 9 261 0 q 232 33 236 18 l 35 676 l 157 676 l 297 178 q 310 127 304 153 q 319 76 315 101 l 338 76 q 351 127 344 101 q 363 178 357 153 l 475 639 q 490 666 478 656 q 519 676 501 676 l 626 676 q 655 666 643 676 q 671 638 667 656 l 782 178 q 794 128 788 153 q 806 76 800 103 l 824 76 q 835 127 831 103 q 847 178 839 151 l 988 676 l 1110 676 m 414 1019 l 653 817 l 613 763 l 346 929 l 414 1019 z "},"ẃ":{"ha":1144,"x_min":35,"x_max":1110,"o":"m 1110 676 l 913 33 q 896 9 908 18 q 867 0 883 0 l 760 0 q 730 10 743 0 q 714 38 717 21 l 603 497 q 592 550 597 524 q 581 604 588 576 l 564 604 q 552 550 558 576 q 540 497 546 524 l 431 38 q 414 10 426 21 q 383 0 401 0 l 278 0 q 249 9 261 0 q 232 33 236 18 l 35 676 l 157 676 l 297 178 q 310 127 304 153 q 319 76 315 101 l 338 76 q 351 127 344 101 q 363 178 357 153 l 475 639 q 490 666 478 656 q 519 676 501 676 l 626 676 q 655 666 643 676 q 671 638 667 656 l 782 178 q 794 128 788 153 q 806 76 800 103 l 824 76 q 835 127 831 103 q 847 178 839 151 l 988 676 l 1110 676 m 713 1031 l 781 939 l 514 772 l 474 826 l 713 1031 z "},"ŵ":{"ha":1144,"x_min":35,"x_max":1110,"o":"m 1110 676 l 913 33 q 896 9 908 18 q 867 0 883 0 l 760 0 q 730 10 743 0 q 714 38 717 21 l 603 497 q 592 550 597 524 q 581 604 588 576 l 564 604 q 552 550 558 576 q 540 497 546 524 l 431 38 q 414 10 426 21 q 383 0 401 0 l 278 0 q 249 9 261 0 q 232 33 236 18 l 35 676 l 157 676 l 297 178 q 310 127 304 153 q 319 76 315 101 l 338 76 q 351 127 344 101 q 363 178 357 153 l 475 639 q 490 666 478 656 q 519 676 501 676 l 626 676 q 655 666 643 676 q 671 638 667 656 l 782 178 q 794 128 788 153 q 806 76 800 103 l 824 76 q 835 127 831 103 q 847 178 839 151 l 988 676 l 1110 676 m 615 994 l 800 818 l 758 767 l 579 901 l 568 901 l 388 767 l 347 818 l 531 994 l 615 994 z "},"ẅ":{"ha":1144,"x_min":35,"x_max":1110,"o":"m 1110 676 l 913 33 q 896 9 908 18 q 867 0 883 0 l 760 0 q 730 10 743 0 q 714 38 717 21 l 603 497 q 592 550 597 524 q 581 604 588 576 l 564 604 q 552 550 558 576 q 540 497 546 524 l 431 38 q 414 10 426 21 q 383 0 401 0 l 278 0 q 249 9 261 0 q 232 33 236 18 l 35 676 l 157 676 l 297 178 q 310 127 304 153 q 319 76 315 101 l 338 76 q 351 127 344 101 q 363 178 357 153 l 475 639 q 490 666 478 656 q 519 676 501 676 l 626 676 q 655 666 643 676 q 671 638 667 656 l 782 178 q 794 128 788 153 q 806 76 800 103 l 824 76 q 835 127 831 103 q 847 178 839 151 l 988 676 l 1110 676 m 715 958 q 749 925 749 958 l 749 849 q 715 815 749 815 l 676 815 q 643 849 643 815 l 643 925 q 676 958 643 958 l 715 958 m 469 958 q 501 925 501 958 l 501 849 q 469 815 501 815 l 429 815 q 397 849 397 815 l 397 925 q 429 958 397 958 l 469 958 z "},"ỳ":{"ha":735,"x_min":25,"x_max":708,"o":"m 708 676 l 438 -37 q 396 -125 421 -82 q 335 -203 371 -168 q 252 -261 300 -239 q 142 -286 204 -283 l 131 -208 q 257 -137 213 -182 q 328 -29 301 -93 l 361 51 q 383 113 372 79 q 404 172 394 146 l 581 676 l 708 676 m 151 676 l 331 172 q 344 131 338 151 q 356 90 351 111 l 388 90 l 349 0 l 313 0 q 287 8 299 0 q 271 31 275 17 l 25 676 l 151 676 m 211 1019 l 450 817 l 410 763 l 143 929 l 211 1019 z "},"ý":{"ha":735,"x_min":25,"x_max":708,"o":"m 708 676 l 438 -37 q 396 -125 421 -82 q 335 -203 371 -168 q 252 -261 300 -239 q 142 -286 204 -283 l 131 -208 q 257 -137 213 -182 q 328 -29 301 -93 l 361 51 q 383 113 372 79 q 404 172 394 146 l 581 676 l 708 676 m 151 676 l 331 172 q 344 131 338 151 q 356 90 351 111 l 388 90 l 349 0 l 313 0 q 287 8 299 0 q 271 31 275 17 l 25 676 l 151 676 m 511 1031 l 579 939 l 313 772 l 272 826 l 511 1031 z "},"ŷ":{"ha":735,"x_min":25,"x_max":708,"o":"m 708 676 l 438 -37 q 396 -125 421 -82 q 335 -203 371 -168 q 252 -261 300 -239 q 142 -286 204 -283 l 131 -208 q 257 -137 213 -182 q 328 -29 301 -93 l 361 51 q 383 113 372 79 q 404 172 394 146 l 581 676 l 708 676 m 151 676 l 331 172 q 344 131 338 151 q 356 90 351 111 l 388 90 l 349 0 l 313 0 q 287 8 299 0 q 271 31 275 17 l 25 676 l 151 676 m 413 994 l 597 818 l 556 767 l 376 901 l 365 901 l 185 767 l 144 818 l 328 994 l 413 994 z "},"ÿ":{"ha":735,"x_min":25,"x_max":708,"o":"m 708 676 l 438 -37 q 396 -125 421 -82 q 335 -203 371 -168 q 252 -261 300 -239 q 142 -286 204 -283 l 131 -208 q 257 -137 213 -182 q 328 -29 301 -93 l 361 51 q 383 113 372 79 q 404 172 394 146 l 581 676 l 708 676 m 151 676 l 331 172 q 344 131 338 151 q 356 90 351 111 l 388 90 l 349 0 l 313 0 q 287 8 299 0 q 271 31 275 17 l 25 676 l 151 676 m 513 958 q 546 925 546 958 l 546 849 q 513 815 546 815 l 474 815 q 440 849 440 815 l 440 925 q 474 958 440 958 l 513 958 m 267 958 q 299 925 299 958 l 299 849 q 267 815 299 815 l 226 815 q 194 849 194 815 l 194 925 q 226 958 194 958 l 267 958 z "},"ź":{"ha":708,"x_min":68,"x_max":640,"o":"m 504 581 l 636 579 l 200 94 l 68 96 l 504 581 m 640 96 l 640 0 l 68 0 l 68 96 l 640 96 m 636 676 l 636 579 l 72 579 l 72 676 l 636 676 m 493 1031 l 561 939 l 294 772 l 254 826 l 493 1031 z "},"ż":{"ha":708,"x_min":68,"x_max":640,"o":"m 504 581 l 636 579 l 200 94 l 68 96 l 504 581 m 640 96 l 640 0 l 68 0 l 68 96 l 640 96 m 636 676 l 636 579 l 72 579 l 72 676 l 636 676 m 372 954 q 408 919 408 954 l 408 840 q 372 804 408 804 l 335 804 q 299 840 299 804 l 299 919 q 335 954 299 954 l 372 954 z "},"ž":{"ha":708,"x_min":68,"x_max":640,"o":"m 504 581 l 636 579 l 200 94 l 68 96 l 504 581 m 640 96 l 640 0 l 68 0 l 68 96 l 640 96 m 636 676 l 636 579 l 72 579 l 72 676 l 636 676 m 540 1015 l 582 965 l 383 788 l 328 788 l 129 965 l 169 1015 l 350 894 l 361 894 l 540 1015 z "},"ǽ":{"ha":1210,"x_min":71,"x_max":1142,"o":"m 850 693 q 1072 638 1003 693 q 1142 472 1140 582 q 1123 367 1142 410 q 1065 303 1104 325 q 965 281 1026 281 l 585 281 l 585 372 l 935 372 q 1006 402 988 372 q 1022 472 1024 432 q 984 565 1022 536 q 856 593 946 593 q 740 572 782 593 q 680 497 697 550 q 663 347 663 443 q 684 182 663 239 q 753 104 706 125 q 878 83 800 83 q 997 88 933 83 q 1114 100 1061 93 l 1125 21 q 1047 0 1094 8 q 951 -12 1000 -8 q 863 -17 901 -17 q 676 19 747 -17 q 572 133 604 54 q 540 340 540 211 q 572 551 540 474 q 673 660 604 628 q 850 693 742 693 m 604 417 l 603 328 l 279 326 q 211 301 231 325 q 192 233 192 276 l 192 190 q 217 113 192 138 q 297 89 242 89 q 388 103 338 89 q 490 150 438 118 q 583 231 542 182 l 583 143 q 539 96 568 122 q 469 44 510 69 q 380 3 429 19 q 274 -12 331 -12 q 168 9 214 -12 q 97 73 122 31 q 71 176 71 115 l 71 250 q 120 373 71 329 q 258 417 169 417 l 604 417 m 428 693 q 555 673 503 693 q 633 606 607 653 q 660 476 660 558 l 660 335 l 540 335 l 540 476 q 512 566 540 539 q 403 593 483 593 q 270 588 350 593 q 113 575 190 582 l 101 663 q 205 678 149 671 q 319 689 261 685 q 428 693 378 693 m 778 1018 l 844 928 l 579 761 l 538 815 l 778 1018 z "},"ǿ":{"ha":789,"x_min":76,"x_max":713,"o":"m 563 778 l 617 751 l 218 -104 l 164 -78 l 563 778 m 394 693 q 581 658 511 693 q 682 545 651 624 q 713 338 713 467 q 682 130 713 208 q 581 17 651 51 q 394 -18 511 -18 q 209 17 279 -18 q 108 130 139 51 q 76 338 76 208 q 108 545 76 467 q 209 658 139 624 q 394 693 279 693 m 394 593 q 278 570 321 593 q 218 492 236 547 q 200 338 200 436 q 218 183 200 239 q 278 105 236 128 q 394 82 321 82 q 511 105 468 82 q 572 183 554 128 q 590 338 590 239 q 572 492 590 436 q 511 570 554 547 q 394 593 468 593 m 536 1022 l 603 932 l 338 765 l 296 819 l 536 1022 z "},"ǻ":{"ha":763,"x_min":71,"x_max":660,"o":"m 471 1263 l 533 1175 l 303 1047 l 267 1099 l 471 1263 m 428 693 q 555 673 503 693 q 633 606 607 653 q 660 476 660 558 l 660 0 l 567 0 l 549 147 l 540 163 l 540 476 q 512 566 540 539 q 403 593 483 593 q 270 588 350 593 q 113 575 190 582 l 101 663 q 205 678 149 671 q 319 689 261 685 q 428 693 378 693 m 604 417 l 603 328 l 279 326 q 211 301 231 325 q 192 233 192 276 l 192 190 q 217 113 192 138 q 297 89 242 89 q 385 103 336 89 q 485 149 435 118 q 576 226 535 179 l 576 139 q 533 94 561 119 q 465 44 504 68 q 377 3 425 19 q 274 -12 329 -12 q 168 9 214 -12 q 97 73 122 31 q 71 176 71 115 l 71 250 q 120 373 71 329 q 258 417 169 417 l 604 417 m 379 1025 q 453 1006 419 1025 q 508 953 488 986 q 528 879 528 921 q 508 806 528 839 q 454 753 488 772 q 379 733 421 733 q 305 753 339 733 q 251 805 271 772 q 231 879 231 838 q 251 953 231 921 q 305 1006 271 986 q 379 1025 339 1025 m 379 964 q 321 941 344 964 q 297 879 297 918 q 321 817 297 840 q 379 794 344 794 q 439 817 415 794 q 463 879 463 840 q 439 941 463 918 q 379 964 415 964 z "},"ə":{"ha":746,"x_min":68,"x_max":671,"o":"m 360 -17 q 138 39 207 -17 q 69 204 69 94 q 107 346 68 296 q 231 396 146 396 l 625 396 l 625 304 l 261 304 q 201 274 215 304 q 188 204 188 243 q 226 112 189 140 q 354 83 264 83 q 470 105 428 83 q 530 181 513 126 q 547 331 547 235 q 526 496 547 439 q 457 573 504 553 q 332 593 410 593 q 214 588 278 593 q 97 576 150 583 l 85 656 q 163 677 117 669 q 259 689 210 685 q 347 693 308 693 q 535 658 464 693 q 639 545 607 624 q 671 336 671 467 q 638 126 671 204 q 538 16 606 49 q 360 -17 469 -17 z "},"ĸ":{"ha":707,"x_min":108,"x_max":683,"o":"m 661 676 l 447 404 q 423 378 438 392 q 400 357 408 364 l 400 354 q 422 332 408 349 q 447 300 436 315 l 683 0 l 546 0 l 278 350 l 524 676 l 661 676 m 226 676 l 228 503 q 225 423 229 460 q 214 346 221 386 q 224 268 221 307 q 226 193 226 229 l 226 0 l 108 0 l 108 676 l 226 676 m 342 386 l 342 301 l 185 301 l 185 386 l 342 386 z "},"@":{"ha":997,"x_min":104,"x_max":897,"o":"m 688 813 q 842 767 788 813 q 897 615 897 722 l 897 183 l 808 183 l 797 288 q 729 235 772 263 q 633 190 686 208 q 521 172 579 172 q 426 191 467 172 q 362 247 385 210 q 339 338 339 283 l 339 408 q 379 513 339 475 q 499 551 419 551 l 786 551 l 786 611 q 761 690 786 667 q 667 714 736 714 l 489 714 q 344 706 399 714 q 263 665 290 697 q 226 563 235 633 q 217 369 217 493 q 223 202 217 268 q 247 99 229 136 q 300 44 265 61 q 392 24 335 28 q 535 19 450 19 l 893 19 l 893 -69 q 715 -78 804 -75 q 536 -81 626 -81 q 342 -73 419 -82 q 216 -38 264 -64 q 144 38 168 -12 q 113 169 121 88 q 104 369 104 250 q 111 565 104 486 q 140 693 118 644 q 203 767 161 742 q 315 802 246 793 q 489 813 385 811 l 688 813 m 786 479 l 539 474 q 470 453 490 472 q 450 394 450 435 l 450 358 q 474 288 450 308 q 542 267 497 267 q 626 278 582 267 q 713 309 671 289 q 786 358 754 329 l 786 479 z "},"®":{"ha":768,"x_min":75,"x_max":693,"o":"m 385 975 q 540 933 471 975 q 651 822 610 892 q 693 667 693 753 q 651 510 693 581 q 540 399 610 440 q 385 357 471 357 q 228 399 299 357 q 117 510 158 440 q 75 667 75 581 q 117 822 75 753 q 228 933 158 892 q 385 975 299 975 m 301 847 l 301 488 l 246 488 l 246 847 l 301 847 m 385 935 q 251 899 311 935 q 154 801 190 863 q 118 667 118 740 q 154 532 118 593 q 251 435 190 471 q 385 399 311 399 q 518 435 458 399 q 614 532 578 471 q 650 667 650 593 q 614 801 650 740 q 518 899 578 863 q 385 935 458 935 m 397 851 q 507 830 474 851 q 540 747 540 808 q 522 685 540 707 q 458 657 503 663 l 458 654 q 490 640 475 653 q 513 601 506 626 l 554 488 l 496 488 l 457 599 q 435 628 449 619 q 399 636 421 636 q 304 636 339 636 q 253 638 269 636 l 254 676 l 396 676 q 465 692 444 678 q 483 742 485 706 q 465 794 485 782 q 396 807 444 807 q 307 807 344 807 q 256 806 269 807 l 246 847 q 313 851 282 850 q 397 851 344 851 z "},"©":{"ha":1161,"x_min":82,"x_max":1079,"o":"m 581 976 q 775 940 685 976 q 934 836 865 903 q 1041 678 1003 769 q 1079 479 1079 588 q 1041 280 1079 371 q 934 122 1003 189 q 775 19 865 56 q 581 -18 685 -18 q 386 19 476 -18 q 228 122 296 56 q 121 280 160 189 q 82 479 82 371 q 121 678 82 588 q 228 836 160 769 q 386 940 296 903 q 581 976 476 976 m 588 789 q 693 785 653 789 q 775 769 733 781 l 764 703 q 683 706 719 706 q 586 707 646 707 q 481 686 519 707 q 426 617 442 665 q 410 482 410 568 q 426 348 410 397 q 481 278 442 299 q 586 257 519 257 q 694 258 651 257 q 781 265 738 260 l 789 197 q 701 182 746 188 q 588 176 656 176 q 429 206 489 176 q 343 303 369 236 q 317 482 317 369 q 343 662 317 594 q 429 759 369 729 q 588 789 489 789 m 581 913 q 413 881 492 913 q 275 790 335 849 q 181 652 215 731 q 147 479 147 574 q 181 307 147 386 q 275 169 215 228 q 413 78 335 110 q 581 46 492 46 q 749 78 671 46 q 887 169 828 110 q 980 307 946 228 q 1014 479 1014 386 q 980 652 1014 574 q 887 790 946 731 q 749 881 828 849 q 581 913 671 913 z "},"™":{"ha":1339,"x_min":93,"x_max":1236,"o":"m 1182 967 q 1215 933 1213 967 l 1236 439 l 1157 439 l 1135 901 l 1119 901 l 992 529 q 956 501 983 501 l 890 501 q 856 529 865 501 l 728 901 l 711 901 l 690 439 l 611 439 l 633 933 q 667 967 636 967 l 754 967 q 776 960 768 967 q 789 939 785 953 l 894 633 q 906 597 901 615 q 915 560 910 578 l 931 560 q 942 598 938 579 q 953 635 947 617 l 1057 939 q 1090 967 1065 967 l 1182 967 m 361 967 l 361 439 l 275 439 l 275 967 l 361 967 m 543 967 l 543 896 l 93 896 l 93 967 l 543 967 z "},"+":{"ha":765,"x_min":78,"x_max":686,"o":"m 686 460 l 686 371 l 78 371 l 78 460 l 686 460 m 428 704 l 426 125 l 338 125 l 336 704 l 428 704 z "},"−":{"ha":813,"x_min":103,"x_max":711,"o":"m 711 454 l 711 365 l 103 365 l 103 454 l 711 454 z "},"×":{"ha":672,"x_min":64,"x_max":617,"o":"m 558 660 l 64 215 l 122 144 l 617 590 l 558 660 m 122 660 l 64 589 l 558 144 l 617 215 l 122 660 z "},"÷":{"ha":793,"x_min":92,"x_max":700,"o":"m 700 454 l 700 365 l 92 365 l 92 454 l 700 454 m 410 244 q 444 235 433 244 q 454 200 454 225 l 454 133 q 444 99 454 108 q 410 89 433 89 l 379 89 q 345 99 354 89 q 336 133 336 108 l 336 200 q 345 235 336 225 q 379 244 354 244 l 410 244 m 410 729 q 444 719 433 729 q 454 685 454 708 l 454 617 q 444 583 454 593 q 410 574 433 574 l 379 574 q 345 583 354 574 q 336 617 336 593 l 336 685 q 345 719 336 708 q 379 729 354 729 l 410 729 z "},"=":{"ha":813,"x_min":103,"x_max":711,"o":"m 711 597 l 711 510 l 103 510 l 103 597 l 711 597 m 711 304 l 711 215 l 103 215 l 103 304 l 711 304 z "},"<":{"ha":736,"x_min":74,"x_max":638,"o":"m 638 703 l 638 608 l 176 414 l 638 224 l 638 129 l 74 367 l 74 461 l 638 703 z "},">":{"ha":736,"x_min":99,"x_max":663,"o":"m 99 703 l 663 461 l 663 367 l 99 129 l 99 224 l 560 414 l 99 608 l 99 703 z "},"$":{"ha":783,"x_min":79,"x_max":713,"o":"m 390 975 q 531 968 458 974 q 675 947 603 963 l 667 858 q 535 863 607 861 q 396 865 463 865 q 308 862 344 865 q 247 845 271 858 q 213 802 224 832 q 203 719 203 772 q 232 609 203 640 q 325 563 261 578 l 518 514 q 671 422 629 488 q 713 244 713 356 q 694 110 713 161 q 636 31 675 58 q 536 -6 597 4 q 390 -17 475 -17 q 267 -12 343 -17 q 93 10 192 -8 l 101 103 q 233 99 183 101 q 319 97 283 97 q 394 97 356 97 q 510 108 468 97 q 570 151 553 119 q 588 247 588 183 q 575 333 588 303 q 536 380 563 364 q 467 406 510 396 l 269 456 q 122 547 165 482 q 79 722 79 613 q 98 856 79 806 q 155 933 117 907 q 252 967 193 958 q 390 975 311 975 m 363 490 l 425 488 l 375 -176 l 311 -176 l 363 490 m 479 1110 l 433 488 l 369 490 l 417 1110 l 479 1110 z "},"¢":{"ha":706,"x_min":75,"x_max":626,"o":"m 396 840 q 464 837 426 840 q 541 826 501 833 q 614 807 581 819 l 599 728 q 502 737 553 735 q 415 739 451 739 q 283 717 332 739 q 213 639 235 694 q 192 485 192 583 q 213 331 192 386 q 283 252 235 275 q 415 229 332 229 q 470 231 436 229 q 542 235 504 232 q 614 244 581 239 l 626 165 q 515 139 575 147 q 396 131 454 131 q 208 165 279 131 q 106 276 138 199 q 75 485 75 354 q 106 693 75 615 q 208 806 138 771 q 396 840 279 840 m 411 185 l 393 0 l 331 0 l 349 185 l 411 185 m 461 774 l 413 182 l 349 182 l 397 774 l 461 774 m 479 958 l 461 771 l 399 771 l 415 958 l 479 958 z "},"£":{"ha":790,"x_min":78,"x_max":719,"o":"m 439 975 q 506 974 467 975 q 592 969 546 972 q 688 961 639 967 l 681 864 q 629 867 653 865 q 580 869 606 868 q 520 869 554 869 q 436 869 486 869 q 321 838 353 869 q 293 722 289 807 l 315 365 q 309 252 318 300 q 278 168 300 204 q 215 100 256 132 q 262 103 239 103 q 308 104 285 104 l 719 104 l 719 0 l 86 0 l 86 104 q 179 209 158 140 q 194 365 200 278 l 174 724 q 186 856 169 806 q 238 931 203 906 q 324 966 272 957 q 439 975 375 975 m 599 543 l 596 465 l 79 465 l 78 543 l 599 543 z "},"¥":{"ha":858,"x_min":50,"x_max":808,"o":"m 808 958 l 485 354 l 374 354 l 50 958 l 176 958 l 378 576 q 403 523 392 551 q 425 468 414 494 l 435 468 q 458 523 446 494 q 481 575 469 551 l 681 958 l 808 958 m 490 440 l 490 0 l 368 0 l 368 440 l 490 440 m 738 292 l 738 221 l 128 221 l 126 292 l 738 292 m 738 449 l 738 376 l 128 376 l 126 449 l 738 449 z "},"ƒ":{"ha":614,"x_min":-64,"x_max":594,"o":"m 453 972 q 497 972 471 972 q 549 969 522 971 q 594 964 576 968 l 579 875 l 481 875 q 390 853 418 875 q 356 761 363 831 l 283 -6 q 256 -112 278 -68 q 190 -179 233 -156 q 78 -203 147 -203 q 35 -202 61 -203 q -18 -199 8 -201 q -64 -193 -44 -196 l -49 -104 l 44 -104 q 133 -78 106 -104 q 165 8 160 -53 l 238 775 q 268 882 243 838 q 339 949 293 926 q 453 972 385 972 m 535 553 l 525 460 l 72 460 l 78 547 l 225 553 l 535 553 z "},"₡":{"ha":796,"x_min":85,"x_max":746,"o":"m 461 975 q 567 972 522 975 q 649 963 611 969 q 726 947 688 957 l 713 854 q 635 861 672 858 q 558 865 599 864 q 461 867 517 867 q 314 831 368 867 q 237 710 260 794 q 214 479 214 625 q 237 249 214 333 q 314 128 260 164 q 461 92 368 92 q 613 95 550 92 q 732 107 675 99 l 746 15 q 621 -9 686 -1 q 461 -17 556 -17 q 241 31 324 -17 q 122 188 158 79 q 85 479 85 296 q 122 771 85 663 q 241 927 158 879 q 461 975 324 975 m 250 -187 l 653 1117 l 713 1117 l 310 -187 l 250 -187 m 111 -187 l 514 1117 l 574 1117 l 171 -187 l 111 -187 z "},"₤":{"ha":790,"x_min":78,"x_max":719,"o":"m 439 975 q 506 974 467 975 q 592 969 546 972 q 688 961 639 967 l 681 864 q 629 867 653 865 q 580 869 606 868 q 520 869 554 869 q 436 869 486 869 q 321 838 353 869 q 293 722 289 807 l 315 365 q 309 252 318 300 q 278 168 300 204 q 215 100 256 132 q 262 103 239 103 q 308 104 285 104 l 719 104 l 719 0 l 86 0 l 86 104 q 179 209 158 140 q 194 365 200 278 l 174 724 q 186 856 169 806 q 238 931 203 906 q 324 966 272 957 q 439 975 375 975 m 599 613 l 596 536 l 79 536 l 78 613 l 599 613 m 599 418 l 596 342 l 79 342 l 78 418 l 599 418 z "},"₦":{"ha":1071,"x_min":46,"x_max":1025,"o":"m 899 958 l 899 49 q 851 0 899 0 l 732 0 q 699 10 711 0 q 678 39 686 19 l 356 718 q 326 781 343 746 q 300 844 308 815 l 278 844 q 282 782 281 814 q 283 718 283 750 l 283 0 l 161 0 l 161 910 q 210 958 161 958 l 325 958 q 358 949 346 958 q 379 919 371 939 l 694 257 q 726 191 708 228 q 758 118 743 154 l 783 118 q 779 192 781 156 q 778 264 778 228 l 778 958 l 899 958 m 1025 629 l 1018 551 l 47 551 l 46 629 l 1025 629 m 1025 435 l 1018 358 l 47 358 l 46 435 l 1025 435 z "},"₩":{"ha":1435,"x_min":43,"x_max":1392,"o":"m 1332 958 l 1138 36 q 1122 10 1135 21 q 1090 0 1108 0 l 950 0 q 919 10 932 0 q 903 38 907 21 l 753 758 q 742 813 747 786 q 732 867 738 840 l 703 867 q 692 813 697 840 q 681 758 688 785 l 532 38 q 515 10 529 21 q 483 0 501 0 l 344 0 q 313 10 326 0 q 296 36 300 21 l 101 958 l 231 958 l 382 211 q 392 155 388 185 q 400 93 396 125 l 433 93 q 443 154 438 125 q 454 211 449 183 l 603 918 q 619 947 607 936 q 651 958 632 958 l 783 958 q 815 947 803 958 q 831 918 828 936 l 979 211 q 991 151 986 181 q 1000 93 996 122 l 1033 93 q 1043 152 1039 122 q 1053 210 1047 182 l 1204 958 l 1332 958 m 1392 629 l 1386 551 l 43 551 l 43 629 l 1392 629 m 1392 435 l 1386 358 l 43 358 l 43 435 l 1392 435 z "},"₫":{"ha":789,"x_min":78,"x_max":781,"o":"m 701 -114 l 701 -197 l 101 -197 l 101 -114 l 701 -114 m 781 864 l 781 796 l 356 796 l 356 864 l 781 864 m 333 693 q 465 676 400 693 q 590 622 531 658 l 583 549 q 468 579 518 568 q 361 590 418 590 q 267 570 303 590 q 215 496 232 550 q 199 342 199 442 q 215 186 199 242 q 265 108 231 131 q 354 86 300 86 q 427 97 394 86 q 497 131 460 107 q 583 190 533 154 l 594 107 q 468 19 539 56 q 315 -17 397 -17 q 133 74 188 -17 q 78 340 78 164 q 106 549 78 472 q 190 660 133 626 q 333 693 247 693 m 686 972 l 686 0 l 594 0 l 581 118 l 568 128 l 568 592 l 576 613 q 569 688 571 651 q 568 764 568 724 l 568 972 l 686 972 z "},"€":{"ha":888,"x_min":74,"x_max":815,"o":"m 569 975 q 699 968 647 975 q 800 947 751 961 l 786 853 q 740 860 765 857 q 685 865 714 863 q 626 867 657 867 q 563 865 596 867 q 417 819 471 863 q 338 692 363 776 q 314 478 314 607 q 369 192 314 288 q 563 93 424 96 q 647 93 606 92 q 728 99 689 94 q 803 110 768 103 l 815 15 q 709 -8 767 1 q 569 -17 651 -17 q 344 39 428 -17 q 224 205 260 94 q 188 479 188 315 q 224 754 188 644 q 344 919 260 864 q 569 975 428 975 m 621 439 l 611 358 l 74 358 l 74 439 l 621 439 m 676 621 l 667 540 l 74 540 l 74 621 l 676 621 z "},"₱":{"ha":908,"x_min":25,"x_max":883,"o":"m 464 971 q 647 944 579 971 q 743 853 714 918 q 772 671 772 789 q 744 488 772 553 q 651 397 715 422 q 478 371 586 371 q 366 374 419 371 q 268 381 313 376 q 192 392 224 386 q 149 401 161 397 l 153 476 l 463 476 q 573 493 532 476 q 631 552 614 510 q 649 671 649 594 q 631 790 649 749 q 573 849 614 832 q 463 865 532 865 l 154 865 l 135 958 q 233 967 188 964 q 333 970 279 969 q 464 971 388 971 m 257 958 l 257 0 l 135 0 l 135 958 l 257 958 m 883 775 l 878 704 l 26 704 l 25 775 l 883 775 m 883 633 l 878 561 l 26 561 l 25 633 l 883 633 z "},"₲":{"ha":872,"x_min":86,"x_max":778,"o":"m 486 976 q 581 974 535 976 q 669 965 626 971 q 753 947 713 958 l 740 856 q 644 863 697 860 q 540 866 590 865 q 453 867 489 867 q 308 834 360 867 q 236 716 257 801 q 215 474 215 631 q 235 248 215 332 q 300 126 254 164 q 422 89 346 89 q 519 104 475 89 q 601 144 563 119 q 675 194 639 168 l 692 119 q 625 58 667 90 q 527 4 583 26 q 397 -18 471 -18 q 219 34 288 -18 q 118 197 150 86 q 86 482 86 307 q 124 780 86 672 q 251 932 163 888 q 486 976 339 976 m 658 554 l 778 554 l 778 0 l 689 0 l 669 142 l 658 169 l 658 554 m 478 1111 l 540 1111 l 443 -178 l 379 -178 l 478 1111 z "},"₵":{"ha":792,"x_min":85,"x_max":742,"o":"m 461 975 q 566 972 522 975 q 647 963 610 969 q 722 947 683 957 l 710 854 q 633 861 668 858 q 557 865 597 864 q 461 867 517 867 q 314 831 368 867 q 237 710 260 794 q 214 479 214 625 q 237 249 214 333 q 314 128 260 164 q 461 92 368 92 q 610 95 550 92 q 729 107 671 99 l 742 15 q 619 -9 682 -1 q 461 -17 556 -17 q 241 31 324 -17 q 122 188 158 79 q 85 479 85 296 q 122 771 85 663 q 241 927 158 879 q 461 975 324 975 m 378 -176 l 475 1110 l 538 1110 l 442 -176 l 378 -176 z "},"₼":{"ha":856,"x_min":107,"x_max":749,"o":"m 107 0 l 107 451 q 142 658 107 575 q 248 781 176 740 q 428 822 319 822 q 608 781 538 822 q 714 658 679 740 q 749 451 749 575 l 749 0 l 628 0 l 628 371 q 615 553 628 478 q 559 669 601 629 q 428 710 517 710 q 297 669 340 710 q 241 553 254 629 q 228 371 228 478 l 228 0 l 107 0 m 467 968 l 467 149 l 389 149 l 389 968 l 467 968 z "},"₽":{"ha":765,"x_min":29,"x_max":715,"o":"m 422 971 q 596 942 532 971 q 688 849 660 914 q 715 671 715 783 q 688 493 715 558 q 600 399 661 428 q 436 371 539 371 q 354 371 396 371 q 270 372 313 371 q 187 374 228 374 q 106 377 146 375 q 29 381 67 379 l 32 476 q 121 476 68 476 q 231 476 174 476 q 338 476 288 476 q 419 476 389 476 q 522 495 485 476 q 576 557 560 514 q 592 671 592 600 q 576 785 592 743 q 522 847 560 828 q 419 865 485 865 q 303 865 353 865 q 219 863 254 864 q 165 860 185 863 l 146 958 q 214 965 185 963 q 272 969 243 968 q 335 970 300 969 q 422 971 371 971 m 267 958 l 267 0 l 146 0 l 146 958 l 267 958 m 567 239 l 560 163 l 32 163 l 31 239 l 567 239 z "},"#":{"ha":951,"x_min":61,"x_max":889,"o":"m 432 958 l 265 0 l 171 0 l 338 958 l 432 958 m 781 958 l 614 0 l 519 0 l 686 958 l 781 958 m 889 699 l 874 622 l 119 622 l 135 699 l 889 699 m 831 372 l 815 296 l 61 296 l 76 372 l 831 372 z "},"§":{"ha":756,"x_min":86,"x_max":671,"o":"m 194 539 q 196 437 190 479 q 224 364 201 394 q 290 308 247 333 l 531 172 q 605 119 574 147 q 653 51 636 90 q 671 -44 671 13 q 637 -164 671 -125 q 541 -214 603 -203 q 397 -225 479 -225 q 304 -222 356 -224 q 199 -216 253 -219 q 94 -208 146 -212 l 104 -115 q 192 -120 151 -118 q 276 -123 233 -122 q 368 -125 318 -124 q 461 -121 422 -125 q 522 -99 500 -117 q 544 -40 544 -82 q 521 38 547 10 q 456 89 494 67 l 231 214 q 131 296 163 250 q 97 402 100 342 q 108 539 93 463 l 194 539 m 361 976 q 457 974 404 976 q 564 969 510 972 q 663 960 618 965 l 654 868 q 578 872 614 871 q 500 874 543 874 q 392 875 457 875 q 297 872 338 876 q 235 851 257 868 q 213 796 214 835 q 238 718 211 746 q 304 667 264 690 l 529 540 q 628 458 597 504 q 662 351 658 411 q 649 214 665 290 l 563 214 q 561 316 568 274 q 532 390 554 358 q 467 447 510 422 l 226 585 q 151 638 183 610 q 103 704 119 665 q 86 799 86 743 q 118 912 86 874 q 212 963 150 950 q 361 976 274 976 z "},"¤":{"ha":825,"x_min":92,"x_max":731,"o":"m 411 690 q 311 663 357 690 q 238 590 265 636 q 211 489 211 544 q 238 388 211 433 q 311 315 265 342 q 411 289 357 289 q 510 315 465 289 q 583 388 556 342 q 610 489 610 433 q 583 590 610 544 q 510 663 556 636 q 411 690 465 690 m 147 806 l 263 689 l 211 638 l 96 753 l 147 806 m 678 806 l 731 753 l 617 640 l 565 692 l 678 806 m 215 350 l 271 294 l 147 171 l 92 226 l 215 350 m 608 343 l 731 222 l 678 171 l 557 292 l 608 343 m 411 761 q 549 724 488 761 q 647 626 610 688 q 683 488 683 564 q 647 351 683 413 q 548 252 610 289 q 411 215 486 215 q 274 252 336 215 q 176 351 213 289 q 139 488 139 413 q 176 626 139 564 q 274 724 213 688 q 411 761 336 761 z "},"¶":{"ha":824,"x_min":56,"x_max":690,"o":"m 481 975 q 583 970 524 975 q 690 951 642 965 l 682 881 q 605 891 649 888 q 519 896 561 894 q 447 897 478 897 l 388 278 q 133 372 210 292 q 56 625 56 453 q 98 831 56 754 q 234 941 140 907 q 481 975 328 975 m 464 951 l 464 -292 l 374 -292 l 374 951 l 464 951 m 690 951 l 690 0 l 600 0 l 600 951 l 690 951 z "},"%":{"ha":1242,"x_min":65,"x_max":1175,"o":"m 288 976 q 420 948 371 976 q 490 857 469 919 q 511 692 511 794 q 490 528 511 590 q 420 436 469 465 q 288 407 371 407 q 156 436 206 407 q 86 528 107 465 q 65 692 65 590 q 86 857 65 794 q 156 948 107 919 q 288 976 206 976 m 288 901 q 209 881 238 901 q 168 815 181 861 q 156 692 156 769 q 168 568 156 614 q 209 502 181 522 q 288 482 238 482 q 367 502 339 482 q 408 568 396 522 q 419 692 419 614 q 408 815 419 769 q 367 881 396 861 q 288 901 339 901 m 971 958 l 350 0 l 267 0 l 888 958 l 971 958 m 953 556 q 1085 526 1036 556 q 1154 435 1133 497 q 1175 272 1175 374 q 1154 108 1175 171 q 1085 16 1133 44 q 953 -12 1036 -12 q 822 16 871 -12 q 751 108 772 44 q 731 272 731 171 q 751 435 731 374 q 822 526 772 497 q 953 556 871 556 m 951 481 q 872 461 901 481 q 832 396 843 442 q 821 272 821 350 q 832 148 821 194 q 872 81 843 101 q 951 61 901 61 q 1031 81 1003 61 q 1072 148 1060 101 q 1085 272 1085 194 q 1072 396 1085 350 q 1031 461 1060 442 q 951 481 1003 481 z "},"‰":{"ha":1760,"x_min":65,"x_max":1692,"o":"m 288 976 q 420 948 371 976 q 490 857 469 919 q 511 692 511 794 q 490 528 511 590 q 420 436 469 465 q 288 407 371 407 q 156 436 206 407 q 86 528 107 465 q 65 692 65 590 q 86 857 65 794 q 156 948 107 919 q 288 976 206 976 m 288 901 q 209 882 238 901 q 168 817 181 863 q 156 692 156 771 q 168 567 156 614 q 209 501 181 521 q 288 482 238 482 q 367 501 339 482 q 408 567 396 521 q 419 692 419 614 q 408 817 419 771 q 367 882 396 863 q 288 901 339 901 m 971 958 l 350 0 l 267 0 l 888 958 l 971 958 m 953 556 q 1085 526 1036 556 q 1154 435 1133 497 q 1175 272 1175 374 q 1154 108 1175 171 q 1085 16 1133 44 q 953 -12 1036 -12 q 822 16 871 -12 q 751 108 772 44 q 731 272 731 171 q 751 435 731 374 q 822 526 772 497 q 953 556 871 556 m 951 481 q 872 461 901 481 q 832 396 843 442 q 821 272 821 350 q 832 148 821 194 q 872 81 843 101 q 951 61 901 61 q 1031 81 1003 61 q 1072 148 1060 101 q 1085 272 1085 194 q 1072 396 1085 350 q 1031 461 1060 442 q 951 481 1003 481 m 1468 556 q 1601 526 1551 556 q 1671 435 1650 497 q 1692 272 1692 374 q 1671 108 1692 171 q 1601 16 1650 44 q 1468 -12 1551 -12 q 1337 16 1386 -12 q 1267 108 1288 44 q 1246 272 1246 171 q 1267 435 1246 374 q 1337 526 1288 497 q 1468 556 1386 556 m 1468 481 q 1390 461 1418 481 q 1349 396 1361 442 q 1338 272 1338 350 q 1349 148 1338 194 q 1390 81 1361 101 q 1468 61 1418 61 q 1548 81 1519 61 q 1588 148 1576 101 q 1600 272 1600 194 q 1588 396 1600 350 q 1548 461 1576 442 q 1468 481 1519 481 z "},"°":{"ha":504,"x_min":72,"x_max":432,"o":"m 253 976 q 342 953 301 976 q 408 889 383 929 q 432 800 432 849 q 408 711 432 751 q 342 647 383 671 q 253 622 301 622 q 163 647 204 622 q 97 711 121 671 q 72 800 72 751 q 97 888 72 849 q 162 952 121 928 q 253 976 203 976 m 253 904 q 178 875 210 904 q 147 800 147 846 q 162 747 147 771 q 200 708 176 722 q 253 694 224 694 q 306 708 282 694 q 343 747 329 722 q 357 800 357 771 q 326 875 357 846 q 253 904 296 904 z "},"′":{"ha":290,"x_min":97,"x_max":194,"o":"m 194 958 l 186 660 l 104 660 l 97 958 l 194 958 z "},"″":{"ha":490,"x_min":97,"x_max":393,"o":"m 393 958 l 386 660 l 306 660 l 297 958 l 393 958 m 194 958 l 186 660 l 104 660 l 97 958 l 194 958 z "},"ª":{"ha":613,"x_min":89,"x_max":511,"o":"m 353 843 q 469 810 428 843 q 511 693 511 778 l 511 378 l 440 378 l 426 478 l 422 489 l 422 694 q 403 748 422 728 q 335 768 385 768 q 231 765 288 768 q 119 757 174 761 l 110 824 q 182 833 143 828 q 265 840 221 838 q 353 843 308 843 m 471 656 l 469 607 l 246 593 q 192 576 207 592 q 176 535 176 561 l 176 510 q 196 460 176 475 q 253 446 215 446 q 323 459 286 446 q 393 494 360 472 q 449 538 426 515 l 449 485 q 416 450 438 469 q 366 412 394 431 q 301 381 338 393 q 225 369 265 369 q 126 400 164 369 q 89 490 89 431 l 89 543 q 123 626 89 596 q 218 656 157 656 l 471 656 z "},"º":{"ha":617,"x_min":82,"x_max":535,"o":"m 308 843 q 484 790 433 843 q 535 604 535 736 q 513 465 535 518 q 441 390 490 413 q 308 367 392 367 q 133 420 183 367 q 82 604 82 474 q 133 790 82 736 q 308 843 183 843 m 308 769 q 204 735 233 769 q 175 604 175 700 q 204 476 175 510 q 308 442 233 442 q 412 476 383 442 q 440 604 440 510 q 412 735 440 700 q 308 769 383 769 z "},"⁄":{"ha":222,"x_min":-242,"x_max":464,"o":"m 464 958 l -157 0 l -242 0 l 379 958 l 464 958 z "},"½":{"ha":1232,"x_min":53,"x_max":1164,"o":"m 888 958 l 267 0 l 181 0 l 803 958 l 888 958 m 307 958 l 307 383 l 215 383 l 215 821 q 217 848 215 835 q 221 875 218 861 l 64 835 l 53 899 l 215 958 l 307 958 m 931 585 q 1045 575 999 585 q 1115 537 1092 565 q 1139 453 1139 508 q 1111 358 1139 406 q 1025 253 1083 311 l 849 81 q 897 83 875 83 q 944 83 918 83 l 1164 82 l 1163 0 l 731 0 l 731 53 q 733 74 731 64 q 744 92 736 83 l 924 265 q 1009 364 981 321 q 1039 444 1038 407 q 1008 496 1039 486 q 925 506 978 506 q 841 503 881 506 q 742 494 801 501 l 736 564 q 849 581 803 578 q 931 585 896 585 z "},"¼":{"ha":1199,"x_min":53,"x_max":1140,"o":"m 896 958 l 275 0 l 190 0 l 811 958 l 896 958 m 307 958 l 307 383 l 215 383 l 215 821 q 217 848 215 835 q 221 875 218 861 l 64 835 l 53 899 l 215 958 l 307 958 m 926 575 l 757 239 q 758 217 751 226 q 781 208 765 208 l 1140 208 l 1140 143 l 1060 135 l 715 135 q 660 159 681 135 q 661 225 640 183 l 838 575 l 926 575 m 1074 465 l 1074 0 l 986 0 l 986 371 l 1003 465 l 1074 465 z "},"¾":{"ha":1325,"x_min":78,"x_max":1267,"o":"m 1036 958 l 415 0 l 331 0 l 951 958 l 1036 958 m 274 965 q 433 937 389 965 q 478 833 478 908 q 456 737 478 776 q 372 688 435 697 l 372 685 q 467 638 442 675 q 493 540 492 601 q 449 410 496 451 q 285 369 401 369 q 180 374 233 369 q 78 385 126 379 l 83 454 q 146 450 117 451 q 203 448 175 449 q 263 447 232 447 q 368 470 338 447 q 399 551 399 493 q 390 599 399 578 q 355 633 381 619 q 278 646 329 646 l 158 649 l 158 711 l 278 715 q 351 731 328 717 q 381 767 375 746 q 388 810 388 789 q 360 873 388 857 q 260 889 333 889 q 171 888 214 889 q 94 883 128 886 l 89 951 q 183 962 138 958 q 274 965 228 965 m 1053 575 l 883 239 q 885 217 878 226 q 908 208 892 208 l 1267 208 l 1267 143 l 1188 135 l 842 135 q 787 159 807 135 q 788 225 767 183 l 964 575 l 1053 575 m 1196 465 l 1196 0 l 1110 0 l 1110 371 l 1125 465 l 1196 465 z "},"≤":{"ha":788,"x_min":96,"x_max":690,"o":"m 679 743 l 679 649 l 214 501 l 679 367 l 679 272 l 110 454 l 110 549 l 679 743 m 690 197 l 690 110 l 96 110 l 96 197 l 690 197 z "},"≥":{"ha":788,"x_min":97,"x_max":692,"o":"m 110 743 l 678 549 l 678 454 l 110 272 l 110 367 l 574 501 l 110 649 l 110 743 m 692 197 l 692 110 l 97 110 l 97 197 l 692 197 z "},"≠":{"ha":856,"x_min":132,"x_max":740,"o":"m 599 749 l 636 729 l 221 44 l 183 64 l 599 749 m 740 597 l 740 510 l 132 510 l 132 597 l 740 597 m 740 304 l 740 215 l 132 215 l 132 304 l 740 304 z "},"^":{"ha":592,"x_min":42,"x_max":550,"o":"m 339 833 l 550 542 l 503 511 l 303 753 l 292 753 l 90 511 l 42 542 l 254 833 l 339 833 z "},"~":{"ha":729,"x_min":100,"x_max":633,"o":"m 214 483 q 287 470 250 482 q 360 444 324 458 q 432 417 397 429 q 500 401 467 404 q 549 415 536 397 q 563 476 563 433 l 624 476 q 602 351 633 393 q 517 313 571 310 q 437 326 475 315 q 363 352 399 338 q 294 379 328 367 q 231 394 261 392 q 181 380 193 399 q 168 317 168 361 l 107 317 q 113 412 100 375 q 153 467 126 449 q 214 483 179 485 z "},"±":{"ha":817,"x_min":104,"x_max":713,"o":"m 713 543 l 713 454 l 104 454 l 104 543 l 713 543 m 713 186 l 713 97 l 104 97 l 104 186 l 713 186 m 454 728 l 453 268 l 363 268 l 363 728 l 454 728 z "},"∞":{"ha":1106,"x_min":75,"x_max":1031,"o":"m 538 469 q 614 551 576 513 q 700 615 651 590 q 818 639 749 639 q 978 586 925 639 q 1031 432 1031 533 q 978 276 1031 333 q 817 218 925 218 q 676 247 735 218 q 575 322 617 276 q 500 411 533 367 q 451 472 478 442 q 386 522 424 501 q 294 542 349 542 q 210 512 238 542 q 183 428 183 482 q 299 315 183 315 q 360 323 333 315 q 410 347 386 331 q 460 390 433 364 l 543 458 l 568 388 q 492 306 529 344 q 406 242 454 267 q 288 218 358 218 q 128 271 182 218 q 75 425 75 324 q 128 581 75 524 q 290 639 181 639 q 432 609 374 639 q 532 535 490 579 q 607 443 574 490 q 656 385 629 415 q 721 335 683 356 q 811 315 758 315 q 896 345 868 315 q 924 429 924 375 q 807 542 924 542 q 747 534 774 542 q 696 510 719 526 q 646 467 672 493 l 563 399 l 538 469 z "},"μ":{"ha":828,"x_min":108,"x_max":803,"o":"m 225 676 l 225 224 q 250 119 225 147 q 339 92 275 92 q 431 113 389 92 q 506 173 474 135 q 558 260 539 211 q 578 365 576 310 l 582 142 q 521 63 560 99 q 431 5 482 26 q 321 -17 381 -17 q 213 6 260 -17 q 138 72 165 28 q 111 185 111 117 l 111 676 l 225 676 m 108 676 l 225 676 l 225 -106 l 210 -274 l 108 -274 l 108 676 m 696 676 l 696 150 q 703 96 696 115 q 738 76 711 76 l 796 76 l 803 6 q 747 -8 776 -3 q 693 -14 718 -14 q 611 15 640 -14 q 582 107 582 43 l 582 142 l 578 164 l 578 676 l 696 676 z "},"∂":{"ha":794,"x_min":72,"x_max":718,"o":"m 182 976 q 431 959 326 978 q 599 887 535 940 q 691 732 664 833 q 710 468 718 631 q 684 266 704 356 q 626 113 664 176 q 525 17 588 50 q 371 -17 463 -17 q 224 11 283 -17 q 132 86 165 39 q 85 192 99 133 q 75 314 72 251 q 97 438 78 381 q 153 536 117 494 q 242 601 189 578 q 365 624 294 624 q 467 606 417 624 q 561 549 517 589 q 639 436 606 508 l 631 396 q 544 477 588 450 q 461 514 500 504 q 389 524 422 524 q 244 466 292 524 q 193 314 197 408 q 208 200 190 251 q 265 119 225 149 q 372 89 306 89 q 476 117 436 89 q 539 197 517 146 q 572 317 561 249 q 589 465 583 386 q 583 675 597 593 q 525 803 569 757 q 397 867 481 849 q 182 886 314 886 l 182 976 z "},"∑":{"ha":819,"x_min":68,"x_max":747,"o":"m 733 958 l 733 858 l 219 858 l 450 483 l 200 -53 l 747 -53 l 747 -151 l 68 -151 l 68 -53 l 318 483 l 85 858 l 85 958 l 733 958 z "},"∏":{"ha":1003,"x_min":54,"x_max":949,"o":"m 804 949 l 804 -143 l 688 -143 l 688 949 l 804 949 m 315 949 l 315 -143 l 199 -143 l 199 949 l 315 949 m 949 958 l 949 858 l 54 858 l 54 958 l 949 958 z "},"π":{"ha":893,"x_min":38,"x_max":856,"o":"m 286 676 l 286 0 l 169 0 l 169 676 l 286 676 m 856 676 l 854 581 l 38 581 l 38 676 l 856 676 m 724 676 l 724 0 l 606 0 l 606 676 l 724 676 z "},"∫":{"ha":515,"x_min":47,"x_max":469,"o":"m 332 992 q 394 991 356 992 q 469 986 433 990 l 461 901 l 371 901 q 298 877 319 901 q 279 788 276 853 l 342 -124 q 310 -262 347 -217 q 179 -308 274 -308 q 152 -308 169 -308 q 115 -308 135 -308 q 76 -306 94 -307 q 47 -303 58 -304 l 54 -218 l 143 -218 q 217 -192 196 -218 q 235 -101 239 -165 l 175 807 q 210 945 169 899 q 332 992 251 992 z "},"Ω":{"ha":999,"x_min":72,"x_max":926,"o":"m 500 976 q 725 925 639 976 q 851 772 811 874 q 890 517 890 669 q 869 339 890 414 q 804 207 849 264 q 689 99 760 150 q 736 105 714 103 q 781 107 758 107 l 925 107 l 926 0 l 578 0 l 576 103 q 688 208 647 153 q 746 335 728 264 q 764 501 764 406 q 737 712 764 631 q 651 831 710 793 q 499 868 593 868 q 344 830 401 868 q 260 710 286 792 q 235 499 235 629 q 254 325 235 394 q 315 204 274 256 q 421 103 356 153 l 421 0 l 72 0 l 72 107 l 217 107 q 263 106 240 107 q 308 99 285 104 q 193 210 238 151 q 128 342 149 268 q 108 517 108 417 q 147 772 108 669 q 272 925 186 874 q 500 976 358 976 z "},"¬":{"ha":819,"x_min":103,"x_max":711,"o":"m 711 458 l 711 368 l 103 368 l 103 458 l 711 458 m 711 446 l 711 183 l 619 183 l 619 446 l 711 446 z "},"√":{"ha":786,"x_min":47,"x_max":753,"o":"m 753 1217 l 396 11 q 378 0 392 0 l 240 0 q 222 11 225 0 l 47 676 l 147 676 l 300 81 l 318 81 l 651 1217 l 753 1217 z "},"≈":{"ha":815,"x_min":99,"x_max":721,"o":"m 240 356 q 318 342 276 354 q 403 315 360 331 q 490 288 447 300 q 569 274 532 275 q 616 288 603 272 q 629 347 629 303 l 710 347 q 688 224 721 265 q 574 185 654 183 q 492 197 535 185 q 407 225 450 210 q 323 253 364 240 q 246 267 282 265 q 200 252 214 267 q 186 189 186 238 l 107 189 q 114 288 99 251 q 163 341 129 325 q 240 356 196 357 m 240 621 q 318 608 276 619 q 403 581 360 596 q 490 553 447 565 q 569 540 532 542 q 616 553 603 539 q 629 614 629 567 l 710 614 q 688 490 721 531 q 574 450 654 449 q 492 463 535 450 q 407 490 450 475 q 323 518 364 506 q 246 532 282 531 q 200 517 214 533 q 186 454 186 501 l 107 454 q 114 553 99 517 q 163 606 129 590 q 240 621 196 622 z "},"Δ":{"ha":869,"x_min":35,"x_max":835,"o":"m 496 958 l 835 51 l 835 0 l 35 0 l 35 51 l 374 958 l 496 958 m 436 840 q 420 785 428 813 q 403 731 413 758 l 175 100 l 692 100 l 467 732 q 450 786 457 758 q 436 840 443 814 z "},"◊":{"ha":800,"x_min":43,"x_max":757,"o":"m 413 961 l 750 492 q 750 469 757 481 l 413 -3 q 390 -3 400 -18 l 50 469 q 50 492 43 481 l 390 961 q 413 961 400 976 m 401 843 l 147 481 l 401 115 l 654 481 l 401 843 z "},"´":{"ha":436,"x_min":68,"x_max":375,"o":"m 307 1015 l 375 924 l 108 757 l 68 811 l 307 1015 z "},"˘":{"ha":521,"x_min":50,"x_max":474,"o":"m 408 967 l 469 958 q 449 863 474 904 q 376 799 424 822 q 261 775 329 775 q 147 799 194 775 q 74 863 99 822 q 53 958 50 904 l 114 967 q 151 890 113 918 q 263 863 190 863 q 370 890 332 863 q 408 967 408 918 z "},"ˇ":{"ha":583,"x_min":67,"x_max":519,"o":"m 478 1006 l 519 956 l 321 778 l 265 778 l 67 956 l 107 1006 l 288 885 l 299 885 l 478 1006 z "},"¸":{"ha":325,"x_min":47,"x_max":281,"o":"m 125 -60 q 213 -60 179 -54 q 264 -87 247 -67 q 279 -150 281 -108 q 247 -249 278 -208 q 165 -308 217 -290 q 47 -318 114 -326 l 65 -256 q 158 -230 122 -257 q 194 -160 193 -203 q 179 -126 196 -135 q 113 -115 163 -117 l 125 -60 z "},"ˆ":{"ha":583,"x_min":67,"x_max":519,"o":"m 335 990 l 519 814 l 478 763 l 299 897 l 288 897 l 107 763 l 67 814 l 250 990 l 335 990 z "},"¨":{"ha":571,"x_min":111,"x_max":463,"o":"m 429 963 q 463 929 463 963 l 463 853 q 429 819 463 819 l 390 819 q 357 853 357 819 l 357 929 q 390 963 357 963 l 429 963 m 183 963 q 215 929 215 963 l 215 853 q 183 819 215 819 l 143 819 q 111 853 111 819 l 111 929 q 143 963 111 963 l 183 963 z "},"˙":{"ha":307,"x_min":99,"x_max":208,"o":"m 172 951 q 208 917 208 951 l 208 838 q 172 801 208 801 l 135 801 q 99 838 99 801 l 99 917 q 135 951 99 951 l 172 951 z "},"`":{"ha":438,"x_min":50,"x_max":357,"o":"m 118 1004 l 357 801 l 317 747 l 50 914 l 118 1004 z "},"˝":{"ha":632,"x_min":68,"x_max":535,"o":"m 221 1029 l 307 971 l 121 749 l 68 788 l 221 1029 m 449 1029 l 535 971 l 349 749 l 296 788 l 449 1029 z "},"¯":{"ha":556,"x_min":85,"x_max":471,"o":"m 471 933 l 471 846 l 85 846 l 85 933 l 471 933 z "},"˛":{"ha":350,"x_min":54,"x_max":272,"o":"m 200 3 l 253 0 q 195 -73 222 -35 q 150 -158 168 -111 q 161 -225 129 -210 q 258 -219 193 -240 l 272 -268 q 162 -297 207 -296 q 91 -279 117 -297 q 60 -230 65 -261 q 67 -162 54 -199 q 109 -86 78 -128 q 200 3 140 -44 z "},"˚":{"ha":417,"x_min":60,"x_max":357,"o":"m 208 1040 q 283 1021 249 1040 q 337 969 317 1001 q 357 894 357 936 q 337 821 357 854 q 283 768 317 788 q 208 749 250 749 q 134 768 168 749 q 80 820 100 788 q 60 894 60 853 q 80 969 60 936 q 134 1021 100 1001 q 208 1040 168 1040 m 208 979 q 150 956 174 979 q 126 894 126 933 q 150 833 126 856 q 208 810 174 810 q 268 833 244 810 q 292 894 292 856 q 268 956 292 933 q 208 979 244 979 z "},"˜":{"ha":582,"x_min":67,"x_max":519,"o":"m 181 971 q 238 958 213 968 q 287 934 264 947 q 334 910 310 921 q 388 894 358 899 q 442 907 428 889 q 456 964 456 925 l 511 964 q 488 845 519 886 q 403 808 457 804 q 322 831 356 813 q 258 867 288 849 q 193 888 228 885 q 141 873 154 892 q 128 813 128 854 l 72 813 q 80 904 67 868 q 120 957 93 940 q 181 971 147 974 z "},"\r":{"ha":310,"x_min":0,"x_max":0,"o":""},"ﬁ":{"ha":842,"x_min":39,"x_max":732,"o":"m 358 996 q 435 994 388 996 q 517 986 482 992 l 517 899 l 400 899 q 306 870 333 899 q 279 771 279 842 l 279 0 l 161 0 l 161 783 q 181 899 161 851 q 243 971 200 946 q 358 996 286 996 m 625 676 l 625 583 l 39 583 l 39 669 l 168 676 l 625 676 m 728 676 l 728 0 l 611 0 l 611 676 l 728 676 m 696 964 q 732 928 732 964 l 732 849 q 696 813 732 813 l 640 813 q 606 849 606 813 l 606 928 q 640 964 606 964 l 696 964 z "},"ﬂ":{"ha":928,"x_min":39,"x_max":915,"o":"m 357 996 q 416 996 379 996 q 498 994 453 996 q 589 992 543 993 q 676 987 635 990 q 744 979 717 983 l 744 172 q 768 103 744 126 q 836 81 792 81 l 901 81 l 915 6 q 880 -4 903 0 q 833 -10 857 -8 q 792 -12 808 -12 q 671 29 715 -12 q 626 146 626 71 l 626 900 l 399 900 q 306 872 332 901 q 279 771 279 843 l 279 0 l 160 0 l 160 783 q 179 899 160 851 q 242 972 199 947 q 357 996 285 997 m 481 676 l 481 583 l 39 583 l 39 669 l 167 676 l 481 676 z "},"¹":{"ha":408,"x_min":42,"x_max":292,"o":"m 292 1065 l 292 499 l 200 499 l 200 929 q 201 955 200 942 q 203 982 201 968 l 53 942 l 42 1007 l 200 1065 l 292 1065 z "},"²":{"ha":575,"x_min":79,"x_max":504,"o":"m 278 1074 q 390 1063 344 1074 q 458 1024 435 1053 q 481 942 481 996 q 452 847 481 894 q 368 743 424 800 l 201 578 q 247 581 226 581 q 292 581 267 581 l 504 579 l 503 499 l 79 499 l 79 549 q 83 569 79 560 q 94 588 86 579 l 268 760 q 329 825 306 796 q 365 881 353 854 q 378 932 378 907 q 351 983 379 972 q 274 994 322 994 q 190 992 231 994 q 92 982 149 989 l 86 1053 q 197 1070 150 1067 q 278 1074 244 1074 z "},"³":{"ha":565,"x_min":78,"x_max":485,"o":"m 269 1075 q 422 1047 378 1075 q 467 944 467 1018 q 446 849 467 888 q 368 800 425 811 l 368 797 q 456 752 432 788 q 482 656 481 717 q 438 528 485 568 q 279 488 390 488 q 176 492 228 488 q 78 504 124 497 l 85 574 q 144 569 117 571 q 200 566 172 567 q 257 565 228 565 q 358 588 329 565 q 386 667 386 610 q 378 713 386 692 q 345 746 369 733 q 272 758 321 758 l 154 758 l 154 828 l 272 829 q 342 844 321 829 q 370 880 364 858 q 375 922 376 901 q 350 982 375 967 q 256 997 325 997 q 169 995 213 997 q 93 989 125 993 l 88 1057 q 179 1070 133 1065 q 269 1075 225 1075 z "}," ":{"ha":310,"x_min":0,"x_max":0,"o":""},"℮":{"ha":854,"x_min":97,"x_max":757,"o":"m 592 347 l 592 544 q 568 612 592 589 q 508 643 544 635 q 431 651 471 651 q 349 643 389 651 q 283 612 310 635 q 257 544 257 589 l 257 122 q 285 57 257 81 q 355 24 313 33 q 439 15 397 15 q 575 49 517 15 q 692 151 633 83 l 711 136 q 578 18 650 53 q 431 -17 506 -17 q 262 23 338 -17 q 142 141 186 63 q 97 333 97 219 q 142 526 97 449 q 262 644 186 604 q 431 683 338 683 q 591 647 517 683 q 711 535 665 610 q 757 347 757 461 l 592 347 m 575 360 l 757 360 l 757 328 l 219 328 l 219 353 q 260 355 229 354 q 335 356 292 356 q 426 358 379 357 q 512 359 472 358 q 575 360 551 360 z "},"Ắ":{"ha":864,"x_min":14,"x_max":850,"o":"m 496 958 q 525 949 513 958 q 542 925 538 940 l 850 0 l 724 0 l 475 786 q 463 826 469 806 q 451 864 457 846 l 413 864 q 401 826 407 846 q 389 786 396 806 l 140 0 l 14 0 l 322 925 q 339 949 326 940 q 368 958 351 958 l 496 958 m 674 406 l 674 300 l 188 300 l 188 406 l 674 406 m 579 1219 l 640 1211 q 619 1116 644 1157 q 547 1051 594 1075 q 432 1028 500 1028 q 317 1051 365 1028 q 245 1116 269 1075 q 224 1211 221 1157 l 285 1219 q 322 1143 283 1171 q 433 1115 361 1115 q 541 1143 503 1115 q 579 1219 579 1171 m 532 1413 l 596 1326 l 404 1214 l 367 1264 l 532 1413 z "},"Ặ":{"ha":864,"x_min":14,"x_max":850,"o":"m 579 1217 l 639 1208 q 619 1113 643 1154 q 548 1049 596 1072 q 433 1025 500 1025 q 317 1049 365 1025 q 245 1113 269 1072 q 224 1208 221 1154 l 283 1217 q 322 1140 283 1168 q 433 1113 361 1113 q 541 1140 503 1113 q 579 1217 579 1168 m 496 958 q 525 949 513 958 q 542 925 538 940 l 850 0 l 724 0 l 475 786 q 463 826 469 806 q 451 864 457 846 l 413 864 q 401 826 407 846 q 389 786 396 806 l 140 0 l 14 0 l 322 925 q 339 949 326 940 q 368 958 351 958 l 496 958 m 674 406 l 674 300 l 188 300 l 188 406 l 674 406 m 451 -82 q 488 -117 488 -82 l 488 -196 q 451 -232 488 -232 l 413 -232 q 376 -196 376 -232 l 376 -117 q 413 -82 376 -82 l 451 -82 z "},"Ằ":{"ha":864,"x_min":14,"x_max":850,"o":"m 496 958 q 525 949 513 958 q 542 925 538 940 l 850 0 l 724 0 l 475 786 q 463 826 469 806 q 451 864 457 846 l 413 864 q 401 826 407 846 q 389 786 396 806 l 140 0 l 14 0 l 322 925 q 339 949 326 940 q 368 958 351 958 l 496 958 m 674 406 l 674 300 l 188 300 l 188 406 l 674 406 m 286 1219 q 324 1143 286 1171 q 432 1115 363 1115 q 542 1143 504 1115 q 581 1219 581 1171 l 642 1211 q 621 1116 646 1157 q 548 1051 596 1075 q 432 1028 500 1028 q 317 1051 365 1028 q 246 1116 269 1075 q 225 1211 222 1157 l 286 1219 m 332 1413 l 499 1264 l 461 1214 l 268 1326 l 332 1413 z "},"Ẳ":{"ha":864,"x_min":14,"x_max":850,"o":"m 496 958 q 525 949 513 958 q 542 925 538 940 l 850 0 l 724 0 l 475 786 q 463 826 469 806 q 451 864 457 846 l 413 864 q 401 826 407 846 q 389 786 396 806 l 140 0 l 14 0 l 322 925 q 339 949 326 940 q 368 958 351 958 l 496 958 m 674 406 l 674 300 l 188 300 l 188 406 l 674 406 m 579 1219 l 640 1211 q 619 1116 644 1157 q 547 1051 594 1075 q 432 1028 500 1028 q 317 1051 365 1028 q 245 1116 269 1075 q 224 1211 221 1157 l 285 1219 q 322 1143 283 1171 q 433 1115 361 1115 q 541 1143 503 1115 q 579 1219 579 1171 m 397 1253 q 452 1285 436 1264 q 468 1333 468 1306 q 441 1370 468 1363 q 369 1363 414 1378 l 357 1422 q 450 1435 408 1439 q 517 1408 492 1432 q 542 1338 542 1385 q 508 1249 542 1286 q 410 1199 475 1213 l 397 1253 z "},"Ẵ":{"ha":864,"x_min":14,"x_max":850,"o":"m 496 958 q 525 949 513 958 q 542 925 538 940 l 850 0 l 724 0 l 475 786 q 463 826 469 806 q 451 864 457 846 l 413 864 q 401 826 407 846 q 389 786 396 806 l 140 0 l 14 0 l 322 925 q 339 949 326 940 q 368 958 351 958 l 496 958 m 674 406 l 674 300 l 188 300 l 188 406 l 674 406 m 579 1219 l 640 1211 q 619 1116 644 1157 q 547 1051 594 1075 q 432 1028 500 1028 q 317 1051 365 1028 q 245 1116 269 1075 q 224 1211 221 1157 l 285 1219 q 322 1143 283 1171 q 432 1115 360 1115 q 540 1143 501 1115 q 579 1219 579 1171 m 331 1407 q 383 1394 361 1404 q 425 1370 406 1383 q 465 1346 444 1357 q 515 1332 486 1335 q 565 1345 551 1329 q 579 1400 579 1361 l 631 1400 q 610 1286 640 1325 q 528 1251 579 1247 q 470 1265 494 1254 q 426 1290 446 1276 q 386 1315 406 1304 q 343 1328 367 1326 q 292 1313 306 1331 q 279 1256 279 1296 l 228 1256 q 235 1343 222 1308 q 273 1394 247 1378 q 331 1407 299 1410 z "},"Ấ":{"ha":864,"x_min":14,"x_max":850,"o":"m 496 958 q 525 949 513 958 q 542 925 538 940 l 850 0 l 724 0 l 475 786 q 463 826 469 806 q 451 864 457 846 l 413 864 q 401 826 407 846 q 389 786 396 806 l 140 0 l 14 0 l 322 925 q 339 949 326 940 q 368 958 351 958 l 496 958 m 674 406 l 674 300 l 188 300 l 188 406 l 674 406 m 390 1222 l 475 1222 l 650 1068 l 611 1017 l 439 1135 l 428 1135 l 256 1017 l 214 1068 l 390 1222 m 708 1369 l 786 1294 l 608 1156 l 564 1200 l 708 1369 z "},"Ậ":{"ha":864,"x_min":14,"x_max":850,"o":"m 496 958 q 525 949 513 958 q 542 925 538 940 l 850 0 l 724 0 l 475 786 q 463 826 469 806 q 451 864 457 846 l 413 864 q 401 826 407 846 q 389 786 396 806 l 140 0 l 14 0 l 322 925 q 339 949 326 940 q 368 958 351 958 l 496 958 m 674 406 l 674 300 l 188 300 l 188 406 l 674 406 m 475 1235 l 660 1058 l 618 1007 l 438 1142 l 426 1142 l 247 1007 l 207 1058 l 389 1235 l 475 1235 m 451 -89 q 488 -124 488 -89 l 488 -203 q 451 -239 488 -239 l 414 -239 q 378 -203 378 -239 l 378 -124 q 414 -89 378 -89 l 451 -89 z "},"Ầ":{"ha":864,"x_min":14,"x_max":850,"o":"m 496 958 q 525 949 513 958 q 542 925 538 940 l 850 0 l 724 0 l 475 786 q 463 826 469 806 q 451 864 457 846 l 413 864 q 401 826 407 846 q 389 786 396 806 l 140 0 l 14 0 l 322 925 q 339 949 326 940 q 368 958 351 958 l 496 958 m 674 406 l 674 300 l 188 300 l 188 406 l 674 406 m 475 1222 l 651 1068 l 610 1017 l 439 1135 l 428 1135 l 254 1017 l 215 1068 l 390 1222 l 475 1222 m 157 1369 l 301 1200 l 257 1156 l 81 1294 l 157 1369 z "},"Ẩ":{"ha":864,"x_min":14,"x_max":850,"o":"m 496 958 q 525 949 513 958 q 542 925 538 940 l 850 0 l 724 0 l 475 786 q 463 826 469 806 q 451 864 457 846 l 413 864 q 401 826 407 846 q 389 786 396 806 l 140 0 l 14 0 l 322 925 q 339 949 326 940 q 368 958 351 958 l 496 958 m 674 406 l 674 300 l 188 300 l 188 406 l 674 406 m 390 1222 l 475 1222 l 650 1068 l 611 1017 l 439 1135 l 428 1135 l 256 1017 l 214 1068 l 390 1222 m 576 1222 q 632 1256 617 1235 q 647 1304 647 1276 q 620 1340 647 1333 q 549 1332 593 1347 l 536 1393 q 629 1406 588 1410 q 696 1378 671 1403 q 721 1307 721 1354 q 688 1219 721 1257 q 589 1169 654 1182 l 576 1222 z "},"Ẫ":{"ha":864,"x_min":14,"x_max":850,"o":"m 496 958 q 525 949 513 958 q 542 925 538 940 l 850 0 l 724 0 l 475 786 q 463 826 469 806 q 451 864 457 846 l 413 864 q 401 826 407 846 q 389 786 396 806 l 140 0 l 14 0 l 322 925 q 339 949 326 940 q 368 958 351 958 l 496 958 m 674 406 l 674 300 l 188 300 l 188 406 l 674 406 m 475 1222 l 650 1068 l 611 1017 l 439 1135 l 428 1135 l 256 1017 l 214 1068 l 390 1222 l 475 1222 m 336 1401 q 389 1388 367 1399 q 431 1365 411 1378 q 471 1341 450 1351 q 519 1328 492 1331 q 571 1340 557 1324 q 585 1394 585 1357 l 636 1394 q 615 1281 644 1319 q 533 1247 585 1243 q 476 1261 500 1250 q 431 1285 451 1272 q 392 1310 411 1299 q 347 1322 372 1321 q 298 1308 311 1326 q 285 1250 285 1290 l 233 1250 q 240 1338 228 1303 q 278 1388 253 1372 q 336 1401 304 1404 z "},"Ȁ":{"ha":864,"x_min":14,"x_max":850,"o":"m 496 958 q 525 949 513 958 q 542 925 538 940 l 850 0 l 724 0 l 475 786 q 463 826 469 806 q 451 864 457 846 l 413 864 q 401 826 407 846 q 389 786 396 806 l 140 0 l 14 0 l 322 925 q 339 949 326 940 q 368 958 351 958 l 496 958 m 674 406 l 674 300 l 188 300 l 188 406 l 674 406 m 453 1283 l 606 1042 l 553 1003 l 367 1225 l 453 1283 m 225 1283 l 376 1042 l 325 1003 l 139 1225 l 225 1283 z "},"Ạ":{"ha":864,"x_min":14,"x_max":850,"o":"m 496 958 q 525 949 513 958 q 542 925 538 940 l 850 0 l 724 0 l 475 786 q 463 826 469 806 q 451 864 457 846 l 413 864 q 401 826 407 846 q 389 786 396 806 l 140 0 l 14 0 l 322 925 q 339 949 326 940 q 368 958 351 958 l 496 958 m 674 406 l 674 300 l 188 300 l 188 406 l 674 406 m 451 -89 q 488 -124 488 -89 l 488 -203 q 451 -239 488 -239 l 413 -239 q 376 -203 376 -239 l 376 -124 q 413 -89 376 -89 l 451 -89 z "},"Ả":{"ha":864,"x_min":14,"x_max":850,"o":"m 496 958 q 525 949 513 958 q 542 925 538 940 l 850 0 l 724 0 l 475 786 q 463 826 469 806 q 451 864 457 846 l 413 864 q 401 826 407 846 q 389 786 396 806 l 140 0 l 14 0 l 322 925 q 339 949 326 940 q 368 958 351 958 l 496 958 m 674 406 l 674 300 l 188 300 l 188 406 l 674 406 m 419 1081 q 481 1118 464 1094 q 499 1175 499 1142 q 467 1226 499 1214 q 389 1225 436 1239 l 375 1292 q 478 1301 432 1310 q 551 1262 524 1293 q 579 1178 579 1231 q 563 1108 579 1140 q 515 1054 547 1076 q 433 1022 482 1032 l 419 1081 z "},"Ȃ":{"ha":864,"x_min":14,"x_max":850,"o":"m 496 958 q 525 949 513 958 q 542 925 538 940 l 850 0 l 724 0 l 475 786 q 463 826 469 806 q 451 864 457 846 l 413 864 q 401 826 407 846 q 389 786 396 806 l 140 0 l 14 0 l 322 925 q 339 949 326 940 q 368 958 351 958 l 496 958 m 674 406 l 674 300 l 188 300 l 188 406 l 674 406 m 282 1035 l 222 1044 q 243 1140 219 1099 q 315 1205 267 1182 q 429 1228 363 1228 q 545 1205 497 1228 q 618 1140 593 1182 q 639 1044 643 1099 l 578 1035 q 540 1112 578 1085 q 429 1139 501 1139 q 321 1112 360 1139 q 282 1035 282 1085 z "},"Ḉ":{"ha":792,"x_min":85,"x_max":742,"o":"m 461 975 q 566 972 522 975 q 647 963 610 969 q 722 947 683 957 l 710 854 q 633 861 668 858 q 557 865 597 864 q 461 867 517 867 q 314 831 368 867 q 237 710 260 794 q 214 479 214 625 q 237 249 214 333 q 314 128 260 164 q 461 92 368 92 q 610 95 550 92 q 729 107 671 99 l 742 15 q 619 -9 682 -1 q 461 -17 556 -17 q 241 31 324 -17 q 122 188 158 79 q 85 479 85 296 q 122 771 85 663 q 241 927 158 879 q 461 975 324 975 m 594 1268 l 661 1178 l 396 1011 l 354 1065 l 594 1268 m 392 -76 q 481 -77 446 -71 q 532 -104 515 -83 q 547 -167 549 -125 q 515 -266 546 -225 q 432 -325 483 -307 q 314 -335 381 -343 l 333 -272 q 425 -247 390 -274 q 461 -176 460 -219 q 446 -142 463 -151 q 379 -132 429 -133 l 392 -76 z "}}}
